SplineFontDB: 3.0
FontName: Gurumaa-2.04
FullName: Gurumaa-2.04
FamilyName: Gurumaa-2.04
Weight: Book
Copyright: Gurumaa Font Copyright (c) 2004-2015 SIL OFL; by Mohammed Asif Ali Rizvan, <fast.rizwaan@gmail.com>.
Version: 2.004
ItalicAngle: 0
UnderlinePosition: -123
UnderlineWidth: 20
Ascent: 1638
Descent: 410
sfntRevision: 0x00020106
LayerCount: 2
Layer: 0 1 "Back"  1
Layer: 1 1 "Fore"  0
XUID: [1021 527 842388927 13566447]
FSType: 0
OS2Version: 3
OS2_WeightWidthSlopeOnly: 0
OS2_UseTypoMetrics: 1
CreationTime: 1338147410
ModificationTime: 1422052401
PfmFamily: 17
TTFWeight: 400
TTFWidth: 5
LineGap: 0
VLineGap: 0
Panose: 2 0 4 0 0 0 0 0 0 0
OS2TypoAscent: 2150
OS2TypoAOffset: 0
OS2TypoDescent: -1043
OS2TypoDOffset: 0
OS2TypoLinegap: 0
OS2WinAscent: 2269
OS2WinAOffset: 0
OS2WinDescent: 972
OS2WinDOffset: 0
HheadAscent: 2150
HheadAOffset: 0
HheadDescent: -1043
HheadDOffset: 0
OS2SubXSize: 1434
OS2SubYSize: 1331
OS2SubXOff: 0
OS2SubYOff: 293
OS2SupXSize: 1434
OS2SupYSize: 1331
OS2SupXOff: 0
OS2SupYOff: 928
OS2StrikeYSize: 102
OS2StrikeYPos: 530
OS2Vendor: 'FONT'
OS2CodePages: 00000001.00000000
OS2UnicodeRanges: 00008003.00000000.00000000.00000000
Lookup: 4 0 0 "'nukt' Nukta Forms in Devanagari lookup 0"  {"'nukt' Nukta Forms in Devanagari lookup 0 subtable"  } ['nukt' ('deva' <'dflt' > ) ]
Lookup: 4 0 0 "'akhn' Akhand in Devanagari lookup 1"  {"'akhn' Akhand in Devanagari lookup 1 subtable"  } ['akhn' ('deva' <'dflt' > ) ]
Lookup: 4 0 0 "'rphf' Reph Form in Devanagari lookup 2"  {"'rphf' Reph Form in Devanagari lookup 2 subtable"  } ['rphf' ('deva' <'dflt' > ) ]
Lookup: 4 0 0 "'half' Half Forms in Devanagari lookup 3"  {"'half' Half Forms in Devanagari lookup 3 subtable"  } ['half' ('deva' <'dflt' > ) ]
Lookup: 4 0 0 "'vatu' Vattu Variants in Devanagari lookup 4"  {"'vatu' Vattu Variants in Devanagari lookup 4 subtable"  } ['vatu' ('deva' <'dflt' > ) ]

StartChar: .notdef
Encoding: 65536 -1 0
Width: 1024
GlyphClass: 2
Flags: W
LayerCount: 2
Fore
SplineSet
138 0 m 1,0,-1
 138 2150 l 1,1,-1
 886 2150 l 1,2,-1
 886 0 l 1,3,-1
 138 0 l 1,0,-1
246 128 m 1,4,-1
 778 128 l 1,5,-1
 778 2022 l 1,6,-1
 246 2022 l 1,7,-1
 246 128 l 1,4,-1
EndSplineSet
Validated: 1
EndChar

StartChar: exclam
Encoding: 33 33 4
Width: 569
GlyphClass: 2
Flags: W
LayerCount: 2
Fore
SplineSet
241 364 m 1,0,-1
 186 1141 l 1,1,-1
 186 1466 l 1,2,-1
 389 1466 l 1,3,-1
 389 1141 l 1,4,-1
 337 364 l 1,5,-1
 241 364 l 1,0,-1
194 0 m 1,6,-1
 194 205 l 1,7,-1
 381 205 l 1,8,-1
 381 0 l 1,9,-1
 194 0 l 1,6,-1
EndSplineSet
Validated: 1
EndChar

StartChar: quotedbl
Encoding: 34 34 5
Width: 910
GlyphClass: 2
Flags: W
LayerCount: 2
Fore
SplineSet
726 1128 m 1,0,-1
 615 1128 l 1,1,-1
 560 1638 l 1,2,-1
 780 1638 l 1,3,-1
 726 1128 l 1,0,-1
296 1128 m 1,4,-1
 185 1128 l 1,5,-1
 130 1638 l 1,6,-1
 350 1638 l 1,7,-1
 296 1128 l 1,4,-1
EndSplineSet
Validated: 1
EndChar

StartChar: numbersign
Encoding: 35 35 6
Width: 1139
GlyphClass: 2
Flags: W
LayerCount: 2
Fore
SplineSet
113 -25 m 1,0,-1
 200 401 l 1,1,-1
 31 401 l 1,2,-1
 31 550 l 1,3,-1
 230 550 l 1,4,5
 248 641 248 641 267 731.5 c 128,-1,6
 286 822 286 822 304 913 c 1,7,-1
 31 913 l 1,8,-1
 31 1062 l 1,9,-1
 334 1062 l 1,10,-1
 421 1491 l 1,11,-1
 551 1491 l 1,12,-1
 464 1062 l 1,13,-1
 799 1062 l 1,14,-1
 886 1491 l 1,15,-1
 1017 1491 l 1,16,-1
 930 1062 l 1,17,-1
 1103 1062 l 1,18,-1
 1103 913 l 1,19,-1
 900 913 l 1,20,-1
 825 550 l 1,21,-1
 1103 550 l 1,22,-1
 1103 401 l 1,23,-1
 795 401 l 1,24,-1
 708 -25 l 1,25,-1
 578 -25 l 1,26,-1
 664 401 l 1,27,-1
 330 401 l 1,28,-1
 243 -25 l 1,29,-1
 113 -25 l 1,0,-1
360 550 m 1,30,-1
 694 550 l 1,31,-1
 769 913 l 1,32,-1
 434 913 l 1,33,-1
 360 550 l 1,30,-1
EndSplineSet
Validated: 1
EndChar

StartChar: dollar
Encoding: 36 36 7
Width: 1139
GlyphClass: 2
Flags: W
LayerCount: 2
Fore
SplineSet
520 -211 m 1,0,-1
 520 -31 l 1,1,-1
 511 -31 l 1,2,3
 383 -15 383 -15 295 29 c 1,4,5
 215 71 215 71 152 170 c 0,6,7
 94 263 94 263 83 408 c 1,8,-1
 244 439 l 1,9,10
 254 370 254 370 273.5 317 c 128,-1,11
 293 264 293 264 320 228 c 1,12,13
 357 183 357 183 405.5 154.5 c 128,-1,14
 454 126 454 126 509 121 c 1,15,-1
 520 121 l 1,16,-1
 520 694 l 1,17,-1
 512 694 l 1,18,19
 461 703 461 703 402.5 726.5 c 128,-1,20
 344 750 344 750 288 780 c 1,21,22
 250 804 250 804 218 838.5 c 128,-1,23
 186 873 186 873 163 915 c 128,-1,24
 140 957 140 957 127 1005.5 c 128,-1,25
 114 1054 114 1054 114 1106 c 0,26,27
 114 1203 114 1203 147.5 1281 c 128,-1,28
 181 1359 181 1359 247 1417 c 1,29,30
 294 1456 294 1456 360.5 1481.5 c 128,-1,31
 427 1507 427 1507 511 1515 c 1,32,-1
 520 1515 l 1,33,-1
 520 1601 l 1,34,-1
 606 1601 l 1,35,-1
 606 1515 l 1,36,-1
 615 1515 l 1,37,38
 689 1508 689 1508 751 1484.5 c 128,-1,39
 813 1461 813 1461 859 1423 c 1,40,41
 913 1376 913 1376 949 1307 c 128,-1,42
 985 1238 985 1238 997 1153 c 1,43,-1
 831 1128 l 1,44,45
 816 1232 816 1232 763.5 1288 c 128,-1,46
 711 1344 711 1344 618 1363 c 1,47,-1
 606 1363 l 1,48,-1
 606 844 l 1,49,-1
 614 844 l 1,50,51
 680 827 680 827 724.5 814.5 c 128,-1,52
 769 802 769 802 792 791 c 0,53,54
 909 737 909 737 971 642.5 c 128,-1,55
 1033 548 1033 548 1033 417 c 0,56,57
 1033 227 1033 227 917 105 c 0,58,59
 798 -20 798 -20 616 -29 c 1,60,-1
 606 -29 l 1,61,-1
 606 -211 l 1,62,-1
 520 -211 l 1,0,-1
520 1365 m 1,63,-1
 508 1365 l 1,64,65
 454 1357 454 1357 410.5 1334.5 c 128,-1,66
 367 1312 367 1312 337 1281 c 1,67,68
 307 1246 307 1246 290.5 1205 c 128,-1,69
 274 1164 274 1164 274 1120 c 0,70,71
 274 1074 274 1074 286.5 1036 c 128,-1,72
 299 998 299 998 327 967 c 128,-1,73
 355 936 355 936 399.5 911 c 128,-1,74
 444 886 444 886 507 867 c 1,75,-1
 520 867 l 1,76,-1
 520 1365 l 1,63,-1
606 121 m 1,77,-1
 617 121 l 1,78,79
 731 136 731 136 796 212 c 1,80,81
 868 293 868 293 868 405 c 0,82,83
 868 502 868 502 817 562 c 1,84,85
 794 591 794 591 745 618 c 128,-1,86
 696 645 696 645 619 669 c 1,87,-1
 606 669 l 1,88,-1
 606 121 l 1,77,-1
EndSplineSet
Validated: 1
EndChar

StartChar: percent
Encoding: 37 37 8
Width: 1821
GlyphClass: 2
Flags: W
LayerCount: 2
Fore
SplineSet
129 1114 m 0,0,1
 129 1276 129 1276 206 1381 c 0,2,3
 286 1491 286 1491 427 1491 c 0,4,5
 558 1491 558 1491 648 1392 c 1,6,7
 736 1298 736 1298 736 1103 c 0,8,9
 736 914 736 914 647 816 c 0,10,11
 556 716 556 716 429 716 c 256,12,13
 302 716 302 716 214 815 c 0,14,15
 129 910 129 910 129 1114 c 0,0,1
432 1367 m 0,16,17
 358 1367 358 1367 312 1309 c 1,18,19
 291 1277 291 1277 278.5 1223 c 128,-1,20
 266 1169 266 1169 266 1096 c 0,21,22
 266 1028 266 1028 278 978 c 128,-1,23
 290 928 290 928 313 897 c 1,24,25
 359 840 359 840 432 840 c 0,26,27
 509 840 509 840 552 898 c 1,28,29
 599 958 599 958 599 1110 c 0,30,31
 599 1248 599 1248 552 1309 c 0,32,33
 507 1367 507 1367 432 1367 c 0,16,17
442 -54 m 1,34,-1
 1244 1491 l 1,35,-1
 1372 1491 l 1,36,-1
 573 -54 l 1,37,-1
 442 -54 l 1,34,-1
1077 344 m 0,38,39
 1077 506 1077 506 1154 611 c 0,40,41
 1234 721 1234 721 1376 721 c 0,42,43
 1507 721 1507 721 1597 622 c 1,44,45
 1685 528 1685 528 1685 333 c 0,46,47
 1685 144 1685 144 1596 46 c 0,48,49
 1505 -54 1505 -54 1377 -54 c 0,50,51
 1250 -54 1250 -54 1162 45 c 0,52,53
 1077 142 1077 142 1077 344 c 0,38,39
1381 597 m 256,54,55
 1306 597 1306 597 1260 539 c 1,56,57
 1239 507 1239 507 1226.5 453 c 128,-1,58
 1214 399 1214 399 1214 326 c 0,59,60
 1214 188 1214 188 1261 128 c 0,61,62
 1306 70 1306 70 1380 70 c 0,63,64
 1458 70 1458 70 1501 128 c 1,65,66
 1548 188 1548 188 1548 340 c 0,67,68
 1548 478 1548 478 1501 539 c 0,69,70
 1456 597 1456 597 1381 597 c 256,54,55
EndSplineSet
Validated: 1
EndChar

StartChar: ampersand
Encoding: 38 38 9
Width: 1366
GlyphClass: 2
Flags: W
LayerCount: 2
Fore
SplineSet
966 173 m 1,0,1
 787 -25 787 -25 552 -25 c 0,2,3
 335 -25 335 -25 203 127 c 1,4,5
 98 250 98 250 98 404 c 0,6,7
 98 678 98 678 441 842 c 1,8,-1
 445 842 l 1,9,10
 396 899 396 899 363.5 945 c 128,-1,11
 331 991 331 991 314 1027 c 0,12,13
 282 1097 282 1097 282 1164 c 0,14,15
 282 1299 282 1299 382 1393 c 0,16,17
 486 1491 486 1491 636 1491 c 0,18,19
 707 1491 707 1491 766.5 1467.5 c 128,-1,20
 826 1444 826 1444 874 1399 c 1,21,22
 919 1354 919 1354 943 1299 c 128,-1,23
 967 1244 967 1244 967 1178 c 0,24,25
 967 967 967 967 695 821 c 1,26,-1
 692 821 l 1,27,28
 758 737 758 737 823.5 653.5 c 128,-1,29
 889 570 889 570 955 486 c 1,30,-1
 972 486 l 1,31,32
 1018 575 1018 575 1042 688 c 1,33,-1
 1210 652 l 1,34,35
 1185 555 1185 555 1152 474 c 128,-1,36
 1119 393 1119 393 1082 334 c 1,37,38
 1130 271 1130 271 1189 213.5 c 128,-1,39
 1248 156 1248 156 1312 110 c 1,40,-1
 1195 -29 l 1,41,42
 1099 32 1099 32 981 173 c 1,43,-1
 966 173 l 1,0,1
599 937 m 1,44,-1
 612 937 l 1,45,46
 733 1009 733 1009 766 1058 c 1,47,48
 803 1115 803 1115 803 1173 c 0,49,50
 803 1247 803 1247 752 1295 c 1,51,52
 705 1343 705 1343 627 1343 c 0,53,54
 587 1343 587 1343 555 1330.5 c 128,-1,55
 523 1318 523 1318 498 1296 c 1,56,57
 447 1247 447 1247 447 1181 c 0,58,59
 447 1117 447 1117 519 1030 c 1,60,-1
 599 937 l 1,44,-1
538 724 m 1,61,-1
 525 724 l 1,62,63
 374 633 374 633 325 562 c 0,64,65
 272 486 272 486 272 415 c 0,66,67
 272 329 272 329 345 230 c 0,68,69
 415 134 415 134 554 134 c 0,70,71
 640 134 640 134 726 184 c 0,72,73
 771 210 771 210 807 244 c 128,-1,74
 843 278 843 278 868 315 c 1,75,-1
 538 724 l 1,61,-1
EndSplineSet
Validated: 1
EndChar

StartChar: quotesingle
Encoding: 39 39 10
Width: 480
GlyphClass: 2
Flags: W
LayerCount: 2
Fore
SplineSet
296 1128 m 1,0,-1
 185 1128 l 1,1,-1
 130 1638 l 1,2,-1
 350 1638 l 1,3,-1
 296 1128 l 1,0,-1
EndSplineSet
Validated: 1
EndChar

StartChar: parenleft
Encoding: 40 40 11
Width: 682
GlyphClass: 2
Flags: W
LayerCount: 2
Fore
SplineSet
487 -431 m 1,0,1
 413 -338 413 -338 351 -228.5 c 128,-1,2
 289 -119 289 -119 236 9 c 0,3,4
 134 258 134 258 134 531 c 0,5,6
 134 770 134 770 210 987 c 0,7,8
 255 1116 255 1116 324 1241 c 128,-1,9
 393 1366 393 1366 487 1491 c 1,10,-1
 599 1491 l 1,11,12
 538 1386 538 1386 498.5 1312.5 c 128,-1,13
 459 1239 459 1239 439 1194 c 0,14,15
 407 1122 407 1122 383 1050.5 c 128,-1,16
 359 979 359 979 342 906 c 0,17,18
 299 721 299 721 299 530 c 0,19,20
 299 54 299 54 600 -431 c 1,21,-1
 487 -431 l 1,0,1
EndSplineSet
Validated: 1
EndChar

StartChar: parenright
Encoding: 41 41 12
Width: 682
GlyphClass: 2
Flags: W
LayerCount: 2
Fore
SplineSet
132 -431 m 1,0,1
 433 54 433 54 433 530 c 0,2,3
 433 624 433 624 422.5 717 c 128,-1,4
 412 810 412 810 390 903 c 0,5,6
 373 976 373 976 349.5 1047.5 c 128,-1,7
 326 1119 326 1119 294 1191 c 0,8,9
 274 1236 274 1236 234 1310.5 c 128,-1,10
 194 1385 194 1385 133 1491 c 1,11,-1
 245 1491 l 1,12,13
 339 1366 339 1366 408 1241 c 128,-1,14
 477 1116 477 1116 522 987 c 0,15,16
 598 770 598 770 598 531 c 0,17,18
 598 262 598 262 495 9 c 0,19,20
 442 -119 442 -119 380.5 -228 c 128,-1,21
 319 -337 319 -337 245 -431 c 1,22,-1
 132 -431 l 1,0,1
EndSplineSet
Validated: 1
EndChar

StartChar: asterisk
Encoding: 42 42 13
Width: 797
GlyphClass: 2
Flags: W
LayerCount: 2
Fore
SplineSet
119 1335 m 1,0,1
 190 1310 190 1310 244 1286.5 c 128,-1,2
 298 1263 298 1263 336 1242 c 1,3,-1
 351 1242 l 1,4,5
 341 1333 341 1333 336.5 1395 c 128,-1,6
 332 1457 332 1457 331 1491 c 1,7,-1
 456 1491 l 1,8,9
 454 1441 454 1441 448.5 1379.5 c 128,-1,10
 443 1318 443 1318 433 1243 c 1,11,-1
 448 1243 l 1,12,13
 557 1298 557 1298 670 1335 c 1,14,-1
 716 1195 l 1,15,16
 593 1154 593 1154 475 1141 c 1,17,-1
 470 1141 l 1,18,19
 498 1118 498 1118 540.5 1070.5 c 128,-1,20
 583 1023 583 1023 641 951 c 1,21,-1
 531 873 l 1,22,23
 485 936 485 936 400 1082 c 1,24,-1
 382 1082 l 1,25,26
 344 1010 344 1010 313 958 c 128,-1,27
 282 906 282 906 258 874 c 1,28,-1
 150 951 l 1,29,30
 210 1025 210 1025 251.5 1072 c 128,-1,31
 293 1119 293 1119 316 1141 c 1,32,-1
 311 1141 l 1,33,34
 246 1154 246 1154 188.5 1166.5 c 128,-1,35
 131 1179 131 1179 73 1195 c 1,36,-1
 119 1335 l 1,0,1
EndSplineSet
Validated: 1
EndChar

StartChar: plus
Encoding: 43 43 14
Width: 1196
GlyphClass: 2
Flags: W
LayerCount: 2
Fore
SplineSet
523 237 m 1,0,-1
 523 639 l 1,1,-1
 124 639 l 1,2,-1
 124 807 l 1,3,-1
 523 807 l 1,4,-1
 523 1206 l 1,5,-1
 673 1206 l 1,6,-1
 673 807 l 1,7,-1
 1072 807 l 1,8,-1
 1072 639 l 1,9,-1
 673 639 l 1,10,-1
 673 237 l 1,11,-1
 523 237 l 1,0,-1
EndSplineSet
Validated: 1
EndChar

StartChar: comma
Encoding: 44 44 15
Width: 569
GlyphClass: 2
Flags: W
LayerCount: 2
Fore
SplineSet
192 205 m 1,0,-1
 377 205 l 1,1,-1
 377 0 l 2,2,3
 377 -114 377 -114 340.5 -182.5 c 128,-1,4
 304 -251 304 -251 225 -286 c 1,5,-1
 177 -212 l 1,6,7
 235 -187 235 -187 263 -138.5 c 128,-1,8
 291 -90 291 -90 294 0 c 1,9,-1
 192 0 l 1,10,-1
 192 205 l 1,0,-1
EndSplineSet
Validated: 1
EndChar

StartChar: hyphen
Encoding: 45 45 16
Width: 682
GlyphClass: 2
Flags: W
LayerCount: 2
Fore
SplineSet
75 440 m 1,0,-1
 75 621 l 1,1,-1
 608 621 l 1,2,-1
 608 440 l 1,3,-1
 75 440 l 1,0,-1
EndSplineSet
Validated: 1
EndChar

StartChar: period
Encoding: 46 46 17
Width: 569
GlyphClass: 2
Flags: W
LayerCount: 2
Fore
SplineSet
196 0 m 1,0,-1
 196 205 l 1,1,-1
 381 205 l 1,2,-1
 381 0 l 1,3,-1
 196 0 l 1,0,-1
EndSplineSet
Validated: 1
EndChar

StartChar: slash
Encoding: 47 47 18
Width: 569
GlyphClass: 2
Flags: W
LayerCount: 2
Fore
SplineSet
10 -25 m 1,0,-1
 435 1491 l 1,1,-1
 559 1491 l 1,2,-1
 135 -25 l 1,3,-1
 10 -25 l 1,0,-1
EndSplineSet
Validated: 1
EndChar

StartChar: zero
Encoding: 48 48 19
Width: 1139
GlyphClass: 2
Flags: W
LayerCount: 2
Fore
SplineSet
95 723 m 0,0,1
 95 855 95 855 108 959 c 128,-1,2
 121 1063 121 1063 147 1141 c 0,3,4
 201 1302 201 1302 303 1386 c 1,5,6
 410 1472 410 1472 563 1472 c 0,7,8
 675 1472 675 1472 763 1422.5 c 128,-1,9
 851 1373 851 1373 909 1287 c 1,10,11
 935 1245 935 1245 958 1189 c 128,-1,12
 981 1133 981 1133 998 1069 c 0,13,14
 1014 1005 1014 1005 1022.5 918 c 128,-1,15
 1031 831 1031 831 1031 723 c 0,16,17
 1031 591 1031 591 1018 487.5 c 128,-1,18
 1005 384 1005 384 979 306 c 0,19,20
 925 143 925 143 823 61 c 0,21,22
 717 -25 717 -25 563 -25 c 0,23,24
 360 -25 360 -25 238 127 c 0,25,26
 95 307 95 307 95 723 c 0,0,1
260 723 m 0,27,28
 260 366 260 366 346 242 c 1,29,30
 432 123 432 123 563 123 c 0,31,32
 695 123 695 123 779 243 c 0,33,34
 866 366 866 366 866 723 c 0,35,36
 866 1082 866 1082 779 1204 c 0,37,38
 695 1323 695 1323 561 1323 c 0,39,40
 495 1323 495 1323 443.5 1296 c 128,-1,41
 392 1269 392 1269 355 1218 c 1,42,43
 309 1149 309 1149 284.5 1025.5 c 128,-1,44
 260 902 260 902 260 723 c 0,27,28
EndSplineSet
Validated: 1
EndChar

StartChar: one
Encoding: 49 49 20
Width: 1139
GlyphClass: 2
Flags: W
LayerCount: 2
Fore
SplineSet
753 0 m 1,0,-1
 593 0 l 1,1,-1
 593 1147 l 1,2,-1
 576 1147 l 1,3,4
 542 1115 542 1115 500 1083.5 c 128,-1,5
 458 1052 458 1052 407 1023 c 1,6,7
 353 991 353 991 309.5 969.5 c 128,-1,8
 266 948 266 948 233 935 c 1,9,-1
 233 1107 l 1,10,11
 310 1142 310 1142 375 1185 c 128,-1,12
 440 1228 440 1228 494 1276 c 0,13,14
 610 1379 610 1379 656 1472 c 1,15,-1
 753 1472 l 1,16,-1
 753 0 l 1,0,-1
EndSplineSet
Validated: 1
EndChar

StartChar: two
Encoding: 50 50 21
Width: 1139
GlyphClass: 2
Flags: W
LayerCount: 2
Fore
SplineSet
1021 0 m 1,0,-1
 72 0 l 1,1,2
 71 33 71 33 76 64.5 c 128,-1,3
 81 96 81 96 92 125 c 0,4,5
 112 176 112 176 140.5 224 c 128,-1,6
 169 272 169 272 209 320 c 1,7,8
 252 369 252 369 311.5 425.5 c 128,-1,9
 371 482 371 482 443 542 c 0,10,11
 499 589 499 589 549.5 633.5 c 128,-1,12
 600 678 600 678 642 717.5 c 128,-1,13
 684 757 684 757 716 791.5 c 128,-1,14
 748 826 748 826 768 852 c 1,15,16
 806 908 806 908 830 964.5 c 128,-1,17
 854 1021 854 1021 854 1069 c 0,18,19
 854 1172 854 1172 774 1249 c 0,20,21
 697 1323 697 1323 568 1323 c 0,22,23
 431 1323 431 1323 353 1245 c 0,24,25
 311 1203 311 1203 291.5 1150 c 128,-1,26
 272 1097 272 1097 271 1030 c 1,27,-1
 106 1047 l 1,28,29
 125 1256 125 1256 245.5 1364 c 128,-1,30
 366 1472 366 1472 572 1472 c 0,31,32
 776 1472 776 1472 899 1355 c 0,33,34
 1019 1241 1019 1241 1019 1065 c 0,35,36
 1019 976 1019 976 983.5 890.5 c 128,-1,37
 948 805 948 805 866 713 c 1,38,-1
 865 713 l 1,39,40
 820 662 820 662 752 598 c 128,-1,41
 684 534 684 534 590 455 c 0,42,43
 506 384 506 384 454 338.5 c 128,-1,44
 402 293 402 293 381 270 c 0,45,46
 355 243 355 243 336 219 c 128,-1,47
 317 195 317 195 303 173 c 1,48,-1
 1021 173 l 1,49,-1
 1021 0 l 1,0,-1
EndSplineSet
Validated: 33
EndChar

StartChar: three
Encoding: 51 51 22
Width: 1139
GlyphClass: 2
Flags: W
LayerCount: 2
Fore
SplineSet
467 851 m 0,0,1
 468 851 468 851 468.5 850.5 c 128,-1,2
 469 850 469 850 471 850 c 1,3,-1
 471 852 l 1,4,5
 470 851 470 851 467.5 851 c 128,-1,6
 465 851 465 851 467 851 c 0,0,1
256 410 m 1,7,8
 287 258 287 258 364 190.5 c 128,-1,9
 441 123 441 123 553 123 c 0,10,11
 687 123 687 123 774 211 c 0,12,13
 865 302 865 302 865 429 c 0,14,15
 865 552 865 552 781 633 c 1,16,17
 700 714 700 714 568 714 c 0,18,19
 542 714 542 714 513 709.5 c 128,-1,20
 484 705 484 705 451 697 c 1,21,-1
 471 850 l 1,22,-1
 490 850 l 2,23,24
 610 850 610 850 702 910 c 1,25,26
 799 975 799 975 799 1095 c 0,27,28
 799 1192 799 1192 729 1259 c 0,29,30
 661 1324 661 1324 549 1324 c 0,31,32
 439 1324 439 1324 366.5 1259 c 128,-1,33
 294 1194 294 1194 274 1062 c 1,34,-1
 114 1091 l 1,35,36
 149 1279 149 1279 260 1372 c 1,37,-1
 261 1372 l 1,38,39
 377 1472 377 1472 545 1472 c 0,40,41
 660 1472 660 1472 761 1420 c 0,42,43
 807 1396 807 1396 845.5 1360.5 c 128,-1,44
 884 1325 884 1325 911 1280 c 0,45,46
 937 1237 937 1237 950.5 1189.5 c 128,-1,47
 964 1142 964 1142 964 1091 c 0,48,49
 964 994 964 994 914.5 916.5 c 128,-1,50
 865 839 865 839 768 794 c 1,51,-1
 770 794 l 1,52,53
 897 765 897 765 966.5 670.5 c 128,-1,54
 1036 576 1036 576 1036 433 c 0,55,56
 1036 238 1036 238 899 107 c 0,57,58
 760 -26 760 -26 552 -26 c 0,59,60
 365 -26 365 -26 238 89 c 0,61,62
 114 201 114 201 96 388 c 1,63,-1
 256 410 l 1,7,8
EndSplineSet
Validated: 5
EndChar

StartChar: four
Encoding: 52 52 23
Width: 1139
GlyphClass: 2
Flags: W
LayerCount: 2
Fore
SplineSet
672 0 m 1,0,-1
 672 351 l 1,1,-1
 36 351 l 1,2,-1
 36 519 l 1,3,-1
 703 1466 l 1,4,-1
 832 1466 l 1,5,-1
 832 516 l 1,6,-1
 1030 516 l 1,7,-1
 1030 351 l 1,8,-1
 832 351 l 1,9,-1
 832 0 l 1,10,-1
 672 0 l 1,0,-1
672 1177 m 1,11,-1
 654 1177 l 1,12,13
 539 1011 539 1011 424.5 846.5 c 128,-1,14
 310 682 310 682 195 516 c 1,15,-1
 672 516 l 1,16,-1
 672 1177 l 1,11,-1
EndSplineSet
Validated: 1
EndChar

StartChar: five
Encoding: 53 53 24
Width: 1139
GlyphClass: 2
Flags: W
LayerCount: 2
Fore
SplineSet
264 399 m 1,0,1
 274 330 274 330 300 278.5 c 128,-1,2
 326 227 326 227 364 192.5 c 128,-1,3
 402 158 402 158 451 140.5 c 128,-1,4
 500 123 500 123 556 123 c 0,5,6
 693 123 693 123 783 221 c 0,7,8
 876 323 876 323 876 481 c 0,9,10
 876 632 876 632 786 724 c 0,11,12
 700 813 700 813 553 813 c 0,13,14
 462 813 462 813 390.5 774 c 128,-1,15
 319 735 319 735 279 672 c 1,16,-1
 127 692 l 1,17,-1
 269 1446 l 1,18,-1
 978 1446 l 1,19,-1
 978 1274 l 1,20,-1
 393 1274 l 1,21,22
 373 1175 373 1175 353.5 1077 c 128,-1,23
 334 979 334 979 314 880 c 1,24,-1
 330 880 l 1,25,26
 463 972 463 972 601 972 c 0,27,28
 786 972 786 972 918 839 c 0,29,30
 1047 708 1047 708 1047 497 c 0,31,32
 1047 397 1047 397 1018 311 c 128,-1,33
 989 225 989 225 933 153 c 1,34,35
 862 65 862 65 768 20 c 128,-1,36
 674 -25 674 -25 556 -25 c 0,37,38
 363 -25 363 -25 236 87 c 1,39,40
 113 197 113 197 95 385 c 1,41,-1
 264 399 l 1,0,1
EndSplineSet
Validated: 1
EndChar

StartChar: six
Encoding: 54 54 25
Width: 1139
GlyphClass: 2
Flags: W
LayerCount: 2
Fore
SplineSet
850 1094 m 1,0,1
 828 1194 828 1194 779 1247 c 1,2,3
 705 1324 705 1324 592 1324 c 0,4,5
 499 1324 499 1324 435 1276 c 1,6,7
 347 1213 347 1213 298 1095 c 0,8,9
 248 975 248 975 246 756 c 1,10,-1
 264 756 l 1,11,12
 330 856 330 856 421 903.5 c 128,-1,13
 512 951 512 951 612 951 c 0,14,15
 698 951 698 951 773 917.5 c 128,-1,16
 848 884 848 884 911 818 c 0,17,18
 971 754 971 754 1003 667 c 128,-1,19
 1035 580 1035 580 1035 476 c 0,20,21
 1035 337 1035 337 976 219 c 0,22,23
 916 98 916 98 817 38 c 0,24,25
 713 -25 713 -25 586 -25 c 0,26,27
 369 -25 369 -25 227 140 c 0,28,29
 87 304 87 304 87 686 c 0,30,31
 87 898 87 898 126.5 1053 c 128,-1,32
 166 1208 166 1208 242 1304 c 1,33,34
 309 1380 309 1380 402 1426 c 128,-1,35
 495 1472 495 1472 603 1472 c 0,36,37
 684 1472 684 1472 754.5 1447 c 128,-1,38
 825 1422 825 1422 879 1375 c 1,39,40
 929 1327 929 1327 963.5 1259 c 128,-1,41
 998 1191 998 1191 1009 1106 c 1,42,-1
 850 1094 l 1,0,1
274 475 m 0,43,44
 274 384 274 384 314 297 c 1,45,46
 353 217 353 217 429 167 c 1,47,48
 464 146 464 146 503 134.5 c 128,-1,49
 542 123 542 123 583 123 c 0,50,51
 703 123 703 123 786 215 c 0,52,53
 871 309 871 309 871 465 c 0,54,55
 871 614 871 614 787 704 c 0,56,57
 706 792 706 792 576 792 c 0,58,59
 447 792 447 792 362 704 c 0,60,61
 274 613 274 613 274 475 c 0,43,44
EndSplineSet
Validated: 1
EndChar

StartChar: seven
Encoding: 55 55 26
Width: 1139
GlyphClass: 2
Flags: W
LayerCount: 2
Fore
SplineSet
107 1447 m 1,0,-1
 1036 1447 l 1,1,-1
 1036 1304 l 1,2,3
 968 1232 968 1232 896.5 1129.5 c 128,-1,4
 825 1027 825 1027 759 911 c 1,5,6
 692 787 692 787 637 658 c 128,-1,7
 582 529 582 529 546 403 c 0,8,9
 492 218 492 218 477 0 c 1,10,-1
 312 0 l 1,11,12
 313 39 313 39 318.5 89 c 128,-1,13
 324 139 324 139 333 194 c 128,-1,14
 342 249 342 249 354 306.5 c 128,-1,15
 366 364 366 364 380 418 c 0,16,17
 396 476 396 476 416.5 538 c 128,-1,18
 437 600 437 600 460.5 660.5 c 128,-1,19
 484 721 484 721 510.5 779.5 c 128,-1,20
 537 838 537 838 565 890 c 0,21,22
 626 1004 626 1004 691.5 1101 c 128,-1,23
 757 1198 757 1198 823 1274 c 1,24,-1
 107 1274 l 1,25,-1
 107 1447 l 1,0,-1
EndSplineSet
Validated: 1
EndChar

StartChar: eight
Encoding: 56 56 27
Width: 1139
GlyphClass: 2
Flags: W
LayerCount: 2
Fore
SplineSet
365 795 m 1,0,1
 256 836 256 836 204 911.5 c 128,-1,2
 152 987 152 987 152 1094 c 0,3,4
 152 1257 152 1257 264 1363 c 0,5,6
 379 1472 379 1472 563 1472 c 0,7,8
 654 1472 654 1472 730 1443.5 c 128,-1,9
 806 1415 806 1415 865 1360 c 1,10,11
 921 1306 921 1306 950 1238 c 128,-1,12
 979 1170 979 1170 979 1089 c 0,13,14
 979 986 979 986 927 911 c 128,-1,15
 875 836 875 836 769 795 c 1,16,-1
 770 795 l 1,17,18
 903 752 903 752 971 654 c 128,-1,19
 1039 556 1039 556 1039 419 c 0,20,21
 1039 227 1039 227 909 103 c 0,22,23
 775 -25 775 -25 566 -25 c 256,24,25
 357 -25 357 -25 223 103 c 1,26,27
 93 229 93 229 93 424 c 0,28,29
 93 569 93 569 163 664.5 c 128,-1,30
 233 760 233 760 365 795 c 1,0,1
316 1100 m 0,31,32
 316 999 316 999 386 930 c 0,33,34
 453 864 453 864 567 864 c 0,35,36
 677 864 677 864 744 929 c 0,37,38
 814 998 814 998 814 1090 c 0,39,40
 814 1187 814 1187 742 1256 c 1,41,42
 674 1324 674 1324 565 1324 c 0,43,44
 454 1324 454 1324 387 1258 c 0,45,46
 316 1189 316 1189 316 1100 c 0,31,32
258 423 m 0,47,48
 258 348 258 348 295 274 c 0,49,50
 312 242 312 242 342.5 212.5 c 128,-1,51
 373 183 373 183 408 162 c 1,52,53
 443 143 443 143 484 133 c 128,-1,54
 525 123 525 123 568 123 c 0,55,56
 703 123 703 123 788 206 c 0,57,58
 875 291 875 291 875 417 c 0,59,60
 875 545 875 545 785 632 c 1,61,62
 700 717 700 717 562 717 c 0,63,64
 428 717 428 717 344 633 c 1,65,66
 258 545 258 545 258 423 c 0,47,48
EndSplineSet
Validated: 1
EndChar

StartChar: nine
Encoding: 57 57 28
Width: 1139
GlyphClass: 2
Flags: W
LayerCount: 2
Fore
SplineSet
275 354 m 1,0,1
 297 232 297 232 361.5 177.5 c 128,-1,2
 426 123 426 123 528 123 c 0,3,4
 616 123 616 123 680 161 c 128,-1,5
 744 199 744 199 784 262 c 0,6,7
 828 331 828 331 853 434 c 0,8,9
 880 542 880 542 880 654 c 0,10,11
 880 660 880 660 880 669 c 128,-1,12
 880 678 880 678 879 690 c 1,13,-1
 861 690 l 1,14,15
 805 602 805 602 716 550 c 1,16,17
 622 497 622 497 519 497 c 0,18,19
 344 497 344 497 218 629 c 0,20,21
 95 758 95 758 95 977 c 0,22,23
 95 1202 95 1202 223 1336 c 1,24,25
 355 1472 355 1472 546 1472 c 0,26,27
 683 1472 683 1472 802 1395 c 0,28,29
 915 1321 915 1321 978 1175 c 0,30,31
 1008 1105 1008 1105 1023.5 1002.5 c 128,-1,32
 1039 900 1039 900 1039 763 c 0,33,34
 1039 622 1039 622 1023.5 509.5 c 128,-1,35
 1008 397 1008 397 979 315 c 1,36,37
 948 234 948 234 902.5 169 c 128,-1,38
 857 104 857 104 800 62 c 1,39,40
 741 21 741 21 670 -2 c 128,-1,41
 599 -25 599 -25 524 -25 c 0,42,43
 360 -25 360 -25 250 70 c 0,44,45
 145 162 145 162 122 340 c 1,46,-1
 275 354 l 1,0,1
859 986 m 0,47,48
 859 1137 859 1137 773 1232 c 0,49,50
 691 1323 691 1323 568 1323 c 0,51,52
 441 1323 441 1323 352 1225 c 0,53,54
 260 1124 260 1124 260 971 c 0,55,56
 260 905 260 905 283 846.5 c 128,-1,57
 306 788 306 788 347 743 c 1,58,59
 389 702 389 702 444 679 c 128,-1,60
 499 656 499 656 563 656 c 0,61,62
 695 656 695 656 775 743 c 1,63,64
 859 836 859 836 859 986 c 0,47,48
EndSplineSet
Validated: 1
EndChar

StartChar: colon
Encoding: 58 58 29
Width: 569
GlyphClass: 2
Flags: W
LayerCount: 2
Fore
SplineSet
195 857 m 1,0,-1
 195 1062 l 1,1,-1
 380 1062 l 1,2,-1
 380 857 l 1,3,-1
 195 857 l 1,0,-1
195 0 m 1,4,-1
 195 205 l 1,5,-1
 380 205 l 1,6,-1
 380 0 l 1,7,-1
 195 0 l 1,4,-1
EndSplineSet
Validated: 1
EndChar

StartChar: semicolon
Encoding: 59 59 30
Width: 569
GlyphClass: 2
Flags: W
LayerCount: 2
Fore
SplineSet
192 857 m 1,0,-1
 192 1062 l 1,1,-1
 377 1062 l 1,2,-1
 377 857 l 1,3,-1
 192 857 l 1,0,-1
192 205 m 1,4,-1
 377 205 l 1,5,-1
 377 0 l 2,6,7
 377 -114 377 -114 340.5 -182.5 c 128,-1,8
 304 -251 304 -251 225 -286 c 1,9,-1
 177 -212 l 1,10,11
 235 -187 235 -187 263 -138.5 c 128,-1,12
 291 -90 291 -90 294 0 c 1,13,-1
 192 0 l 1,14,-1
 192 205 l 1,4,-1
EndSplineSet
Validated: 1
EndChar

StartChar: less
Encoding: 60 60 31
Width: 1196
GlyphClass: 2
Flags: W
LayerCount: 2
Fore
SplineSet
122 638 m 1,0,-1
 122 812 l 1,1,-1
 1073 1213 l 1,2,-1
 1073 1038 l 1,3,-1
 309 724 l 1,4,5
 495 647 495 647 691 565.5 c 128,-1,6
 887 484 887 484 1073 407 c 1,7,-1
 1073 232 l 1,8,-1
 122 638 l 1,0,-1
EndSplineSet
Validated: 1
EndChar

StartChar: equal
Encoding: 61 61 32
Width: 1196
GlyphClass: 2
Flags: W
LayerCount: 2
Fore
SplineSet
1072 862 m 1,0,-1
 124 862 l 1,1,-1
 124 1030 l 1,2,-1
 1072 1030 l 1,3,-1
 1072 862 l 1,0,-1
1072 417 m 1,4,-1
 124 417 l 1,5,-1
 124 585 l 1,6,-1
 1072 585 l 1,7,-1
 1072 417 l 1,4,-1
EndSplineSet
Validated: 1
EndChar

StartChar: greater
Encoding: 62 62 33
Width: 1196
GlyphClass: 2
Flags: W
LayerCount: 2
Fore
SplineSet
1073 638 m 1,0,-1
 122 232 l 1,1,-1
 122 407 l 1,2,-1
 885 724 l 1,3,4
 794 761 794 761 697.5 801 c 128,-1,5
 601 841 601 841 503.5 881 c 128,-1,6
 406 921 406 921 309.5 960.5 c 128,-1,7
 213 1000 213 1000 122 1038 c 1,8,-1
 122 1213 l 1,9,-1
 1073 812 l 1,10,-1
 1073 638 l 1,0,-1
EndSplineSet
Validated: 1
EndChar

StartChar: question
Encoding: 63 63 34
Width: 1139
GlyphClass: 2
Flags: W
LayerCount: 2
Fore
SplineSet
482 361 m 1,0,1
 481 379 481 379 481 392.5 c 128,-1,2
 481 406 481 406 481 415 c 0,3,4
 481 468 481 468 488.5 514.5 c 128,-1,5
 496 561 496 561 510 598 c 0,6,7
 521 626 521 626 539.5 657.5 c 128,-1,8
 558 689 558 689 580 715 c 0,9,10
 600 738 600 738 632 769.5 c 128,-1,11
 664 801 664 801 708 840 c 0,12,13
 806 925 806 925 832 972 c 1,14,15
 861 1021 861 1021 861 1079 c 0,16,17
 861 1181 861 1181 776 1263 c 0,18,19
 693 1343 693 1343 568 1343 c 0,20,21
 448 1343 448 1343 368.5 1271 c 128,-1,22
 289 1199 289 1199 265 1047 c 1,23,-1
 100 1067 l 1,24,25
 125 1274 125 1274 245 1382.5 c 128,-1,26
 365 1491 365 1491 565 1491 c 0,27,28
 773 1491 773 1491 901 1374 c 1,29,30
 1026 1258 1026 1258 1026 1091 c 0,31,32
 1026 994 1026 994 982 914 c 0,33,34
 936 830 936 830 808 717 c 0,35,36
 762 676 762 676 733.5 648 c 128,-1,37
 705 620 705 620 692 602 c 0,38,39
 662 560 662 560 650 517 c 0,40,41
 636 469 636 469 635 361 c 1,42,-1
 482 361 l 1,0,1
471 0 m 1,43,-1
 471 205 l 1,44,-1
 656 205 l 1,45,-1
 656 0 l 1,46,-1
 471 0 l 1,43,-1
EndSplineSet
Validated: 1
EndChar

StartChar: at
Encoding: 64 64 35
Width: 2079
GlyphClass: 2
Flags: W
LayerCount: 2
Fore
SplineSet
1153 163 m 1,0,1
 1087 88 1087 88 1009.5 42.5 c 128,-1,2
 932 -3 932 -3 854 -3 c 0,3,4
 811 -3 811 -3 768.5 10 c 128,-1,5
 726 23 726 23 687 49 c 128,-1,6
 648 75 648 75 614 115 c 128,-1,7
 580 155 580 155 553 209 c 0,8,9
 502 315 502 315 502 446 c 0,10,11
 502 606 502 606 582 764 c 0,12,13
 665 927 665 927 781 1004 c 0,14,15
 903 1084 903 1084 1011 1084 c 0,16,17
 1094 1084 1094 1084 1170.5 1039 c 128,-1,18
 1247 994 1247 994 1304 900 c 1,19,-1
 1323 900 l 1,20,21
 1331 938 1331 938 1340 977.5 c 128,-1,22
 1349 1017 1349 1017 1357 1055 c 1,23,-1
 1516 1055 l 1,24,-1
 1372 384 l 2,25,26
 1358 317 1358 317 1350 277 c 128,-1,27
 1342 237 1342 237 1342 229 c 0,28,29
 1342 202 1342 202 1365 182.5 c 128,-1,30
 1388 163 1388 163 1422 163 c 0,31,32
 1482 163 1482 163 1567 224 c 1,33,34
 1685 306 1685 306 1750 438 c 1,35,36
 1818 573 1818 573 1818 716 c 0,37,38
 1818 881 1818 881 1731 1028 c 0,39,40
 1647 1170 1647 1170 1472 1260 c 0,41,42
 1302 1347 1302 1347 1093 1347 c 0,43,44
 854 1347 854 1347 660 1237 c 0,45,46
 460 1124 460 1124 356 923 c 1,47,48
 249 719 249 719 249 485 c 0,49,50
 249 240 249 240 356 63 c 0,51,52
 461 -110 461 -110 669 -198 c 0,53,54
 870 -283 870 -283 1120 -283 c 0,55,56
 1387 -283 1387 -283 1563 -195 c 0,57,58
 1747 -103 1747 -103 1832 19 c 1,59,-1
 1996 19 l 1,60,61
 1943 -90 1943 -90 1823 -195 c 0,62,63
 1697 -305 1697 -305 1532 -367 c 1,64,-1
 1531 -367 l 1,65,66
 1361 -431 1361 -431 1123 -431 c 0,67,68
 903 -431 903 -431 718.5 -374 c 128,-1,69
 534 -317 534 -317 401 -202 c 0,70,71
 274 -93 274 -93 204 61 c 1,72,73
 121 250 121 250 121 469 c 0,74,75
 121 590 121 590 146.5 708 c 128,-1,76
 172 826 172 826 220 934 c 1,77,78
 281 1066 281 1066 368 1170 c 128,-1,79
 455 1274 455 1274 566 1345.5 c 128,-1,80
 677 1417 677 1417 811.5 1455 c 128,-1,81
 946 1493 946 1493 1102 1493 c 0,82,83
 1345 1493 1345 1493 1542 1391 c 1,84,85
 1734 1293 1734 1293 1850 1089 c 1,86,87
 1946 918 1946 918 1946 713 c 0,88,89
 1946 570 1946 570 1893.5 438.5 c 128,-1,90
 1841 307 1841 307 1745 198 c 1,91,92
 1656 101 1656 101 1556.5 48.5 c 128,-1,93
 1457 -4 1457 -4 1354 -4 c 0,94,95
 1291 -4 1291 -4 1250.5 17.5 c 128,-1,96
 1210 39 1210 39 1189 77 c 0,97,98
 1177 99 1177 99 1171 163 c 1,99,-1
 1153 163 l 1,0,1
667 434 m 0,100,101
 667 300 667 300 734 221 c 0,102,103
 798 145 798 145 891 145 c 0,104,105
 951 145 951 145 1014.5 178.5 c 128,-1,106
 1078 212 1078 212 1135 278 c 0,107,108
 1163 310 1163 310 1187.5 354 c 128,-1,109
 1212 398 1212 398 1229 445 c 0,110,111
 1247 496 1247 496 1256.5 548.5 c 128,-1,112
 1266 601 1266 601 1266 649 c 0,113,114
 1266 781 1266 781 1195 860 c 0,115,116
 1127 935 1127 935 1024 935 c 0,117,118
 957 935 957 935 898 901.5 c 128,-1,119
 839 868 839 868 786 798 c 1,120,121
 759 760 759 760 736.5 716 c 128,-1,122
 714 672 714 672 699 623 c 0,123,124
 667 518 667 518 667 434 c 0,100,101
EndSplineSet
Validated: 1
EndChar

StartChar: braceleft
Encoding: 123 123 36
Width: 684
GlyphClass: 2
Flags: W
LayerCount: 2
Fore
SplineSet
67 612 m 1,0,1
 145 614 145 614 193 653.5 c 128,-1,2
 241 693 241 693 257 762 c 0,3,4
 265 797 265 797 269 855.5 c 128,-1,5
 273 914 273 914 274 998 c 0,6,7
 276 1166 276 1166 280 1218 c 1,8,9
 288 1282 288 1282 302.5 1326.5 c 128,-1,10
 317 1371 317 1371 338.5 1401 c 128,-1,11
 360 1431 360 1431 390 1450 c 128,-1,12
 420 1469 420 1469 459 1481 c 1,13,14
 495 1491 495 1491 580 1491 c 2,15,-1
 626 1491 l 1,16,-1
 626 1334 l 1,17,-1
 605 1334 l 2,18,19
 495 1334 495 1334 460 1296 c 0,20,21
 423 1256 423 1256 423 1129 c 0,22,23
 423 997 423 997 420 915 c 128,-1,24
 417 833 417 833 412 798 c 0,25,26
 394 688 394 688 352 633 c 0,27,28
 330 603 330 603 296 577 c 128,-1,29
 262 551 262 551 220 530 c 1,30,31
 270 508 270 508 309.5 472.5 c 128,-1,32
 349 437 349 437 374 389 c 0,33,34
 423 294 423 294 423 80 c 0,35,36
 423 -18 423 -18 424 -75.5 c 128,-1,37
 425 -133 425 -133 427 -152 c 0,38,39
 434 -216 434 -216 470 -247 c 1,40,-1
 471 -247 l 1,41,42
 504 -274 504 -274 605 -274 c 2,43,-1
 626 -274 l 1,44,-1
 626 -431 l 1,45,-1
 580 -431 l 2,46,47
 533 -431 533 -431 498.5 -427 c 128,-1,48
 464 -423 464 -423 442 -415 c 1,49,-1
 441 -415 l 1,50,51
 381 -393 381 -393 341 -342 c 128,-1,52
 301 -291 301 -291 287 -210 c 0,53,54
 281 -170 281 -170 278 -106 c 128,-1,55
 275 -42 275 -42 274 49 c 256,56,57
 273 140 273 140 269 201.5 c 128,-1,58
 265 263 265 263 257 298 c 1,59,60
 240 363 240 363 188 407 c 0,61,62
 140 447 140 447 67 449 c 1,63,-1
 67 612 l 1,0,1
EndSplineSet
Validated: 1
EndChar

StartChar: bar
Encoding: 124 124 37
Width: 532
GlyphClass: 2
Flags: W
LayerCount: 2
Fore
SplineSet
198 -431 m 1,0,-1
 198 1491 l 1,1,-1
 335 1491 l 1,2,-1
 335 -431 l 1,3,-1
 198 -431 l 1,0,-1
EndSplineSet
Validated: 1
EndChar

StartChar: braceright
Encoding: 125 125 38
Width: 684
GlyphClass: 2
Flags: W
LayerCount: 2
Fore
SplineSet
616 449 m 1,0,1
 538 447 538 447 490 407 c 128,-1,2
 442 367 442 367 426 298 c 0,3,4
 418 264 418 264 414 205.5 c 128,-1,5
 410 147 410 147 409 63 c 0,6,7
 407 -105 407 -105 403 -157 c 1,8,9
 395 -221 395 -221 380.5 -265.5 c 128,-1,10
 366 -310 366 -310 344 -340 c 128,-1,11
 322 -370 322 -370 292.5 -388.5 c 128,-1,12
 263 -407 263 -407 224 -420 c 1,13,14
 185 -431 185 -431 103 -431 c 2,15,-1
 57 -431 l 1,16,-1
 57 -274 l 1,17,-1
 78 -274 l 2,18,19
 188 -274 188 -274 223 -236 c 0,20,21
 260 -196 260 -196 260 -68 c 0,22,23
 260 181 260 181 269 249 c 0,24,25
 284 358 284 358 333 425.5 c 128,-1,26
 382 493 382 493 463 530 c 1,27,28
 411 556 411 556 370 592.5 c 128,-1,29
 329 629 329 629 306 675 c 0,30,31
 260 767 260 767 260 981 c 0,32,33
 260 1079 260 1079 258.5 1137 c 128,-1,34
 257 1195 257 1195 255 1214 c 0,35,36
 247 1279 247 1279 211 1307 c 1,37,38
 179 1334 179 1334 78 1334 c 2,39,-1
 57 1334 l 1,40,-1
 57 1491 l 1,41,-1
 103 1491 l 2,42,43
 150 1491 150 1491 184.5 1487 c 128,-1,44
 219 1483 219 1483 241 1475 c 1,45,-1
 242 1475 l 1,46,47
 302 1454 302 1454 341.5 1401 c 128,-1,48
 381 1348 381 1348 395 1270 c 0,49,50
 402 1230 402 1230 405 1165 c 128,-1,51
 408 1100 408 1100 409 1011 c 0,52,53
 411 835 411 835 426 762 c 1,54,55
 435 736 435 736 453 705 c 128,-1,56
 471 674 471 674 494 654 c 0,57,58
 543 614 543 614 616 612 c 1,59,-1
 616 449 l 1,0,1
EndSplineSet
Validated: 1
EndChar

StartChar: asciitilde
Encoding: 126 126 39
Width: 1196
GlyphClass: 2
Flags: W
LayerCount: 2
Fore
SplineSet
97 765 m 1,0,1
 200 882 200 882 365 882 c 0,2,3
 422 882 422 882 488 864 c 1,4,-1
 489 864 l 1,5,6
 551 848 551 848 675 795 c 0,7,8
 707 782 707 782 734 772 c 128,-1,9
 761 762 761 762 779 757 c 0,10,11
 813 748 813 748 852 748 c 0,12,13
 922 748 922 748 991 787 c 1,14,15
 1063 826 1063 826 1100 867 c 1,16,-1
 1100 670 l 1,17,18
 1038 611 1038 611 974.5 585 c 128,-1,19
 911 559 911 559 833 559 c 0,20,21
 804 559 804 559 776 562.5 c 128,-1,22
 748 566 748 566 720 573 c 0,23,24
 696 579 696 579 653 596 c 128,-1,25
 610 613 610 613 549 640 c 0,26,27
 489 666 489 666 439.5 679.5 c 128,-1,28
 390 693 390 693 348 693 c 0,29,30
 279 693 279 693 223 665 c 0,31,32
 193 650 193 650 161 627.5 c 128,-1,33
 129 605 129 605 97 573 c 1,34,-1
 97 765 l 1,0,1
EndSplineSet
Validated: 1
EndChar

StartChar: currency
Encoding: 164 164 40
Width: 1139
GlyphClass: 2
Flags: W
LayerCount: 2
Fore
SplineSet
81 1097 m 1,0,-1
 189 1209 l 1,1,-1
 321 1077 l 1,2,-1
 334 1077 l 1,3,4
 440 1149 440 1149 565 1149 c 0,5,6
 691 1149 691 1149 796 1077 c 1,7,-1
 809 1077 l 1,8,-1
 941 1209 l 1,9,-1
 1050 1097 l 1,10,-1
 911 961 l 1,11,-1
 910 961 l 1,12,13
 979 854 979 854 979 726 c 0,14,15
 979 596 979 596 910 490 c 1,16,-1
 911 490 l 1,17,18
 946 456 946 456 980.5 422 c 128,-1,19
 1015 388 1015 388 1050 354 c 1,20,-1
 941 242 l 1,21,-1
 809 375 l 1,22,-1
 796 375 l 1,23,24
 692 302 692 302 565 302 c 0,25,26
 440 302 440 302 334 375 c 1,27,-1
 321 375 l 1,28,29
 286 340 286 340 255 308.5 c 128,-1,30
 224 277 224 277 189 242 c 1,31,-1
 81 354 l 1,32,-1
 220 490 l 1,33,-1
 221 490 l 1,34,35
 152 596 152 596 152 726 c 0,36,37
 152 854 152 854 221 961 c 1,38,-1
 220 961 l 1,39,-1
 81 1097 l 1,0,-1
295 726 m 0,40,41
 295 621 295 621 374 542 c 0,42,43
 450 466 450 466 564 466 c 256,44,45
 678 466 678 466 754 542 c 0,46,47
 833 621 833 621 833 726 c 0,48,49
 833 830 833 830 754 909 c 0,50,51
 679 985 679 985 564 985 c 0,52,53
 450 985 450 985 374 909 c 0,54,55
 295 830 295 830 295 726 c 0,40,41
EndSplineSet
Validated: 1
EndChar

StartChar: section
Encoding: 167 167 41
Width: 1139
GlyphClass: 2
Flags: W
LayerCount: 2
Fore
SplineSet
314 -45 m 1,0,1
 340 -169 340 -169 407 -226 c 0,2,3
 469 -279 469 -279 579 -279 c 256,4,5
 689 -279 689 -279 745 -227 c 1,6,7
 806 -172 806 -172 806 -105 c 0,8,9
 806 -57 806 -57 768 -11 c 0,10,11
 739 24 739 24 653.5 85.5 c 128,-1,12
 568 147 568 147 425 234 c 1,13,14
 282 323 282 323 220 376 c 1,15,16
 165 425 165 425 127 498 c 0,17,18
 91 567 91 567 91 644 c 0,19,20
 91 744 91 744 149 818 c 0,21,22
 210 896 210 896 309 927 c 1,23,-1
 313 927 l 1,24,25
 278 960 278 960 254 990.5 c 128,-1,26
 230 1021 230 1021 215 1051 c 128,-1,27
 200 1081 200 1081 193.5 1111.5 c 128,-1,28
 187 1142 187 1142 187 1175 c 0,29,30
 187 1306 187 1306 284 1397 c 0,31,32
 384 1491 384 1491 542 1491 c 0,33,34
 725 1491 725 1491 827 1402.5 c 128,-1,35
 929 1314 929 1314 950 1143 c 1,36,-1
 783 1126 l 1,37,38
 772 1187 772 1187 753.5 1228.5 c 128,-1,39
 735 1270 735 1270 707 1295.5 c 128,-1,40
 679 1321 679 1321 642 1332 c 128,-1,41
 605 1343 605 1343 558 1343 c 0,42,43
 460 1343 460 1343 402 1293 c 1,44,45
 343 1240 343 1240 343 1184 c 0,46,47
 343 1134 343 1134 381 1088 c 0,48,49
 435 1022 435 1022 690 868 c 0,50,51
 841 776 841 776 901 727 c 1,52,53
 970 668 970 668 1002.5 604.5 c 128,-1,54
 1035 541 1035 541 1035 464 c 0,55,56
 1035 407 1035 407 1017 358 c 128,-1,57
 999 309 999 309 965 271 c 1,58,59
 942 248 942 248 903.5 223.5 c 128,-1,60
 865 199 865 199 814 178 c 1,61,-1
 812 178 l 1,62,63
 967 60 967 60 967 -103 c 0,64,65
 967 -148 967 -148 954.5 -190.5 c 128,-1,66
 942 -233 942 -233 919 -269 c 0,67,68
 893 -308 893 -308 858 -339.5 c 128,-1,69
 823 -371 823 -371 779 -389 c 1,70,71
 684 -431 684 -431 580 -431 c 0,72,73
 487 -431 487 -431 412.5 -406.5 c 128,-1,74
 338 -382 338 -382 284 -335.5 c 128,-1,75
 230 -289 230 -289 197 -222 c 128,-1,76
 164 -155 164 -155 153 -69 c 1,77,-1
 314 -45 l 1,0,1
733 244 m 1,78,79
 810 283 810 283 847.5 333 c 128,-1,80
 885 383 885 383 885 431 c 0,81,82
 885 485 885 485 831 551 c 0,83,84
 808 580 808 580 749 623 c 128,-1,85
 690 666 690 666 603 720 c 0,86,87
 538 760 538 760 486.5 794.5 c 128,-1,88
 435 829 435 829 400 858 c 1,89,-1
 389 858 l 1,90,91
 305 811 305 811 269.5 765 c 128,-1,92
 234 719 234 719 234 664 c 0,93,94
 234 604 234 604 282 544 c 1,95,96
 328 489 328 489 492 392 c 0,97,98
 624 314 624 314 722 244 c 1,99,-1
 733 244 l 1,78,79
EndSplineSet
Validated: 1
EndChar

StartChar: uni00AD
Encoding: 173 173 42
Width: 965
GlyphClass: 2
Flags: W
LayerCount: 2
Fore
SplineSet
811 434 m 1,0,-1
 155 434 l 1,1,-1
 155 549 l 1,2,-1
 811 549 l 1,3,-1
 811 434 l 1,0,-1
EndSplineSet
Validated: 1
EndChar

StartChar: degree
Encoding: 176 176 43
Width: 819
GlyphClass: 2
Flags: W
LayerCount: 2
Fore
SplineSet
734 1094 m 0,0,1
 734 945 734 945 636 850 c 1,2,3
 535 749 535 749 399 749 c 0,4,5
 264 749 264 749 163 850 c 0,6,7
 65 948 65 948 65 1094 c 256,8,9
 65 1240 65 1240 163 1338 c 0,10,11
 263 1438 263 1438 399 1438 c 0,12,13
 536 1438 536 1438 637 1338 c 1,14,15
 734 1240 734 1240 734 1094 c 0,0,1
626 1095 m 0,16,17
 626 1186 626 1186 560 1249 c 1,18,19
 498 1312 498 1312 399 1312 c 256,20,21
 300 1312 300 1312 237 1249 c 0,22,23
 173 1185 173 1185 173 1095 c 0,24,25
 173 1008 173 1008 238 940 c 1,26,27
 303 878 303 878 399 878 c 0,28,29
 497 878 497 878 559 940 c 0,30,31
 626 1007 626 1007 626 1095 c 0,16,17
EndSplineSet
Validated: 1
EndChar

StartChar: paragraph
Encoding: 182 182 44
Width: 1100
GlyphClass: 2
Flags: W
LayerCount: 2
Fore
SplineSet
415 -407 m 1,0,-1
 415 638 l 1,1,-1
 406 638 l 1,2,3
 225 648 225 648 116 759 c 0,4,5
 11 867 11 867 11 1044 c 0,6,7
 11 1240 11 1240 128 1351 c 0,8,9
 249 1466 249 1466 474 1466 c 2,10,-1
 1097 1466 l 1,11,-1
 1097 1293 l 1,12,-1
 953 1293 l 1,13,-1
 953 -407 l 1,14,-1
 803 -407 l 1,15,-1
 803 1293 l 1,16,-1
 560 1293 l 1,17,-1
 560 -407 l 1,18,-1
 415 -407 l 1,0,-1
EndSplineSet
Validated: 1
EndChar

StartChar: periodcentered
Encoding: 183 183 45
Width: 601
GlyphClass: 2
Flags: W
LayerCount: 2
Fore
SplineSet
411 1050 m 0,0,1
 411 999 411 999 380 968 c 0,2,3
 346 934 346 934 305 934 c 256,4,5
 264 934 264 934 230 968 c 0,6,7
 199 999 199 999 199 1050 c 256,8,9
 199 1101 199 1101 230 1132 c 0,10,11
 264 1166 264 1166 305 1166 c 0,12,13
 327 1166 327 1166 346.5 1157 c 128,-1,14
 366 1148 366 1148 380 1132.5 c 128,-1,15
 394 1117 394 1117 402.5 1095.5 c 128,-1,16
 411 1074 411 1074 411 1050 c 0,0,1
EndSplineSet
Validated: 1
EndChar

StartChar: multiply
Encoding: 215 215 46
Width: 1243
GlyphClass: 2
Flags: W
LayerCount: 2
Fore
SplineSet
1077 342 m 1,0,-1
 1014 279 l 1,1,-1
 629 664 l 1,2,-1
 615 664 l 1,3,-1
 230 279 l 1,4,-1
 167 342 l 1,5,-1
 559 734 l 1,6,7
 542 750 542 750 511.5 781 c 128,-1,8
 481 812 481 812 442.5 850 c 128,-1,9
 404 888 404 888 362.5 930 c 128,-1,10
 321 972 321 972 283 1010 c 128,-1,11
 245 1048 245 1048 214 1079 c 128,-1,12
 183 1110 183 1110 167 1126 c 1,13,-1
 230 1191 l 1,14,-1
 615 806 l 1,15,-1
 629 806 l 1,16,-1
 1014 1191 l 1,17,-1
 1077 1126 l 1,18,-1
 685 734 l 1,19,-1
 1077 342 l 1,0,-1
EndSplineSet
Validated: 1
EndChar

StartChar: sign.adho.cb
Encoding: 2304 2304 47
Width: 0
GlyphClass: 2
Flags: W
LayerCount: 2
Fore
SplineSet
-395 1695 m 1,0,-1
 -568 1695 l 1,1,-1
 -568 1877 l 1,2,-1
 -395 1877 l 1,3,-1
 -395 1695 l 1,0,-1
-206 1797 m 1,4,5
 -207 1842 -207 1842 -214 1876 c 128,-1,6
 -221 1910 -221 1910 -234 1936 c 0,7,8
 -297 2054 -297 2054 -481 2054 c 0,9,10
 -743 2054 -743 2054 -764 1797 c 1,11,-1
 -921 1797 l 1,12,13
 -909 1863 -909 1863 -893 1915.5 c 128,-1,14
 -877 1968 -877 1968 -854 2005 c 0,15,16
 -796 2098 -796 2098 -703 2145 c 128,-1,17
 -610 2192 -610 2192 -481 2192 c 0,18,19
 -221 2192 -221 2192 -106 2004 c 0,20,21
 -83 1966 -83 1966 -68 1913.5 c 128,-1,22
 -53 1861 -53 1861 -48 1797 c 1,23,-1
 -206 1797 l 1,4,5
EndSplineSet
Validated: 1
EndChar

StartChar: s.candrabindu
Encoding: 2305 2305 48
Width: 0
GlyphClass: 4
Flags: W
LayerCount: 2
Fore
SplineSet
-395 2010 m 1,0,-1
 -568 2010 l 1,1,-1
 -568 2192 l 1,2,-1
 -395 2192 l 1,3,-1
 -395 2010 l 1,0,-1
-48 2090 m 1,4,5
 -53 2026 -53 2026 -68 1973.5 c 128,-1,6
 -83 1921 -83 1921 -106 1883 c 0,7,8
 -221 1695 -221 1695 -481 1695 c 0,9,10
 -610 1695 -610 1695 -703 1742 c 128,-1,11
 -796 1789 -796 1789 -854 1882 c 0,12,13
 -877 1919 -877 1919 -893 1971.5 c 128,-1,14
 -909 2024 -909 2024 -921 2090 c 1,15,-1
 -764 2090 l 1,16,17
 -743 1833 -743 1833 -481 1833 c 0,18,19
 -297 1833 -297 1833 -234 1951 c 0,20,21
 -221 1977 -221 1977 -214 2011 c 128,-1,22
 -207 2045 -207 2045 -206 2090 c 1,23,-1
 -48 2090 l 1,4,5
EndSplineSet
Validated: 1
Ligature2: "'psts' Post Base Substitutions in Devanagari lookup 10 subtable" vs.chandrae s.anusvara
EndChar

StartChar: s.anusvara
Encoding: 2306 2306 49
Width: 0
GlyphClass: 4
Flags: W
AnchorPoint: "Anchor-0" -317 1498 mark 0
LayerCount: 2
Fore
SplineSet
-167 1860 m 1,0,-1
 -382 1860 l 1,1,-1
 -382 2093 l 1,2,-1
 -167 2093 l 1,3,-1
 -167 1860 l 1,0,-1
EndSplineSet
Validated: 1
EndChar

StartChar: s.visarga
Encoding: 2307 2307 50
Width: 619
GlyphClass: 2
Flags: W
LayerCount: 2
Fore
SplineSet
448 834 m 1,0,-1
 235 834 l 1,1,-1
 235 1045 l 1,2,-1
 448 1045 l 1,3,-1
 448 834 l 1,0,-1
448 265 m 1,4,-1
 235 265 l 1,5,-1
 235 476 l 1,6,-1
 448 476 l 1,7,-1
 448 265 l 1,4,-1
EndSplineSet
Validated: 1
EndChar

StartChar: l.short.a
Encoding: 2308 2308 51
Width: 1685
GlyphClass: 2
Flags: W
LayerCount: 2
Fore
SplineSet
1356 1502 m 1,0,-1
 1343 1540 l 1,1,-1
 1342 1540 l 1,2,3
 1341 1545 1341 1545 1340 1548 c 128,-1,4
 1339 1551 1339 1551 1337 1555 c 0,5,6
 1335 1560 1335 1560 1333.5 1564 c 128,-1,7
 1332 1568 1332 1568 1331 1578 c 1,8,-1
 1330 1578 l 1,9,10
 1290 1655 1290 1655 1207 1683 c 0,11,12
 1177 1693 1177 1693 1132.5 1701 c 128,-1,13
 1088 1709 1088 1709 1034 1715 c 1,14,15
 985 1719 985 1719 938.5 1732 c 128,-1,16
 892 1745 892 1745 849 1765 c 0,17,18
 720 1827 720 1827 720 1987 c 0,19,20
 720 2044 720 2044 736 2101 c 1,21,-1
 802 2093 l 1,22,23
 802 2091 802 2091 802 2088 c 128,-1,24
 802 2085 802 2085 802 2084 c 0,25,26
 801 2076 801 2076 801 2070.5 c 128,-1,27
 801 2065 801 2065 801 2058 c 0,28,29
 801 1869 801 1869 928 1842 c 1,30,-1
 929 1842 l 1,31,-1
 1153 1813 l 1,32,33
 1197 1806 1197 1806 1243 1786.5 c 128,-1,34
 1289 1767 1289 1767 1336 1734 c 1,35,-1
 1337 1734 l 1,36,37
 1393 1698 1393 1698 1427 1597 c 0,38,39
 1450 1527 1450 1527 1450 1502 c 1,40,-1
 1356 1502 l 1,0,-1
460 774 m 1,41,-1
 461 774 l 1,42,-1
 460 774 l 1,41,-1
1722 1385 m 1,43,-1
 1475 1385 l 1,44,-1
 1475 0 l 1,45,-1
 1321 0 l 1,46,-1
 1321 661 l 1,47,-1
 1307 661 l 1,48,49
 1302 659 1302 659 1292 656.5 c 128,-1,50
 1282 654 1282 654 1268 652 c 0,51,52
 1241 647 1241 647 1217.5 644.5 c 128,-1,53
 1194 642 1194 642 1177 642 c 0,54,55
 1098 642 1098 642 1020 678 c 1,56,-1
 1007 678 l 1,57,58
 1024 640 1024 640 1033 596 c 128,-1,59
 1042 552 1042 552 1042 506 c 0,60,61
 1042 320 1042 320 926 222 c 1,62,-1
 925 222 l 1,63,64
 823 133 823 133 663 135 c 0,65,66
 610 135 610 135 553 155 c 128,-1,67
 496 175 496 175 438 211.5 c 128,-1,68
 380 248 380 248 321.5 300.5 c 128,-1,69
 263 353 263 353 206 419 c 1,70,71
 158 477 158 477 109 549 c 128,-1,72
 60 621 60 621 15 701 c 1,73,-1
 135 773 l 1,74,75
 406 250 406 250 665 250 c 0,76,77
 765 250 765 250 832 329 c 1,78,79
 897 403 897 403 897 508 c 0,80,81
 897 647 897 647 807 727 c 1,82,83
 728 800 728 800 598 800 c 0,84,85
 561 800 561 800 510 787 c 0,86,87
 498 784 498 784 488.5 781.5 c 128,-1,88
 479 779 479 779 472 777 c 0,89,90
 467 775 467 775 464 775 c 128,-1,91
 461 775 461 775 460 774 c 1,92,93
 452 788 452 788 446 801.5 c 128,-1,94
 440 815 440 815 433 829 c 0,95,96
 428 840 428 840 419.5 857 c 128,-1,97
 411 874 411 874 406 885 c 1,98,99
 440 885 440 885 574 915 c 0,100,101
 619 925 619 925 655.5 947.5 c 128,-1,102
 692 970 692 970 718 1001 c 1,103,104
 744 1036 744 1036 757.5 1076 c 128,-1,105
 771 1116 771 1116 771 1161 c 0,106,107
 771 1385 771 1385 560 1385 c 0,108,109
 509 1385 509 1385 451 1358.5 c 128,-1,110
 393 1332 393 1332 335 1284 c 1,111,-1
 334 1284 l 1,112,113
 235 1199 235 1199 235 1180 c 1,114,-1
 114 1267 l 1,115,116
 114 1272 114 1272 130 1289 c 128,-1,117
 146 1306 146 1306 174 1330 c 0,118,119
 211 1362 211 1362 253 1392 c 128,-1,120
 295 1422 295 1422 335 1442 c 0,121,122
 456 1501 456 1501 569 1501 c 0,123,124
 723 1501 723 1501 820 1407 c 1,125,126
 912 1315 912 1315 912 1177 c 0,127,128
 912 1076 912 1076 867.5 1003 c 128,-1,129
 823 930 823 930 740 885 c 1,130,-1
 744 885 l 1,131,132
 757 883 757 883 788 872.5 c 128,-1,133
 819 862 819 862 861 845 c 0,134,135
 898 829 898 829 955 785 c 1,136,-1
 958 785 l 1,137,138
 1068 753 1068 753 1126 753 c 0,139,140
 1147 753 1147 753 1182.5 760 c 128,-1,141
 1218 767 1218 767 1251 776 c 1,142,143
 1287 787 1287 787 1306 793.5 c 128,-1,144
 1325 800 1325 800 1321 800 c 1,145,-1
 1321 1385 l 1,146,-1
 1048 1385 l 1,147,-1
 1048 1501 l 1,148,-1
 1722 1501 l 1,149,-1
 1722 1385 l 1,43,-1
EndSplineSet
Validated: 37
EndChar

StartChar: l.a
Encoding: 2309 2309 52
Width: 1685
GlyphClass: 2
Flags: W
LayerCount: 2
Fore
SplineSet
460 774 m 1,0,-1
 461 774 l 1,1,-1
 460 774 l 1,0,-1
1722 1385 m 1,2,-1
 1475 1385 l 1,3,-1
 1475 0 l 1,4,-1
 1321 0 l 1,5,-1
 1321 661 l 1,6,-1
 1307 661 l 1,7,8
 1302 659 1302 659 1292 656.5 c 128,-1,9
 1282 654 1282 654 1268 652 c 0,10,11
 1241 647 1241 647 1217.5 644.5 c 128,-1,12
 1194 642 1194 642 1177 642 c 0,13,14
 1098 642 1098 642 1020 678 c 1,15,-1
 1007 678 l 1,16,17
 1024 640 1024 640 1033 596 c 128,-1,18
 1042 552 1042 552 1042 506 c 0,19,20
 1042 320 1042 320 926 222 c 1,21,-1
 925 222 l 1,22,23
 823 133 823 133 663 135 c 0,24,25
 610 135 610 135 553 155 c 128,-1,26
 496 175 496 175 438 211.5 c 128,-1,27
 380 248 380 248 321.5 300.5 c 128,-1,28
 263 353 263 353 206 419 c 1,29,30
 158 477 158 477 109 549 c 128,-1,31
 60 621 60 621 15 701 c 1,32,-1
 135 773 l 1,33,34
 406 250 406 250 665 250 c 0,35,36
 765 250 765 250 832 329 c 1,37,38
 897 403 897 403 897 508 c 0,39,40
 897 647 897 647 807 727 c 1,41,42
 728 800 728 800 598 800 c 0,43,44
 561 800 561 800 510 787 c 0,45,46
 498 784 498 784 488.5 781.5 c 128,-1,47
 479 779 479 779 472 777 c 0,48,49
 467 775 467 775 464 775 c 128,-1,50
 461 775 461 775 460 774 c 1,51,52
 452 788 452 788 446 801.5 c 128,-1,53
 440 815 440 815 433 829 c 0,54,55
 428 840 428 840 419.5 857 c 128,-1,56
 411 874 411 874 406 885 c 1,57,58
 440 885 440 885 574 915 c 0,59,60
 619 925 619 925 655.5 947.5 c 128,-1,61
 692 970 692 970 718 1001 c 1,62,63
 744 1036 744 1036 757.5 1076 c 128,-1,64
 771 1116 771 1116 771 1161 c 0,65,66
 771 1385 771 1385 560 1385 c 0,67,68
 509 1385 509 1385 451 1358.5 c 128,-1,69
 393 1332 393 1332 335 1284 c 1,70,-1
 334 1284 l 1,71,72
 235 1199 235 1199 235 1180 c 1,73,-1
 114 1267 l 1,74,75
 114 1272 114 1272 130 1289 c 128,-1,76
 146 1306 146 1306 174 1330 c 0,77,78
 211 1362 211 1362 253 1392 c 128,-1,79
 295 1422 295 1422 335 1442 c 0,80,81
 456 1501 456 1501 569 1501 c 0,82,83
 723 1501 723 1501 820 1407 c 1,84,85
 912 1315 912 1315 912 1177 c 0,86,87
 912 1076 912 1076 867.5 1003 c 128,-1,88
 823 930 823 930 740 885 c 1,89,-1
 744 885 l 1,90,91
 757 883 757 883 788 872.5 c 128,-1,92
 819 862 819 862 861 845 c 0,93,94
 898 829 898 829 955 785 c 1,95,-1
 958 785 l 1,96,97
 1068 753 1068 753 1126 753 c 0,98,99
 1147 753 1147 753 1182.5 760 c 128,-1,100
 1218 767 1218 767 1251 776 c 1,101,102
 1287 787 1287 787 1306 793.5 c 128,-1,103
 1325 800 1325 800 1321 800 c 1,104,-1
 1321 1385 l 1,105,-1
 1048 1385 l 1,106,-1
 1048 1501 l 1,107,-1
 1722 1501 l 1,108,-1
 1722 1385 l 1,2,-1
EndSplineSet
Validated: 37
EndChar

StartChar: l.aa
Encoding: 2310 2310 53
Width: 2283
GlyphClass: 2
Flags: W
LayerCount: 2
Fore
SplineSet
460 774 m 1,0,-1
 461 774 l 1,1,-1
 460 774 l 1,0,-1
2309 1385 m 1,2,-1
 2065 1385 l 1,3,-1
 2065 0 l 1,4,-1
 1911 0 l 1,5,-1
 1911 1385 l 1,6,-1
 1475 1385 l 1,7,-1
 1475 0 l 1,8,-1
 1321 0 l 1,9,-1
 1321 661 l 1,10,-1
 1307 661 l 1,11,12
 1302 659 1302 659 1292 656.5 c 128,-1,13
 1282 654 1282 654 1268 652 c 0,14,15
 1241 647 1241 647 1217.5 644.5 c 128,-1,16
 1194 642 1194 642 1177 642 c 0,17,18
 1098 642 1098 642 1020 678 c 1,19,-1
 1007 678 l 1,20,21
 1024 640 1024 640 1033 596 c 128,-1,22
 1042 552 1042 552 1042 506 c 0,23,24
 1042 320 1042 320 926 222 c 1,25,-1
 925 222 l 1,26,27
 823 133 823 133 663 135 c 0,28,29
 610 135 610 135 553 155 c 128,-1,30
 496 175 496 175 438 211.5 c 128,-1,31
 380 248 380 248 321.5 300.5 c 128,-1,32
 263 353 263 353 206 419 c 1,33,34
 158 477 158 477 109 549 c 128,-1,35
 60 621 60 621 15 701 c 1,36,-1
 135 773 l 1,37,38
 406 250 406 250 665 250 c 0,39,40
 765 250 765 250 832 329 c 1,41,42
 897 403 897 403 897 508 c 0,43,44
 897 647 897 647 807 727 c 1,45,46
 728 800 728 800 598 800 c 0,47,48
 561 800 561 800 510 787 c 0,49,50
 498 784 498 784 488.5 781.5 c 128,-1,51
 479 779 479 779 472 777 c 0,52,53
 467 775 467 775 464 775 c 128,-1,54
 461 775 461 775 460 774 c 1,55,56
 452 788 452 788 446 801.5 c 128,-1,57
 440 815 440 815 433 829 c 0,58,59
 428 840 428 840 419.5 857 c 128,-1,60
 411 874 411 874 406 885 c 1,61,62
 440 885 440 885 574 915 c 0,63,64
 619 925 619 925 655.5 947.5 c 128,-1,65
 692 970 692 970 718 1001 c 1,66,67
 744 1036 744 1036 757.5 1076 c 128,-1,68
 771 1116 771 1116 771 1161 c 0,69,70
 771 1385 771 1385 560 1385 c 0,71,72
 509 1385 509 1385 451 1358.5 c 128,-1,73
 393 1332 393 1332 335 1284 c 1,74,-1
 334 1284 l 1,75,76
 235 1199 235 1199 235 1180 c 1,77,-1
 114 1267 l 1,78,79
 114 1272 114 1272 130 1289 c 128,-1,80
 146 1306 146 1306 174 1330 c 0,81,82
 211 1362 211 1362 253 1392 c 128,-1,83
 295 1422 295 1422 335 1442 c 0,84,85
 456 1501 456 1501 569 1501 c 0,86,87
 723 1501 723 1501 820 1407 c 1,88,89
 912 1315 912 1315 912 1177 c 0,90,91
 912 1076 912 1076 867.5 1003 c 128,-1,92
 823 930 823 930 740 885 c 1,93,-1
 744 885 l 1,94,95
 757 883 757 883 788 872.5 c 128,-1,96
 819 862 819 862 861 845 c 0,97,98
 898 829 898 829 955 785 c 1,99,-1
 958 785 l 1,100,101
 1068 753 1068 753 1126 753 c 0,102,103
 1147 753 1147 753 1182.5 760 c 128,-1,104
 1218 767 1218 767 1251 776 c 1,105,106
 1287 787 1287 787 1306 793.5 c 128,-1,107
 1325 800 1325 800 1321 800 c 1,108,-1
 1321 1385 l 1,109,-1
 1048 1385 l 1,110,-1
 1048 1501 l 1,111,-1
 2309 1501 l 1,112,-1
 2309 1385 l 1,2,-1
EndSplineSet
Validated: 37
EndChar

StartChar: l.i
Encoding: 2311 2311 54
Width: 1285
GlyphClass: 2
Flags: W
LayerCount: 2
Fore
SplineSet
1321 1385 m 1,0,-1
 987 1385 l 1,1,-1
 987 1003 l 1,2,-1
 376 1003 l 2,3,4
 358 1003 358 1003 358 975 c 0,5,6
 358 924 358 924 445 810 c 1,7,8
 553 665 553 665 617 665 c 0,9,10
 693 665 693 665 798 706 c 0,11,12
 904 747 904 747 960 747 c 0,13,14
 1031 747 1031 747 1078 679 c 1,15,16
 1119 617 1119 617 1119 535 c 0,17,18
 1119 412 1119 412 1067.5 310.5 c 128,-1,19
 1016 209 1016 209 930 142 c 1,20,21
 873 103 873 103 823 80 c 128,-1,22
 773 57 773 57 731 55 c 1,23,-1
 724 55 l 1,24,25
 726 53 726 53 727.5 51 c 128,-1,26
 729 49 729 49 732 46 c 0,27,28
 740 37 740 37 754.5 23 c 128,-1,29
 769 9 769 9 786 -8 c 0,30,31
 791 -13 791 -13 797 -18 c 128,-1,32
 803 -23 803 -23 808 -28 c 0,33,34
 832 -50 832 -50 853.5 -68.5 c 128,-1,35
 875 -87 875 -87 900 -105 c 1,36,37
 1045 -217 1045 -217 1101 -235 c 1,38,-1
 1017 -355 l 1,39,40
 956 -316 956 -316 770 -166 c 1,41,42
 704 -109 704 -109 651 -54.5 c 128,-1,43
 598 0 598 0 560 45 c 1,44,-1
 552 45 l 2,45,46
 545 45 545 45 541 44 c 0,47,48
 533 42 533 42 529 42 c 2,49,-1
 528 42 l 1,50,51
 496 39 496 39 476 39 c 0,52,53
 376 39 376 39 287 92 c 0,54,55
 181 156 181 156 181 259 c 0,56,57
 181 314 181 314 220 356 c 0,58,59
 259 397 259 397 316 397 c 0,60,61
 422 397 422 397 530 285 c 0,62,63
 616 195 616 195 617 170 c 1,64,-1
 628 170 l 1,65,66
 675 175 675 175 715.5 184 c 128,-1,67
 756 193 756 193 791 210 c 0,68,69
 965 291 965 291 966 490 c 0,70,71
 967 619 967 619 915 619 c 0,72,73
 907 619 907 619 871 608 c 128,-1,74
 835 597 835 597 778 577 c 0,75,76
 721 558 721 558 670 546.5 c 128,-1,77
 619 535 619 535 584 535 c 0,78,79
 470 535 470 535 329 721 c 1,80,81
 195 895 195 895 195 996 c 0,82,83
 195 1022 195 1022 206 1044.5 c 128,-1,84
 217 1067 217 1067 236 1084 c 0,85,86
 256 1101 256 1101 280 1110 c 128,-1,87
 304 1119 304 1119 331 1119 c 2,88,-1
 834 1119 l 1,89,-1
 834 1385 l 1,90,-1
 0 1385 l 1,91,-1
 0 1501 l 1,92,-1
 1321 1501 l 1,93,-1
 1321 1385 l 1,0,-1
EndSplineSet
Validated: 33
EndChar

StartChar: l.ii
Encoding: 2312 2312 55
Width: 1285
GlyphClass: 2
Flags: W
LayerCount: 2
Fore
SplineSet
1321 1385 m 1,0,-1
 987 1385 l 1,1,-1
 987 1003 l 1,2,-1
 376 1003 l 2,3,4
 358 1003 358 1003 358 975 c 0,5,6
 358 924 358 924 445 810 c 1,7,8
 553 665 553 665 617 665 c 0,9,10
 693 665 693 665 798 706 c 0,11,12
 904 747 904 747 960 747 c 0,13,14
 1031 747 1031 747 1078 679 c 1,15,16
 1119 617 1119 617 1119 535 c 0,17,18
 1119 412 1119 412 1067.5 310.5 c 128,-1,19
 1016 209 1016 209 930 142 c 1,20,21
 873 103 873 103 823 80 c 128,-1,22
 773 57 773 57 731 55 c 1,23,-1
 724 55 l 1,24,25
 726 53 726 53 727.5 51 c 128,-1,26
 729 49 729 49 732 46 c 0,27,28
 740 37 740 37 754.5 23 c 128,-1,29
 769 9 769 9 786 -8 c 0,30,31
 791 -13 791 -13 797 -18 c 128,-1,32
 803 -23 803 -23 808 -28 c 0,33,34
 832 -50 832 -50 853.5 -68.5 c 128,-1,35
 875 -87 875 -87 900 -105 c 1,36,37
 1045 -217 1045 -217 1101 -235 c 1,38,-1
 1017 -355 l 1,39,40
 956 -316 956 -316 770 -166 c 1,41,42
 704 -109 704 -109 651 -54.5 c 128,-1,43
 598 0 598 0 560 45 c 1,44,-1
 552 45 l 2,45,46
 545 45 545 45 541 44 c 0,47,48
 533 42 533 42 529 42 c 2,49,-1
 528 42 l 1,50,51
 496 39 496 39 476 39 c 0,52,53
 376 39 376 39 287 92 c 0,54,55
 181 156 181 156 181 259 c 0,56,57
 181 314 181 314 220 356 c 0,58,59
 259 397 259 397 316 397 c 0,60,61
 422 397 422 397 530 285 c 0,62,63
 616 195 616 195 617 170 c 1,64,-1
 628 170 l 1,65,66
 675 175 675 175 715.5 184 c 128,-1,67
 756 193 756 193 791 210 c 0,68,69
 965 291 965 291 966 490 c 0,70,71
 967 619 967 619 915 619 c 0,72,73
 907 619 907 619 871 608 c 128,-1,74
 835 597 835 597 778 577 c 0,75,76
 721 558 721 558 670 546.5 c 128,-1,77
 619 535 619 535 584 535 c 0,78,79
 470 535 470 535 329 721 c 1,80,81
 195 895 195 895 195 996 c 0,82,83
 195 1022 195 1022 206 1044.5 c 128,-1,84
 217 1067 217 1067 236 1084 c 0,85,86
 256 1101 256 1101 280 1110 c 128,-1,87
 304 1119 304 1119 331 1119 c 2,88,-1
 834 1119 l 1,89,-1
 834 1385 l 1,90,-1
 0 1385 l 1,91,-1
 0 1501 l 1,92,-1
 840 1501 l 1,93,94
 809 1536 809 1536 776 1581.5 c 128,-1,95
 743 1627 743 1627 716 1675 c 0,96,97
 674 1750 674 1750 651 1818.5 c 128,-1,98
 628 1887 628 1887 628 1945 c 0,99,100
 628 2212 628 2212 944 2212 c 0,101,102
 1044 2212 1044 2212 1116 2176 c 1,103,-1
 1116 2061 l 1,104,105
 1057 2092 1057 2092 959 2092 c 0,106,107
 873 2092 873 2092 824 2043 c 0,108,109
 770 1990 770 1990 770 1893 c 0,110,111
 770 1802 770 1802 819.5 1701 c 128,-1,112
 869 1600 869 1600 957 1501 c 1,113,-1
 1321 1501 l 1,114,-1
 1321 1385 l 1,0,-1
EndSplineSet
Validated: 33
EndChar

StartChar: l.u
Encoding: 2313 2313 56
Width: 1571
GlyphClass: 2
Flags: W
LayerCount: 2
Fore
SplineSet
1608 1385 m 1,0,-1
 1195 1385 l 1,1,2
 1254 1316 1254 1316 1285 1245 c 128,-1,3
 1316 1174 1316 1174 1316 1105 c 0,4,5
 1316 937 1316 937 1160 840 c 1,6,-1
 1161 840 l 1,7,8
 1406 736 1406 736 1406 445 c 0,9,10
 1406 362 1406 362 1374 291.5 c 128,-1,11
 1342 221 1342 221 1285 166 c 1,12,13
 1225 112 1225 112 1148.5 83.5 c 128,-1,14
 1072 55 1072 55 981 55 c 0,15,16
 757 55 757 55 545 297 c 0,17,18
 470 383 470 383 399 497.5 c 128,-1,19
 328 612 328 612 265 749 c 0,20,21
 242 797 242 797 223.5 840 c 128,-1,22
 205 883 205 883 191.5 916 c 128,-1,23
 178 949 178 949 171.5 970 c 128,-1,24
 165 991 165 991 167 996 c 1,25,-1
 295 1074 l 1,26,27
 291 1066 291 1066 314 1006.5 c 128,-1,28
 337 947 337 947 384 838 c 1,29,30
 412 776 412 776 441.5 715.5 c 128,-1,31
 471 655 471 655 502 599.5 c 128,-1,32
 533 544 533 544 564 494.5 c 128,-1,33
 595 445 595 445 626 406 c 1,34,35
 801 174 801 174 975 174 c 0,36,37
 1246 174 1246 174 1246 463 c 0,38,39
 1246 595 1246 595 1170 691 c 0,40,41
 1087 795 1087 795 966 795 c 2,42,-1
 701 795 l 1,43,-1
 647 915 l 1,44,-1
 960 915 l 2,45,46
 1171 915 1171 915 1171 1116 c 0,47,48
 1171 1201 1171 1201 1096 1300 c 1,49,50
 1033 1385 1033 1385 1017 1385 c 2,51,-1
 0 1385 l 1,52,-1
 0 1501 l 1,53,-1
 1608 1501 l 1,54,-1
 1608 1385 l 1,0,-1
EndSplineSet
Validated: 33
EndChar

StartChar: l.uu
Encoding: 2314 2314 57
Width: 1970
GlyphClass: 2
Flags: W
LayerCount: 2
Fore
SplineSet
297 1032 m 2,0,1
 296 1032 296 1032 296 1029 c 1,2,-1
 301 1032 l 1,3,-1
 297 1032 l 2,0,1
1995 1385 m 1,4,-1
 1063 1385 l 1,5,6
 1120 1316 1120 1316 1152.5 1244.5 c 128,-1,7
 1185 1173 1185 1173 1185 1105 c 0,8,9
 1185 1017 1185 1017 1139.5 947.5 c 128,-1,10
 1094 878 1094 878 1017 831 c 1,11,12
 1035 821 1035 821 1056 807 c 128,-1,13
 1077 793 1077 793 1098 776 c 1,14,15
 1113 762 1113 762 1132.5 743.5 c 128,-1,16
 1152 725 1152 725 1166 709 c 1,17,-1
 1181 709 l 1,18,19
 1210 744 1210 744 1274 798 c 0,20,21
 1332 846 1332 846 1392.5 871.5 c 128,-1,22
 1453 897 1453 897 1511 897 c 0,23,24
 1644 897 1644 897 1739 798 c 0,25,26
 1833 701 1833 701 1833 566 c 0,27,28
 1833 461 1833 461 1768 320 c 0,29,30
 1744 269 1744 269 1713.5 217.5 c 128,-1,31
 1683 166 1683 166 1646 115 c 0,32,33
 1620 79 1620 79 1600 54.5 c 128,-1,34
 1580 30 1580 30 1577 30 c 1,35,-1
 1445 105 l 1,36,37
 1692 373 1692 373 1692 569 c 0,38,39
 1692 609 1692 609 1681.5 644.5 c 128,-1,40
 1671 680 1671 680 1654 708 c 1,41,42
 1629 740 1629 740 1591 759.5 c 128,-1,43
 1553 779 1553 779 1505 779 c 0,44,45
 1460 779 1460 779 1410.5 751 c 128,-1,46
 1361 723 1361 723 1316 674 c 0,47,48
 1282 636 1282 636 1262 608 c 128,-1,49
 1242 580 1242 580 1240 566 c 1,50,51
 1242 549 1242 549 1242.5 532 c 128,-1,52
 1243 515 1243 515 1243 501 c 0,53,54
 1243 422 1243 422 1225.5 351 c 128,-1,55
 1208 280 1208 280 1179 226 c 1,56,57
 1129 145 1129 145 1045.5 100 c 128,-1,58
 962 55 962 55 848 55 c 0,59,60
 619 55 619 55 443 282 c 0,61,62
 378 367 378 367 326 473.5 c 128,-1,63
 274 580 274 580 231 708 c 1,64,65
 198 811 198 811 183 871 c 128,-1,66
 168 931 168 931 174 942 c 1,67,-1
 296 1029 l 1,68,69
 297 1017 297 1017 311.5 959 c 128,-1,70
 326 901 326 901 351 810 c 1,71,72
 386 689 386 689 430 584 c 128,-1,73
 474 479 474 479 525 401 c 0,74,75
 667 181 667 181 845 181 c 0,76,77
 1090 181 1090 181 1090 451 c 0,78,79
 1090 572 1090 572 1035 664 c 1,80,-1
 1034 664 l 1,81,82
 971 764 971 764 869 764 c 2,83,-1
 647 764 l 1,84,-1
 590 885 l 1,85,-1
 855 885 l 2,86,87
 872 885 872 885 896.5 897 c 128,-1,88
 921 909 921 909 947 929 c 0,89,90
 1035 999 1035 999 1035 1116 c 0,91,92
 1035 1158 1035 1158 1015.5 1205 c 128,-1,93
 996 1252 996 1252 963 1300 c 1,94,95
 937 1335 937 1335 916 1360 c 128,-1,96
 895 1385 895 1385 885 1385 c 2,97,-1
 0 1385 l 1,98,-1
 0 1501 l 1,99,-1
 1995 1501 l 1,100,-1
 1995 1385 l 1,4,-1
EndSplineSet
Validated: 37
EndChar

StartChar: l.vr
Encoding: 2315 2315 58
Width: 2161
GlyphClass: 2
Flags: W
LayerCount: 2
Fore
SplineSet
2194 1385 m 1,0,-1
 1252 1385 l 1,1,-1
 1252 781 l 1,2,-1
 1266 781 l 1,3,4
 1350 821 1350 821 1434.5 861.5 c 128,-1,5
 1519 902 1519 902 1601 942 c 1,6,7
 1582 970 1582 970 1582 1010 c 0,8,9
 1582 1043 1582 1043 1595 1075 c 128,-1,10
 1608 1107 1608 1107 1631 1136 c 1,11,12
 1682 1195 1682 1195 1746 1195 c 0,13,14
 1896 1195 1896 1195 1896 1011 c 0,15,16
 1896 986 1896 986 1880 961 c 128,-1,17
 1864 936 1864 936 1835 911 c 0,18,19
 1787 870 1787 870 1768 869 c 1,20,-1
 1767 869 l 1,21,22
 1787 834 1787 834 1806 799.5 c 128,-1,23
 1825 765 1825 765 1845 730 c 256,24,25
 1865 695 1865 695 1884.5 660 c 128,-1,26
 1904 625 1904 625 1924 590 c 1,27,28
 1616 528 1616 528 1616 346 c 0,29,30
 1616 111 1616 111 1812 111 c 0,31,32
 1913 111 1913 111 1975 176 c 0,33,34
 2016 220 2016 220 2016 244 c 1,35,-1
 2122 121 l 1,36,37
 2107 92 2107 92 2053 55 c 1,38,39
 1959 -6 1959 -6 1814 -6 c 0,40,41
 1650 -6 1650 -6 1551 100 c 0,42,43
 1459 198 1459 198 1459 350 c 0,44,45
 1459 465 1459 465 1542 557 c 1,46,47
 1623 644 1623 644 1737 647 c 1,48,-1
 1746 647 l 1,49,50
 1734 670 1734 670 1722.5 694 c 128,-1,51
 1711 718 1711 718 1700 741 c 256,52,53
 1689 764 1689 764 1677.5 787.5 c 128,-1,54
 1666 811 1666 811 1655 835 c 1,55,-1
 1642 835 l 1,56,57
 1570 800 1570 800 1498.5 766 c 128,-1,58
 1427 732 1427 732 1355 697 c 0,59,60
 1329 685 1329 685 1303.5 672.5 c 128,-1,61
 1278 660 1278 660 1252 647 c 1,62,-1
 1252 0 l 1,63,-1
 1101 0 l 1,64,-1
 1101 570 l 1,65,-1
 1085 570 l 1,66,67
 1011 516 1011 516 934 459.5 c 128,-1,68
 857 403 857 403 779.5 345.5 c 128,-1,69
 702 288 702 288 625.5 231.5 c 128,-1,70
 549 175 549 175 476 121 c 1,71,-1
 382 250 l 1,72,-1
 1026 671 l 1,73,74
 1026 689 1026 689 879 839 c 1,75,76
 721 1003 721 1003 663 1003 c 0,77,78
 600 1003 600 1003 392 904 c 0,79,80
 195 811 195 811 195 803 c 1,81,-1
 101 920 l 1,82,83
 105 928 105 928 167 956.5 c 128,-1,84
 229 985 229 985 350 1037 c 0,85,86
 609 1147 609 1147 680 1147 c 0,87,88
 698 1147 698 1147 724 1134 c 128,-1,89
 750 1121 750 1121 782.5 1096.5 c 128,-1,90
 815 1072 815 1072 853 1037.5 c 128,-1,91
 891 1003 891 1003 933 961 c 0,92,93
 982 911 982 911 1023 866 c 128,-1,94
 1064 821 1064 821 1083 796 c 1,95,-1
 1101 796 l 1,96,-1
 1101 1385 l 1,97,-1
 0 1385 l 1,98,-1
 0 1501 l 1,99,-1
 2194 1501 l 1,100,-1
 2194 1385 l 1,0,-1
EndSplineSet
Validated: 1
EndChar

StartChar: l.vl
Encoding: 2316 2316 59
Width: 1868
GlyphClass: 2
Flags: W
LayerCount: 2
Fore
SplineSet
1883 1385 m 1,0,-1
 1383 1385 l 1,1,-1
 1383 1023 l 1,2,3
 1486 978 1486 978 1543 872 c 1,4,5
 1600 770 1600 770 1600 635 c 0,6,7
 1600 476 1600 476 1488 346 c 0,8,9
 1459 313 1459 313 1405.5 268.5 c 128,-1,10
 1352 224 1352 224 1279 170 c 0,11,12
 1167 88 1167 88 1167 42 c 0,13,14
 1167 -39 1167 -39 1232 -85 c 1,15,16
 1296 -133 1296 -133 1396 -133 c 0,17,18
 1439 -133 1439 -133 1486.5 -115.5 c 128,-1,19
 1534 -98 1534 -98 1580 -67 c 1,20,21
 1597 -54 1597 -54 1616 -38 c 128,-1,22
 1635 -22 1635 -22 1653 -7 c 1,23,-1
 1654 -7 l 1,24,25
 1660 -2 1660 -2 1661 -1.5 c 128,-1,26
 1662 -1 1662 -1 1667 4 c 1,27,-1
 1741 -109 l 1,28,29
 1716 -129 1716 -129 1691 -148 c 128,-1,30
 1666 -167 1666 -167 1640 -186 c 1,31,32
 1520 -261 1520 -261 1402 -261 c 0,33,34
 1250 -261 1250 -261 1143 -193 c 0,35,36
 1017 -112 1017 -112 1017 37 c 0,37,38
 1017 84 1017 84 1046.5 130 c 128,-1,39
 1076 176 1076 176 1130 220 c 0,40,41
 1156 241 1156 241 1182 262 c 128,-1,42
 1208 283 1208 283 1234 305 c 0,43,44
 1260 326 1260 326 1286.5 347.5 c 128,-1,45
 1313 369 1313 369 1338 390 c 1,46,-1
 1339 390 l 1,47,48
 1451 505 1451 505 1451 666 c 0,49,50
 1451 777 1451 777 1383 845 c 1,51,52
 1321 905 1321 905 1232 905 c 0,53,54
 1153 905 1153 905 1091 855 c 1,55,-1
 1090 855 l 1,56,57
 965 748 965 748 877 506 c 1,58,-1
 733 573 l 1,59,60
 741 590 741 590 755.5 619 c 128,-1,61
 770 648 770 648 790 687 c 0,62,63
 801 708 801 708 814 732 c 128,-1,64
 827 756 827 756 844 782 c 1,65,66
 784 854 784 854 714.5 893.5 c 128,-1,67
 645 933 645 933 570 933 c 0,68,69
 447 933 447 933 368 849 c 1,70,71
 289 767 289 767 289 635 c 0,72,73
 289 564 289 564 315 496 c 128,-1,74
 341 428 341 428 388 370 c 1,75,76
 423 330 423 330 471.5 289 c 128,-1,77
 520 248 520 248 573 216 c 1,78,79
 614 193 614 193 640.5 180 c 128,-1,80
 667 167 667 167 676 167 c 1,81,-1
 606 37 l 1,82,83
 594 37 594 37 560.5 54.5 c 128,-1,84
 527 72 527 72 479 103 c 0,85,86
 413 146 413 146 357.5 196.5 c 128,-1,87
 302 247 302 247 259 304 c 1,88,89
 143 463 143 463 143 647 c 0,90,91
 143 836 143 836 258 948 c 256,92,93
 373 1060 373 1060 565 1060 c 0,94,95
 771 1060 771 1060 908 911 c 1,96,-1
 922 911 l 1,97,98
 939 930 939 930 956 944.5 c 128,-1,99
 973 959 973 959 993 973 c 1,100,-1
 994 973 l 1,101,102
 1096 1042 1096 1042 1224 1047 c 1,103,-1
 1234 1047 l 1,104,-1
 1234 1385 l 1,105,-1
 0 1385 l 1,106,-1
 0 1501 l 1,107,-1
 1883 1501 l 1,108,-1
 1883 1385 l 1,0,-1
EndSplineSet
Validated: 1
EndChar

StartChar: l.chandra
Encoding: 2317 2317 60
Width: 1300
GlyphClass: 2
Flags: W
LayerCount: 2
Fore
SplineSet
1162 2134 m 1,0,1
 1157 2078 1157 2078 1141 2029 c 128,-1,2
 1125 1980 1125 1980 1102 1940 c 1,3,4
 1044 1845 1044 1845 943.5 1795.5 c 128,-1,5
 843 1746 843 1746 701 1746 c 0,6,7
 567 1746 567 1746 467 1797.5 c 128,-1,8
 367 1849 367 1849 306 1940 c 1,9,10
 253 2022 253 2022 238 2134 c 1,11,-1
 385 2134 l 1,12,13
 407 1854 407 1854 701 1854 c 0,14,15
 801 1854 801 1854 871.5 1891.5 c 128,-1,16
 942 1929 942 1929 980 1994 c 1,17,18
 1009 2051 1009 2051 1011 2134 c 1,19,-1
 1162 2134 l 1,0,1
776 -170 m 1,20,21
 779 -171 779 -171 781.5 -171.5 c 128,-1,22
 784 -172 784 -172 787 -173 c 1,23,-1
 784 -170 l 1,24,-1
 776 -170 l 1,20,21
1337 1385 m 1,25,-1
 1105 1385 l 1,26,-1
 1105 840 l 2,27,28
 1105 758 1105 758 1042 695 c 0,29,30
 1016 669 1016 669 990.5 651 c 128,-1,31
 965 633 965 633 939 621 c 0,32,33
 921 613 921 613 910.5 608.5 c 128,-1,34
 900 604 900 604 900 605 c 2,35,-1
 795 692 l 1,36,37
 804 693 804 693 812.5 694 c 128,-1,38
 821 695 821 695 831 700 c 1,39,40
 854 709 854 709 875.5 723.5 c 128,-1,41
 897 738 897 738 914 756 c 0,42,43
 951 798 951 798 951 869 c 2,44,-1
 951 1385 l 1,45,-1
 400 1385 l 1,46,-1
 397 665 l 1,47,-1
 400 665 l 1,48,49
 484 587 484 587 566 511 c 128,-1,50
 648 435 648 435 731 358 c 256,51,52
 814 281 814 281 896 204.5 c 128,-1,53
 978 128 978 128 1063 51 c 1,54,-1
 1064 51 l 1,55,56
 1077 46 1077 46 1101 8 c 1,57,-1
 1102 8 l 1,58,59
 1135 -45 1135 -45 1135 -111 c 0,60,61
 1135 -190 1135 -190 1063 -250 c 1,62,63
 993 -305 993 -305 912 -305 c 1,64,-1
 787 -173 l 1,65,66
 809 -179 809 -179 826.5 -181.5 c 128,-1,67
 844 -184 844 -184 859 -184 c 0,68,69
 934 -184 934 -184 966 -142 c 0,70,71
 982 -121 982 -121 982 -97 c 0,72,73
 982 -55 982 -55 927 -3 c 0,74,75
 899 23 899 23 870 50 c 128,-1,76
 841 77 841 77 811 106 c 0,77,78
 743 170 743 170 669 239 c 128,-1,79
 595 308 595 308 521.5 377 c 128,-1,80
 448 446 448 446 377.5 511.5 c 128,-1,81
 307 577 307 577 244 635 c 1,82,-1
 244 1385 l 1,83,-1
 0 1385 l 1,84,-1
 0 1501 l 1,85,-1
 1337 1501 l 1,86,-1
 1337 1385 l 1,25,-1
EndSplineSet
Validated: 5
EndChar

StartChar: l.short.e
Encoding: 2318 2318 61
Width: 1300
GlyphClass: 2
Flags: W
LayerCount: 2
Fore
SplineSet
776 -170 m 1,0,1
 779 -171 779 -171 781.5 -171.5 c 128,-1,2
 784 -172 784 -172 787 -173 c 1,3,-1
 784 -170 l 1,4,-1
 776 -170 l 1,0,1
1337 1385 m 1,5,-1
 1105 1385 l 1,6,-1
 1105 840 l 2,7,8
 1105 758 1105 758 1042 695 c 0,9,10
 1016 669 1016 669 990.5 651 c 128,-1,11
 965 633 965 633 939 621 c 0,12,13
 921 613 921 613 910.5 608.5 c 128,-1,14
 900 604 900 604 900 605 c 2,15,-1
 795 692 l 1,16,17
 804 693 804 693 812.5 694 c 128,-1,18
 821 695 821 695 831 700 c 1,19,20
 854 709 854 709 875.5 723.5 c 128,-1,21
 897 738 897 738 914 756 c 0,22,23
 951 798 951 798 951 869 c 2,24,-1
 951 1385 l 1,25,-1
 400 1385 l 1,26,-1
 397 665 l 1,27,-1
 400 665 l 1,28,29
 484 587 484 587 566 511 c 128,-1,30
 648 435 648 435 731 358 c 256,31,32
 814 281 814 281 896 204.5 c 128,-1,33
 978 128 978 128 1063 51 c 1,34,-1
 1064 51 l 1,35,36
 1077 46 1077 46 1101 8 c 1,37,-1
 1102 8 l 1,38,39
 1135 -45 1135 -45 1135 -111 c 0,40,41
 1135 -190 1135 -190 1063 -250 c 1,42,43
 993 -305 993 -305 912 -305 c 1,44,-1
 787 -173 l 1,45,46
 809 -179 809 -179 826.5 -181.5 c 128,-1,47
 844 -184 844 -184 859 -184 c 0,48,49
 934 -184 934 -184 966 -142 c 0,50,51
 982 -121 982 -121 982 -97 c 0,52,53
 982 -55 982 -55 927 -3 c 0,54,55
 899 23 899 23 870 50 c 128,-1,56
 841 77 841 77 811 106 c 0,57,58
 743 170 743 170 669 239 c 128,-1,59
 595 308 595 308 521.5 377 c 128,-1,60
 448 446 448 446 377.5 511.5 c 128,-1,61
 307 577 307 577 244 635 c 1,62,-1
 244 1385 l 1,63,-1
 0 1385 l 1,64,-1
 0 1501 l 1,65,-1
 945 1501 l 1,66,67
 928 1573 928 1573 884 1624 c 128,-1,68
 840 1675 840 1675 776 1701 c 1,69,70
 741 1711 741 1711 685.5 1721.5 c 128,-1,71
 630 1732 630 1732 573 1738 c 0,72,73
 520 1744 520 1744 462.5 1759 c 128,-1,74
 405 1774 405 1774 357 1797 c 1,75,76
 285 1834 285 1834 245.5 1899 c 128,-1,77
 206 1964 206 1964 206 2056 c 0,78,79
 206 2127 206 2127 225 2188 c 1,80,-1
 303 2182 l 1,81,-1
 303 2170 l 1,82,83
 302 2161 302 2161 301.5 2153 c 128,-1,84
 301 2145 301 2145 301 2137 c 0,85,86
 301 2028 301 2028 340 1966.5 c 128,-1,87
 379 1905 379 1905 449 1887 c 1,88,-1
 450 1887 l 1,89,90
 454 1886 454 1886 457.5 1886 c 128,-1,91
 461 1886 461 1886 465 1885 c 256,92,93
 469 1884 469 1884 472.5 1883.5 c 128,-1,94
 476 1883 476 1883 481 1883 c 0,95,96
 510 1878 510 1878 539 1874.5 c 128,-1,97
 568 1871 568 1871 597 1867 c 256,98,99
 626 1863 626 1863 654 1859.5 c 128,-1,100
 682 1856 682 1856 711 1852 c 0,101,102
 762 1844 762 1844 816 1822 c 128,-1,103
 870 1800 870 1800 926 1761 c 0,104,105
 972 1729 972 1729 1005.5 1662.5 c 128,-1,106
 1039 1596 1039 1596 1056 1501 c 1,107,-1
 1337 1501 l 1,108,-1
 1337 1385 l 1,5,-1
EndSplineSet
Validated: 5
EndChar

StartChar: l.e
Encoding: 2319 2319 62
Width: 1300
GlyphClass: 2
Flags: W
LayerCount: 2
Fore
SplineSet
776 -170 m 1,0,1
 779 -171 779 -171 781.5 -171.5 c 128,-1,2
 784 -172 784 -172 787 -173 c 1,3,-1
 784 -170 l 1,4,-1
 776 -170 l 1,0,1
1337 1385 m 1,5,-1
 1105 1385 l 1,6,-1
 1105 840 l 2,7,8
 1105 758 1105 758 1042 695 c 0,9,10
 1016 669 1016 669 990.5 651 c 128,-1,11
 965 633 965 633 939 621 c 0,12,13
 921 613 921 613 910.5 608.5 c 128,-1,14
 900 604 900 604 900 605 c 2,15,-1
 795 692 l 1,16,17
 804 693 804 693 812.5 694 c 128,-1,18
 821 695 821 695 831 700 c 1,19,20
 854 709 854 709 875.5 723.5 c 128,-1,21
 897 738 897 738 914 756 c 0,22,23
 951 798 951 798 951 869 c 2,24,-1
 951 1385 l 1,25,-1
 400 1385 l 1,26,-1
 397 665 l 1,27,-1
 400 665 l 1,28,29
 484 587 484 587 566 511 c 128,-1,30
 648 435 648 435 731 358 c 256,31,32
 814 281 814 281 896 204.5 c 128,-1,33
 978 128 978 128 1063 51 c 1,34,-1
 1064 51 l 1,35,36
 1077 46 1077 46 1101 8 c 1,37,-1
 1102 8 l 1,38,39
 1135 -45 1135 -45 1135 -111 c 0,40,41
 1135 -190 1135 -190 1063 -250 c 1,42,43
 993 -305 993 -305 912 -305 c 1,44,-1
 787 -173 l 1,45,46
 809 -179 809 -179 826.5 -181.5 c 128,-1,47
 844 -184 844 -184 859 -184 c 0,48,49
 934 -184 934 -184 966 -142 c 0,50,51
 982 -121 982 -121 982 -97 c 0,52,53
 982 -55 982 -55 927 -3 c 0,54,55
 899 23 899 23 870 50 c 128,-1,56
 841 77 841 77 811 106 c 0,57,58
 743 170 743 170 669 239 c 128,-1,59
 595 308 595 308 521.5 377 c 128,-1,60
 448 446 448 446 377.5 511.5 c 128,-1,61
 307 577 307 577 244 635 c 1,62,-1
 244 1385 l 1,63,-1
 0 1385 l 1,64,-1
 0 1501 l 1,65,-1
 1337 1501 l 1,66,-1
 1337 1385 l 1,5,-1
EndSplineSet
Validated: 5
EndChar

StartChar: l.ai
Encoding: 2320 2320 63
Width: 1300
GlyphClass: 2
Flags: W
LayerCount: 2
Fore
SplineSet
776 -170 m 1,0,1
 779 -171 779 -171 781.5 -171.5 c 128,-1,2
 784 -172 784 -172 787 -173 c 1,3,-1
 784 -170 l 1,4,-1
 776 -170 l 1,0,1
1337 1385 m 1,5,-1
 1105 1385 l 1,6,-1
 1105 840 l 2,7,8
 1105 758 1105 758 1042 695 c 0,9,10
 1016 669 1016 669 990.5 651 c 128,-1,11
 965 633 965 633 939 621 c 0,12,13
 921 613 921 613 910.5 608.5 c 128,-1,14
 900 604 900 604 900 605 c 2,15,-1
 795 692 l 1,16,17
 804 693 804 693 812.5 694 c 128,-1,18
 821 695 821 695 831 700 c 1,19,20
 854 709 854 709 875.5 723.5 c 128,-1,21
 897 738 897 738 914 756 c 0,22,23
 951 798 951 798 951 869 c 2,24,-1
 951 1385 l 1,25,-1
 400 1385 l 1,26,-1
 397 665 l 1,27,-1
 400 665 l 1,28,29
 484 587 484 587 566 511 c 128,-1,30
 648 435 648 435 731 358 c 256,31,32
 814 281 814 281 896 204.5 c 128,-1,33
 978 128 978 128 1063 51 c 1,34,-1
 1064 51 l 1,35,36
 1077 46 1077 46 1101 8 c 1,37,-1
 1102 8 l 1,38,39
 1135 -45 1135 -45 1135 -111 c 0,40,41
 1135 -190 1135 -190 1063 -250 c 1,42,43
 993 -305 993 -305 912 -305 c 1,44,-1
 787 -173 l 1,45,46
 809 -179 809 -179 826.5 -181.5 c 128,-1,47
 844 -184 844 -184 859 -184 c 0,48,49
 934 -184 934 -184 966 -142 c 0,50,51
 982 -121 982 -121 982 -97 c 0,52,53
 982 -55 982 -55 927 -3 c 0,54,55
 899 23 899 23 870 50 c 128,-1,56
 841 77 841 77 811 106 c 0,57,58
 743 170 743 170 669 239 c 128,-1,59
 595 308 595 308 521.5 377 c 128,-1,60
 448 446 448 446 377.5 511.5 c 128,-1,61
 307 577 307 577 244 635 c 1,62,-1
 244 1385 l 1,63,-1
 0 1385 l 1,64,-1
 0 1501 l 1,65,-1
 931 1501 l 1,66,-1
 621 1811 l 2,67,68
 543 1889 543 1889 465.5 1966.5 c 128,-1,69
 388 2044 388 2044 311 2122 c 1,70,-1
 441 2227 l 1,71,-1
 1035 1501 l 1,72,-1
 1337 1501 l 1,73,-1
 1337 1385 l 1,5,-1
EndSplineSet
Validated: 5
EndChar

StartChar: l.chandrao
Encoding: 2321 2321 64
Width: 2283
GlyphClass: 2
Flags: W
LayerCount: 2
Fore
SplineSet
2412 2090 m 1,0,1
 2407 2026 2407 2026 2392 1973.5 c 128,-1,2
 2377 1921 2377 1921 2354 1883 c 0,3,4
 2239 1695 2239 1695 1979 1695 c 0,5,6
 1850 1695 1850 1695 1757 1742 c 128,-1,7
 1664 1789 1664 1789 1606 1882 c 0,8,9
 1583 1919 1583 1919 1567 1971.5 c 128,-1,10
 1551 2024 1551 2024 1539 2090 c 1,11,-1
 1696 2090 l 1,12,13
 1717 1833 1717 1833 1979 1833 c 0,14,15
 2163 1833 2163 1833 2226 1951 c 0,16,17
 2239 1977 2239 1977 2246 2011 c 128,-1,18
 2253 2045 2253 2045 2254 2090 c 1,19,-1
 2412 2090 l 1,0,1
460 774 m 1,20,-1
 461 774 l 1,21,-1
 460 774 l 1,20,-1
2309 1385 m 1,22,-1
 2065 1385 l 1,23,-1
 2065 0 l 1,24,-1
 1911 0 l 1,25,-1
 1911 1385 l 1,26,-1
 1475 1385 l 1,27,-1
 1475 0 l 1,28,-1
 1321 0 l 1,29,-1
 1321 661 l 1,30,-1
 1307 661 l 1,31,32
 1302 659 1302 659 1292 656.5 c 128,-1,33
 1282 654 1282 654 1268 652 c 0,34,35
 1241 647 1241 647 1217.5 644.5 c 128,-1,36
 1194 642 1194 642 1177 642 c 0,37,38
 1098 642 1098 642 1020 678 c 1,39,-1
 1007 678 l 1,40,41
 1024 640 1024 640 1033 596 c 128,-1,42
 1042 552 1042 552 1042 506 c 0,43,44
 1042 320 1042 320 926 222 c 1,45,-1
 925 222 l 1,46,47
 823 133 823 133 663 135 c 0,48,49
 610 135 610 135 553 155 c 128,-1,50
 496 175 496 175 438 211.5 c 128,-1,51
 380 248 380 248 321.5 300.5 c 128,-1,52
 263 353 263 353 206 419 c 1,53,54
 158 477 158 477 109 549 c 128,-1,55
 60 621 60 621 15 701 c 1,56,-1
 135 773 l 1,57,58
 406 250 406 250 665 250 c 0,59,60
 765 250 765 250 832 329 c 1,61,62
 897 403 897 403 897 508 c 0,63,64
 897 647 897 647 807 727 c 1,65,66
 728 800 728 800 598 800 c 0,67,68
 561 800 561 800 510 787 c 0,69,70
 498 784 498 784 488.5 781.5 c 128,-1,71
 479 779 479 779 472 777 c 0,72,73
 467 775 467 775 464 775 c 128,-1,74
 461 775 461 775 460 774 c 1,75,76
 452 788 452 788 446 801.5 c 128,-1,77
 440 815 440 815 433 829 c 0,78,79
 428 840 428 840 419.5 857 c 128,-1,80
 411 874 411 874 406 885 c 1,81,82
 440 885 440 885 574 915 c 0,83,84
 619 925 619 925 655.5 947.5 c 128,-1,85
 692 970 692 970 718 1001 c 1,86,87
 744 1036 744 1036 757.5 1076 c 128,-1,88
 771 1116 771 1116 771 1161 c 0,89,90
 771 1385 771 1385 560 1385 c 0,91,92
 509 1385 509 1385 451 1358.5 c 128,-1,93
 393 1332 393 1332 335 1284 c 1,94,-1
 334 1284 l 1,95,96
 235 1199 235 1199 235 1180 c 1,97,-1
 114 1267 l 1,98,99
 114 1272 114 1272 130 1289 c 128,-1,100
 146 1306 146 1306 174 1330 c 0,101,102
 211 1362 211 1362 253 1392 c 128,-1,103
 295 1422 295 1422 335 1442 c 0,104,105
 456 1501 456 1501 569 1501 c 0,106,107
 723 1501 723 1501 820 1407 c 1,108,109
 912 1315 912 1315 912 1177 c 0,110,111
 912 1076 912 1076 867.5 1003 c 128,-1,112
 823 930 823 930 740 885 c 1,113,-1
 744 885 l 1,114,115
 757 883 757 883 788 872.5 c 128,-1,116
 819 862 819 862 861 845 c 0,117,118
 898 829 898 829 955 785 c 1,119,-1
 958 785 l 1,120,121
 1068 753 1068 753 1126 753 c 0,122,123
 1147 753 1147 753 1182.5 760 c 128,-1,124
 1218 767 1218 767 1251 776 c 1,125,126
 1287 787 1287 787 1306 793.5 c 128,-1,127
 1325 800 1325 800 1321 800 c 1,128,-1
 1321 1385 l 1,129,-1
 1048 1385 l 1,130,-1
 1048 1501 l 1,131,-1
 2309 1501 l 1,132,-1
 2309 1385 l 1,22,-1
EndSplineSet
Validated: 37
EndChar

StartChar: l.short.o
Encoding: 2322 2322 65
Width: 2283
GlyphClass: 2
Flags: W
LayerCount: 2
Fore
SplineSet
460 774 m 1,0,-1
 461 774 l 1,1,-1
 460 774 l 1,0,-1
2309 1385 m 1,2,-1
 2065 1385 l 1,3,-1
 2065 0 l 1,4,-1
 1911 0 l 1,5,-1
 1911 1385 l 1,6,-1
 1475 1385 l 1,7,-1
 1475 0 l 1,8,-1
 1321 0 l 1,9,-1
 1321 661 l 1,10,-1
 1307 661 l 1,11,12
 1302 659 1302 659 1292 656.5 c 128,-1,13
 1282 654 1282 654 1268 652 c 0,14,15
 1241 647 1241 647 1217.5 644.5 c 128,-1,16
 1194 642 1194 642 1177 642 c 0,17,18
 1098 642 1098 642 1020 678 c 1,19,-1
 1007 678 l 1,20,21
 1024 640 1024 640 1033 596 c 128,-1,22
 1042 552 1042 552 1042 506 c 0,23,24
 1042 320 1042 320 926 222 c 1,25,-1
 925 222 l 1,26,27
 823 133 823 133 663 135 c 0,28,29
 610 135 610 135 553 155 c 128,-1,30
 496 175 496 175 438 211.5 c 128,-1,31
 380 248 380 248 321.5 300.5 c 128,-1,32
 263 353 263 353 206 419 c 1,33,34
 158 477 158 477 109 549 c 128,-1,35
 60 621 60 621 15 701 c 1,36,-1
 135 773 l 1,37,38
 406 250 406 250 665 250 c 0,39,40
 765 250 765 250 832 329 c 1,41,42
 897 403 897 403 897 508 c 0,43,44
 897 647 897 647 807 727 c 1,45,46
 728 800 728 800 598 800 c 0,47,48
 561 800 561 800 510 787 c 0,49,50
 498 784 498 784 488.5 781.5 c 128,-1,51
 479 779 479 779 472 777 c 0,52,53
 467 775 467 775 464 775 c 128,-1,54
 461 775 461 775 460 774 c 1,55,56
 452 788 452 788 446 801.5 c 128,-1,57
 440 815 440 815 433 829 c 0,58,59
 428 840 428 840 419.5 857 c 128,-1,60
 411 874 411 874 406 885 c 1,61,62
 440 885 440 885 574 915 c 0,63,64
 619 925 619 925 655.5 947.5 c 128,-1,65
 692 970 692 970 718 1001 c 1,66,67
 744 1036 744 1036 757.5 1076 c 128,-1,68
 771 1116 771 1116 771 1161 c 0,69,70
 771 1385 771 1385 560 1385 c 0,71,72
 509 1385 509 1385 451 1358.5 c 128,-1,73
 393 1332 393 1332 335 1284 c 1,74,-1
 334 1284 l 1,75,76
 235 1199 235 1199 235 1180 c 1,77,-1
 114 1267 l 1,78,79
 114 1272 114 1272 130 1289 c 128,-1,80
 146 1306 146 1306 174 1330 c 0,81,82
 211 1362 211 1362 253 1392 c 128,-1,83
 295 1422 295 1422 335 1442 c 0,84,85
 456 1501 456 1501 569 1501 c 0,86,87
 723 1501 723 1501 820 1407 c 1,88,89
 912 1315 912 1315 912 1177 c 0,90,91
 912 1076 912 1076 867.5 1003 c 128,-1,92
 823 930 823 930 740 885 c 1,93,-1
 744 885 l 1,94,95
 757 883 757 883 788 872.5 c 128,-1,96
 819 862 819 862 861 845 c 0,97,98
 898 829 898 829 955 785 c 1,99,-1
 958 785 l 1,100,101
 1068 753 1068 753 1126 753 c 0,102,103
 1147 753 1147 753 1182.5 760 c 128,-1,104
 1218 767 1218 767 1251 776 c 1,105,106
 1287 787 1287 787 1306 793.5 c 128,-1,107
 1325 800 1325 800 1321 800 c 1,108,-1
 1321 1385 l 1,109,-1
 1048 1385 l 1,110,-1
 1048 1501 l 1,111,-1
 1911 1501 l 1,112,113
 1894 1573 1894 1573 1850 1624 c 128,-1,114
 1806 1675 1806 1675 1742 1701 c 1,115,116
 1707 1711 1707 1711 1651.5 1721.5 c 128,-1,117
 1596 1732 1596 1732 1539 1738 c 0,118,119
 1486 1743 1486 1743 1430 1758 c 128,-1,120
 1374 1773 1374 1773 1324 1797 c 1,121,122
 1252 1834 1252 1834 1212.5 1899 c 128,-1,123
 1173 1964 1173 1964 1173 2056 c 0,124,125
 1173 2127 1173 2127 1192 2188 c 1,126,-1
 1269 2182 l 1,127,-1
 1269 2176 l 2,128,129
 1269 2174 1269 2174 1268.5 2171.5 c 128,-1,130
 1268 2169 1268 2169 1268 2167 c 0,131,132
 1267 2159 1267 2159 1267 2152.5 c 128,-1,133
 1267 2146 1267 2146 1267 2139 c 0,134,135
 1267 2034 1267 2034 1308.5 1970.5 c 128,-1,136
 1350 1907 1350 1907 1417 1887 c 0,137,138
 1420 1886 1420 1886 1424.5 1886 c 128,-1,139
 1429 1886 1429 1886 1432 1885 c 0,140,141
 1436 1884 1436 1884 1439.5 1883.5 c 128,-1,142
 1443 1883 1443 1883 1448 1883 c 0,143,144
 1477 1878 1477 1878 1506 1874.5 c 128,-1,145
 1535 1871 1535 1871 1564 1867 c 256,146,147
 1593 1863 1593 1863 1621 1859.5 c 128,-1,148
 1649 1856 1649 1856 1678 1852 c 0,149,150
 1729 1844 1729 1844 1783 1822 c 128,-1,151
 1837 1800 1837 1800 1893 1761 c 0,152,153
 1939 1729 1939 1729 1972.5 1662.5 c 128,-1,154
 2006 1596 2006 1596 2023 1501 c 1,155,-1
 2309 1501 l 1,156,-1
 2309 1385 l 1,2,-1
EndSplineSet
Validated: 37
EndChar

StartChar: l.o
Encoding: 2323 2323 66
Width: 2283
GlyphClass: 2
Flags: W
LayerCount: 2
Fore
SplineSet
460 774 m 1,0,-1
 461 774 l 1,1,-1
 460 774 l 1,0,-1
2309 1385 m 1,2,-1
 2065 1385 l 1,3,-1
 2065 0 l 1,4,-1
 1911 0 l 1,5,-1
 1911 1385 l 1,6,-1
 1475 1385 l 1,7,-1
 1475 0 l 1,8,-1
 1321 0 l 1,9,-1
 1321 661 l 1,10,-1
 1307 661 l 1,11,12
 1302 659 1302 659 1292 656.5 c 128,-1,13
 1282 654 1282 654 1268 652 c 0,14,15
 1241 647 1241 647 1217.5 644.5 c 128,-1,16
 1194 642 1194 642 1177 642 c 0,17,18
 1098 642 1098 642 1020 678 c 1,19,-1
 1007 678 l 1,20,21
 1024 640 1024 640 1033 596 c 128,-1,22
 1042 552 1042 552 1042 506 c 0,23,24
 1042 320 1042 320 926 222 c 1,25,-1
 925 222 l 1,26,27
 823 133 823 133 663 135 c 0,28,29
 610 135 610 135 553 155 c 128,-1,30
 496 175 496 175 438 211.5 c 128,-1,31
 380 248 380 248 321.5 300.5 c 128,-1,32
 263 353 263 353 206 419 c 1,33,34
 158 477 158 477 109 549 c 128,-1,35
 60 621 60 621 15 701 c 1,36,-1
 135 773 l 1,37,38
 406 250 406 250 665 250 c 0,39,40
 765 250 765 250 832 329 c 1,41,42
 897 403 897 403 897 508 c 0,43,44
 897 647 897 647 807 727 c 1,45,46
 728 800 728 800 598 800 c 0,47,48
 561 800 561 800 510 787 c 0,49,50
 498 784 498 784 488.5 781.5 c 128,-1,51
 479 779 479 779 472 777 c 0,52,53
 467 775 467 775 464 775 c 128,-1,54
 461 775 461 775 460 774 c 1,55,56
 452 788 452 788 446 801.5 c 128,-1,57
 440 815 440 815 433 829 c 0,58,59
 428 840 428 840 419.5 857 c 128,-1,60
 411 874 411 874 406 885 c 1,61,62
 440 885 440 885 574 915 c 0,63,64
 619 925 619 925 655.5 947.5 c 128,-1,65
 692 970 692 970 718 1001 c 1,66,67
 744 1036 744 1036 757.5 1076 c 128,-1,68
 771 1116 771 1116 771 1161 c 0,69,70
 771 1385 771 1385 560 1385 c 0,71,72
 509 1385 509 1385 451 1358.5 c 128,-1,73
 393 1332 393 1332 335 1284 c 1,74,-1
 334 1284 l 1,75,76
 235 1199 235 1199 235 1180 c 1,77,-1
 114 1267 l 1,78,79
 114 1272 114 1272 130 1289 c 128,-1,80
 146 1306 146 1306 174 1330 c 0,81,82
 211 1362 211 1362 253 1392 c 128,-1,83
 295 1422 295 1422 335 1442 c 0,84,85
 456 1501 456 1501 569 1501 c 0,86,87
 723 1501 723 1501 820 1407 c 1,88,89
 912 1315 912 1315 912 1177 c 0,90,91
 912 1076 912 1076 867.5 1003 c 128,-1,92
 823 930 823 930 740 885 c 1,93,-1
 744 885 l 1,94,95
 757 883 757 883 788 872.5 c 128,-1,96
 819 862 819 862 861 845 c 0,97,98
 898 829 898 829 955 785 c 1,99,-1
 958 785 l 1,100,101
 1068 753 1068 753 1126 753 c 0,102,103
 1147 753 1147 753 1182.5 760 c 128,-1,104
 1218 767 1218 767 1251 776 c 1,105,106
 1287 787 1287 787 1306 793.5 c 128,-1,107
 1325 800 1325 800 1321 800 c 1,108,-1
 1321 1385 l 1,109,-1
 1048 1385 l 1,110,-1
 1048 1501 l 1,111,-1
 1897 1501 l 1,112,-1
 1587 1811 l 2,113,114
 1509 1889 1509 1889 1432 1966.5 c 128,-1,115
 1355 2044 1355 2044 1278 2122 c 1,116,-1
 1407 2227 l 1,117,-1
 2002 1501 l 1,118,-1
 2309 1501 l 1,119,-1
 2309 1385 l 1,2,-1
EndSplineSet
Validated: 37
EndChar

StartChar: l.au
Encoding: 2324 2324 67
Width: 2283
GlyphClass: 2
Flags: W
LayerCount: 2
Fore
SplineSet
460 774 m 1,0,-1
 461 774 l 1,1,-1
 460 774 l 1,0,-1
2309 1385 m 1,2,-1
 2065 1385 l 1,3,-1
 2065 0 l 1,4,-1
 1911 0 l 1,5,-1
 1911 1385 l 1,6,-1
 1475 1385 l 1,7,-1
 1475 0 l 1,8,-1
 1321 0 l 1,9,-1
 1321 661 l 1,10,-1
 1307 661 l 1,11,12
 1302 659 1302 659 1292 656.5 c 128,-1,13
 1282 654 1282 654 1268 652 c 0,14,15
 1241 647 1241 647 1217.5 644.5 c 128,-1,16
 1194 642 1194 642 1177 642 c 0,17,18
 1098 642 1098 642 1020 678 c 1,19,-1
 1007 678 l 1,20,21
 1024 640 1024 640 1033 596 c 128,-1,22
 1042 552 1042 552 1042 506 c 0,23,24
 1042 320 1042 320 926 222 c 1,25,-1
 925 222 l 1,26,27
 823 133 823 133 663 135 c 0,28,29
 610 135 610 135 553 155 c 128,-1,30
 496 175 496 175 438 211.5 c 128,-1,31
 380 248 380 248 321.5 300.5 c 128,-1,32
 263 353 263 353 206 419 c 1,33,34
 158 477 158 477 109 549 c 128,-1,35
 60 621 60 621 15 701 c 1,36,-1
 135 773 l 1,37,38
 406 250 406 250 665 250 c 0,39,40
 765 250 765 250 832 329 c 1,41,42
 897 403 897 403 897 508 c 0,43,44
 897 647 897 647 807 727 c 1,45,46
 728 800 728 800 598 800 c 0,47,48
 561 800 561 800 510 787 c 0,49,50
 498 784 498 784 488.5 781.5 c 128,-1,51
 479 779 479 779 472 777 c 0,52,53
 467 775 467 775 464 775 c 128,-1,54
 461 775 461 775 460 774 c 1,55,56
 452 788 452 788 446 801.5 c 128,-1,57
 440 815 440 815 433 829 c 0,58,59
 428 840 428 840 419.5 857 c 128,-1,60
 411 874 411 874 406 885 c 1,61,62
 440 885 440 885 574 915 c 0,63,64
 619 925 619 925 655.5 947.5 c 128,-1,65
 692 970 692 970 718 1001 c 1,66,67
 744 1036 744 1036 757.5 1076 c 128,-1,68
 771 1116 771 1116 771 1161 c 0,69,70
 771 1385 771 1385 560 1385 c 0,71,72
 509 1385 509 1385 451 1358.5 c 128,-1,73
 393 1332 393 1332 335 1284 c 1,74,-1
 334 1284 l 1,75,76
 235 1199 235 1199 235 1180 c 1,77,-1
 114 1267 l 1,78,79
 114 1272 114 1272 130 1289 c 128,-1,80
 146 1306 146 1306 174 1330 c 0,81,82
 211 1362 211 1362 253 1392 c 128,-1,83
 295 1422 295 1422 335 1442 c 0,84,85
 456 1501 456 1501 569 1501 c 0,86,87
 723 1501 723 1501 820 1407 c 1,88,89
 912 1315 912 1315 912 1177 c 0,90,91
 912 1076 912 1076 867.5 1003 c 128,-1,92
 823 930 823 930 740 885 c 1,93,-1
 744 885 l 1,94,95
 757 883 757 883 788 872.5 c 128,-1,96
 819 862 819 862 861 845 c 0,97,98
 898 829 898 829 955 785 c 1,99,-1
 958 785 l 1,100,101
 1068 753 1068 753 1126 753 c 0,102,103
 1147 753 1147 753 1182.5 760 c 128,-1,104
 1218 767 1218 767 1251 776 c 1,105,106
 1287 787 1287 787 1306 793.5 c 128,-1,107
 1325 800 1325 800 1321 800 c 1,108,-1
 1321 1385 l 1,109,-1
 1048 1385 l 1,110,-1
 1048 1501 l 1,111,-1
 1671 1501 l 1,112,113
 1599 1549 1599 1549 1524 1598.5 c 128,-1,114
 1449 1648 1449 1648 1374 1698 c 0,115,116
 1332 1726 1332 1726 1291.5 1753 c 128,-1,117
 1251 1780 1251 1780 1211 1806 c 1,118,-1
 1301 1932 l 1,119,-1
 1776 1501 l 1,120,-1
 1959 1501 l 1,121,122
 1893 1580 1893 1580 1827.5 1661 c 128,-1,123
 1762 1742 1762 1742 1695 1823 c 256,124,125
 1628 1904 1628 1904 1561.5 1985 c 128,-1,126
 1495 2066 1495 2066 1430 2146 c 1,127,-1
 1580 2234 l 1,128,-1
 2049 1501 l 1,129,-1
 2309 1501 l 1,130,-1
 2309 1385 l 1,2,-1
EndSplineSet
Validated: 37
EndChar

StartChar: l.ka
Encoding: 2325 2325 68
Width: 1871
GlyphClass: 2
Flags: W
AnchorPoint: "Anchor-0" 1048 1499 basechar 0
LayerCount: 2
Fore
SplineSet
1893 1385 m 1,0,-1
 1042 1385 l 1,1,-1
 1042 970 l 1,2,-1
 1060 970 l 1,3,4
 1158 1095 1158 1095 1330 1095 c 0,5,6
 1504 1095 1504 1095 1614 988 c 256,7,8
 1724 881 1724 881 1724 722 c 0,9,10
 1724 504 1724 504 1427 198 c 1,11,-1
 1300 289 l 1,12,13
 1303 289 1303 289 1322.5 307 c 128,-1,14
 1342 325 1342 325 1372 358 c 0,15,16
 1410 400 1410 400 1441.5 442.5 c 128,-1,17
 1473 485 1473 485 1498 527 c 0,18,19
 1566 642 1566 642 1566 737 c 0,20,21
 1566 846 1566 846 1511 910.5 c 128,-1,22
 1456 975 1456 975 1348 975 c 0,23,24
 1225 975 1225 975 1129 849 c 1,25,26
 1042 738 1042 738 1042 632 c 2,27,-1
 1042 0 l 1,28,-1
 890 0 l 1,29,-1
 890 420 l 1,30,-1
 873 420 l 1,31,32
 822 374 822 374 760 349.5 c 128,-1,33
 698 325 698 325 626 325 c 0,34,35
 457 325 457 325 334 445 c 256,36,37
 211 565 211 565 211 732 c 0,38,39
 211 896 211 896 330 1012 c 0,40,41
 448 1126 448 1126 617 1126 c 0,42,43
 650 1126 650 1126 685 1118.5 c 128,-1,44
 720 1111 720 1111 755 1095 c 1,45,-1
 755 966 l 1,46,47
 702 1005 702 1005 632 1005 c 0,48,49
 524 1005 524 1005 445 926 c 1,50,51
 367 846 367 846 367 737 c 0,52,53
 367 617 367 617 436 533 c 1,54,55
 508 442 508 442 617 442 c 0,56,57
 744 442 744 442 829 548 c 0,58,59
 890 623 890 623 890 663 c 2,60,-1
 890 1385 l 1,61,-1
 0 1385 l 1,62,-1
 0 1501 l 1,63,-1
 1893 1501 l 1,64,-1
 1893 1385 l 1,0,-1
EndSplineSet
Validated: 1
EndChar

StartChar: l.kh
Encoding: 2326 2326 69
Width: 1980
GlyphClass: 2
Flags: W
LayerCount: 2
Fore
SplineSet
1997 1385 m 1,0,-1
 1753 1385 l 1,1,-1
 1753 0 l 1,2,-1
 1599 0 l 1,3,-1
 1599 283 l 1,4,-1
 1584 283 l 1,5,6
 1514 241 1514 241 1441.5 207 c 128,-1,7
 1369 173 1369 173 1297 149.5 c 128,-1,8
 1225 126 1225 126 1154.5 113 c 128,-1,9
 1084 100 1084 100 1017 100 c 0,10,11
 875 100 875 100 754 145 c 128,-1,12
 633 190 633 190 535 276 c 1,13,14
 466 338 466 338 401.5 433.5 c 128,-1,15
 337 529 337 529 280 647 c 0,16,17
 260 689 260 689 237.5 745 c 128,-1,18
 215 801 215 801 190 868 c 0,19,20
 169 924 169 924 158 958 c 128,-1,21
 147 992 147 992 147 996 c 1,22,-1
 274 1063 l 1,23,-1
 329 900 l 1,24,-1
 331 900 l 1,25,26
 386 848 386 848 469 848 c 0,27,28
 598 848 598 848 598 975 c 2,29,-1
 598 1385 l 1,30,-1
 0 1385 l 1,31,-1
 0 1501 l 1,32,-1
 1997 1501 l 1,33,-1
 1997 1385 l 1,0,-1
1599 616 m 1,34,-1
 1584 616 l 1,35,36
 1459 535 1459 535 1321 535 c 0,37,38
 1189 535 1189 535 1091 618 c 1,39,40
 990 707 990 707 990 848 c 0,41,42
 990 990 990 990 1094 1079 c 1,43,44
 1191 1164 1191 1164 1330 1164 c 0,45,46
 1388 1164 1388 1164 1465 1140 c 1,47,-1
 1505 1021 l 1,48,49
 1448 1048 1448 1048 1348 1048 c 0,50,51
 1253 1048 1253 1048 1196 994 c 1,52,53
 1140 938 1140 938 1140 855 c 0,54,55
 1140 656 1140 656 1342 656 c 0,56,57
 1469 656 1469 656 1596 775 c 1,58,-1
 1599 775 l 1,59,-1
 1599 1385 l 1,60,-1
 747 1385 l 1,61,-1
 747 993 l 2,62,63
 747 946 747 946 732.5 903 c 128,-1,64
 718 860 718 860 692 823 c 0,65,66
 657 775 657 775 604.5 750.5 c 128,-1,67
 552 726 552 726 484 726 c 0,68,69
 451 726 451 726 424 732 c 1,70,71
 420 734 420 734 415.5 734.5 c 128,-1,72
 411 735 411 735 409 736 c 1,73,-1
 406 736 l 2,74,75
 405 736 405 736 404 736.5 c 128,-1,76
 403 737 403 737 402 737 c 2,77,-1
 392 737 l 1,78,79
 395 706 395 706 450 604 c 0,80,81
 532 450 532 450 650 354 c 0,82,83
 815 219 815 219 1026 219 c 0,84,85
 1161 219 1161 219 1305.5 274.5 c 128,-1,86
 1450 330 1450 330 1599 436 c 1,87,-1
 1599 616 l 1,34,-1
EndSplineSet
Validated: 1
EndChar

StartChar: l.ga
Encoding: 2327 2327 70
Width: 1431
GlyphClass: 2
Flags: W
LayerCount: 2
Fore
SplineSet
1467 1385 m 1,0,-1
 1223 1385 l 1,1,-1
 1223 0 l 1,2,-1
 1070 0 l 1,3,-1
 1070 1385 l 1,4,-1
 626 1385 l 1,5,-1
 626 626 l 2,6,7
 626 508 626 508 560 508 c 0,8,9
 490 508 490 508 358 642 c 0,10,11
 226 777 226 777 226 852 c 0,12,13
 226 906 226 906 304 906 c 2,14,-1
 476 906 l 1,15,-1
 476 1385 l 1,16,-1
 0 1385 l 1,17,-1
 0 1501 l 1,18,-1
 1467 1501 l 1,19,-1
 1467 1385 l 1,0,-1
EndSplineSet
Validated: 1
EndChar

StartChar: l.gha
Encoding: 2328 2328 71
Width: 1575
GlyphClass: 2
Flags: W
LayerCount: 2
Fore
SplineSet
1592 1385 m 1,0,-1
 1348 1385 l 1,1,-1
 1348 0 l 1,2,-1
 1194 0 l 1,3,-1
 1194 456 l 1,4,-1
 1179 456 l 1,5,6
 924 295 924 295 710 295 c 0,7,8
 551 295 551 295 429 384 c 1,9,10
 301 479 301 479 301 619 c 0,11,12
 301 739 301 739 384 831 c 1,13,14
 439 890 439 890 465 897 c 1,15,16
 445 899 445 899 414.5 912.5 c 128,-1,17
 384 926 384 926 345 953 c 0,18,19
 229 1036 229 1036 229 1164 c 0,20,21
 229 1199 229 1199 240.5 1240 c 128,-1,22
 252 1281 252 1281 269 1317 c 1,23,24
 283 1343 283 1343 295 1361 c 128,-1,25
 307 1379 307 1379 316 1385 c 1,26,-1
 0 1385 l 1,27,-1
 0 1501 l 1,28,-1
 1592 1501 l 1,29,-1
 1592 1385 l 1,0,-1
1194 1385 m 1,30,-1
 500 1385 l 2,31,32
 482 1385 482 1385 436 1330 c 1,33,34
 376 1261 376 1261 376 1180 c 0,35,36
 376 1137 376 1137 396.5 1098 c 128,-1,37
 417 1059 417 1059 454 1028 c 1,38,39
 487 1002 487 1002 522 988.5 c 128,-1,40
 557 975 557 975 590 975 c 2,41,-1
 840 975 l 1,42,-1
 890 869 l 1,43,-1
 726 869 l 2,44,45
 633 869 633 869 549 806 c 0,46,47
 451 733 451 733 451 626 c 0,48,49
 451 529 451 529 539 468 c 0,50,51
 618 413 618 413 726 413 c 0,52,53
 754 413 754 413 788 419 c 128,-1,54
 822 425 822 425 858 436.5 c 128,-1,55
 894 448 894 448 931.5 463.5 c 128,-1,56
 969 479 969 479 1006 497 c 1,57,58
 1058 525 1058 525 1107 558 c 128,-1,59
 1156 591 1156 591 1191 623 c 1,60,-1
 1194 623 l 1,61,-1
 1194 1385 l 1,30,-1
EndSplineSet
Validated: 1
EndChar

StartChar: l.nga
Encoding: 2329 2329 72
Width: 1727
GlyphClass: 2
Flags: W
LayerCount: 2
Fore
SplineSet
1679 813 m 1,0,-1
 1484 813 l 1,1,-1
 1484 990 l 1,2,-1
 1679 990 l 1,3,-1
 1679 813 l 1,0,-1
1743 1385 m 1,4,-1
 1316 1385 l 1,5,-1
 1316 1003 l 1,6,-1
 695 1003 l 2,7,8
 671 1003 671 1003 671 965 c 0,9,10
 671 904 671 904 762 784 c 0,11,12
 853 663 853 663 960 663 c 0,13,14
 1010 663 1010 663 1121 708 c 256,15,16
 1232 753 1232 753 1285 753 c 0,17,18
 1359 753 1359 753 1401 676 c 0,19,20
 1418 643 1418 643 1426.5 604.5 c 128,-1,21
 1435 566 1435 566 1435 521 c 0,22,23
 1435 303 1435 303 1307 175 c 1,24,25
 1185 55 1185 55 987 55 c 0,26,27
 918 55 918 55 843.5 78 c 128,-1,28
 769 101 769 101 692.5 143.5 c 128,-1,29
 616 186 616 186 539.5 247 c 128,-1,30
 463 308 463 308 388 385 c 0,31,32
 322 454 322 454 259.5 537 c 128,-1,33
 197 620 197 620 135 716 c 1,34,-1
 250 824 l 1,35,36
 311 727 311 727 368.5 647.5 c 128,-1,37
 426 568 426 568 485 500 c 0,38,39
 766 174 766 174 987 174 c 0,40,41
 1053 174 1053 174 1107 198.5 c 128,-1,42
 1161 223 1161 223 1203 269 c 1,43,44
 1241 315 1241 315 1263 377.5 c 128,-1,45
 1285 440 1285 440 1285 514 c 0,46,47
 1285 585 1285 585 1265 605 c 0,48,49
 1253 617 1253 617 1210 617 c 0,50,51
 1192 617 1192 617 1089 576 c 256,52,53
 986 535 986 535 930 535 c 0,54,55
 859 535 859 535 787 581 c 128,-1,56
 715 627 715 627 643 718 c 0,57,58
 577 802 577 802 542.5 873.5 c 128,-1,59
 508 945 508 945 508 1003 c 0,60,61
 508 1119 508 1119 663 1119 c 2,62,-1
 1164 1119 l 1,63,-1
 1164 1385 l 1,64,-1
 0 1385 l 1,65,-1
 0 1501 l 1,66,-1
 1743 1501 l 1,67,-1
 1743 1385 l 1,4,-1
EndSplineSet
Validated: 1
EndChar

StartChar: l.ca
Encoding: 2330 2330 73
Width: 1566
GlyphClass: 2
Flags: W
LayerCount: 2
Fore
SplineSet
1592 1385 m 1,0,-1
 1348 1385 l 1,1,-1
 1348 0 l 1,2,-1
 1194 0 l 1,3,-1
 1194 500 l 1,4,-1
 1177 500 l 1,5,6
 978 316 978 316 740 316 c 0,7,8
 595 316 595 316 504 397 c 1,9,-1
 503 397 l 1,10,11
 400 483 400 483 400 635 c 0,12,13
 400 739 400 739 456.5 828.5 c 128,-1,14
 513 918 513 918 620 990 c 1,15,-1
 147 990 l 1,16,-1
 147 1111 l 1,17,-1
 1026 1111 l 1,18,-1
 1026 990 l 1,19,-1
 840 990 l 2,20,21
 811 990 811 990 768 965 c 128,-1,22
 725 940 725 940 678 901 c 1,23,24
 624 845 624 845 588.5 777 c 128,-1,25
 553 709 553 709 553 642 c 0,26,27
 553 541 553 541 611 486 c 0,28,29
 663 437 663 437 747 437 c 0,30,31
 813 437 813 437 885.5 465.5 c 128,-1,32
 958 494 958 494 1024 541 c 1,33,34
 1070 577 1070 577 1114.5 621.5 c 128,-1,35
 1159 666 1159 666 1192 714 c 1,36,-1
 1194 714 l 1,37,-1
 1194 1385 l 1,38,-1
 0 1385 l 1,39,-1
 0 1501 l 1,40,-1
 1592 1501 l 1,41,-1
 1592 1385 l 1,0,-1
EndSplineSet
Validated: 1
EndChar

StartChar: l.cha
Encoding: 2331 2331 74
Width: 1718
GlyphClass: 2
Flags: W
LayerCount: 2
Fore
SplineSet
1751 1385 m 1,0,-1
 1348 1385 l 1,1,-1
 1348 1132 l 1,2,3
 1390 1118 1390 1118 1420 1104 c 128,-1,4
 1450 1090 1450 1090 1469 1077 c 1,5,6
 1583 990 1583 990 1583 831 c 0,7,8
 1583 675 1583 675 1514 542 c 128,-1,9
 1445 409 1445 409 1310 299 c 1,10,11
 1184 202 1184 202 1043.5 149.5 c 128,-1,12
 903 97 903 97 753 97 c 0,13,14
 558 97 558 97 433 213 c 1,15,16
 310 330 310 330 310 508 c 0,17,18
 310 609 310 609 350.5 689 c 128,-1,19
 391 769 391 769 469 831 c 1,20,-1
 464 831 l 1,21,22
 443 833 443 833 409.5 851 c 128,-1,23
 376 869 376 869 331 901 c 0,24,25
 266 949 266 949 232 1007.5 c 128,-1,26
 198 1066 198 1066 198 1135 c 0,27,28
 198 1185 198 1185 211.5 1231 c 128,-1,29
 225 1277 225 1277 251 1318 c 0,30,31
 266 1341 266 1341 281 1358 c 128,-1,32
 296 1375 296 1375 310 1385 c 1,33,-1
 0 1385 l 1,34,-1
 0 1501 l 1,35,-1
 1751 1501 l 1,36,-1
 1751 1385 l 1,0,-1
1442 831 m 0,37,38
 1442 1017 1442 1017 1276 1017 c 0,39,40
 1199 1017 1199 1017 1157 955 c 0,41,42
 1119 900 1119 900 1119 819 c 0,43,44
 1119 682 1119 682 1196 564 c 1,45,46
 1221 523 1221 523 1242 499 c 128,-1,47
 1263 475 1263 475 1279 465 c 1,48,-1
 1290 465 l 1,49,50
 1304 476 1304 476 1323.5 502 c 128,-1,51
 1343 528 1343 528 1366 566 c 0,52,53
 1403 629 1403 629 1422.5 695.5 c 128,-1,54
 1442 762 1442 762 1442 831 c 0,37,38
1201 1385 m 1,55,-1
 497 1385 l 1,56,57
 484 1380 484 1380 465.5 1360 c 128,-1,58
 447 1340 447 1340 419 1305 c 1,59,60
 346 1218 346 1218 346 1147 c 0,61,62
 346 1097 346 1097 373.5 1053 c 128,-1,63
 401 1009 401 1009 443 974 c 1,64,65
 485 947 485 947 528.5 931 c 128,-1,66
 572 915 572 915 617 915 c 0,67,68
 635 915 635 915 656.5 916.5 c 128,-1,69
 678 918 678 918 704 922 c 0,70,71
 753 928 753 928 755 930 c 1,72,73
 763 915 763 915 770.5 900.5 c 128,-1,74
 778 886 778 886 786 872 c 256,75,76
 794 858 794 858 801 844 c 128,-1,77
 808 830 808 830 816 816 c 1,78,79
 804 818 804 818 791 819 c 128,-1,80
 778 820 778 820 764 820 c 0,81,82
 704 820 704 820 648 797 c 128,-1,83
 592 774 592 774 547 736 c 1,84,85
 501 691 501 691 476 637.5 c 128,-1,86
 451 584 451 584 451 521 c 256,87,88
 451 458 451 458 476.5 401.5 c 128,-1,89
 502 345 502 345 544 301 c 1,90,91
 589 260 589 260 648.5 235.5 c 128,-1,92
 708 211 708 211 771 211 c 0,93,94
 840 211 840 211 912.5 232 c 128,-1,95
 985 253 985 253 1060 294 c 0,96,97
 1084 307 1084 307 1105.5 320.5 c 128,-1,98
 1127 334 1127 334 1143.5 345.5 c 128,-1,99
 1160 357 1160 357 1171 366.5 c 128,-1,100
 1182 376 1182 376 1185 382 c 1,101,-1
 1186 382 l 1,102,103
 1172 387 1172 387 1145.5 422.5 c 128,-1,104
 1119 458 1119 458 1083 517 c 0,105,106
 1036 595 1036 595 1011.5 675 c 128,-1,107
 987 755 987 755 987 831 c 0,108,109
 987 887 987 887 1001.5 934.5 c 128,-1,110
 1016 982 1016 982 1042 1020 c 1,111,112
 1084 1076 1084 1076 1143 1105 c 1,113,114
 1156 1110 1156 1110 1156.5 1110 c 128,-1,115
 1157 1110 1157 1110 1162 1112 c 0,116,117
 1164 1113 1164 1113 1166 1113.5 c 128,-1,118
 1168 1114 1168 1114 1170 1115 c 0,119,120
 1184 1118 1184 1118 1190 1121 c 0,121,122
 1193 1123 1193 1123 1196.5 1125 c 128,-1,123
 1200 1127 1200 1127 1199 1126 c 1,124,-1
 1201 1126 l 1,125,-1
 1201 1385 l 1,55,-1
EndSplineSet
Validated: 1
EndChar

StartChar: l.ja
Encoding: 2332 2332 75
Width: 1818
GlyphClass: 2
Flags: W
LayerCount: 2
Fore
SplineSet
1841 1385 m 1,0,-1
 1597 1385 l 1,1,-1
 1597 0 l 1,2,-1
 1444 0 l 1,3,-1
 1444 930 l 1,4,-1
 1035 930 l 1,5,6
 1056 915 1056 915 1104 833 c 0,7,8
 1164 728 1164 728 1164 647 c 0,9,10
 1164 497 1164 497 1083 398 c 1,11,12
 989 286 989 286 824 286 c 0,13,14
 630 286 630 286 460 477 c 0,15,16
 402 542 402 542 347 635.5 c 128,-1,17
 292 729 292 729 245 835 c 0,18,19
 207 920 207 920 189 970.5 c 128,-1,20
 171 1021 171 1021 174 1032 c 1,21,-1
 301 1126 l 1,22,-1
 302 1126 l 1,23,24
 294 1121 294 1121 311 1069 c 128,-1,25
 328 1017 328 1017 359 934 c 0,26,27
 377 887 377 887 399.5 839 c 128,-1,28
 422 791 422 791 446.5 745 c 128,-1,29
 471 699 471 699 495.5 658 c 128,-1,30
 520 617 520 617 543 585 c 1,31,32
 612 499 612 499 688.5 448 c 128,-1,33
 765 397 765 397 840 397 c 0,34,35
 877 397 877 397 911 417.5 c 128,-1,36
 945 438 945 438 970 472 c 1,37,38
 991 507 991 507 1004 548.5 c 128,-1,39
 1017 590 1017 590 1017 635 c 0,40,41
 1017 692 1017 692 988 762 c 128,-1,42
 959 832 959 832 908 907 c 0,43,44
 864 970 864 970 835.5 1005 c 128,-1,45
 807 1040 807 1040 799 1042 c 1,46,-1
 1444 1042 l 1,47,-1
 1444 1385 l 1,48,-1
 0 1385 l 1,49,-1
 0 1501 l 1,50,-1
 1841 1501 l 1,51,-1
 1841 1385 l 1,0,-1
EndSplineSet
Validated: 1
EndChar

StartChar: l.jha
Encoding: 2333 2333 76
Width: 1727
GlyphClass: 2
Flags: W
LayerCount: 2
Fore
SplineSet
1747 1385 m 1,0,-1
 1504 1385 l 1,1,-1
 1504 0 l 1,2,-1
 1350 0 l 1,3,-1
 1350 594 l 1,4,-1
 1336 594 l 1,5,6
 1265 566 1265 566 1210 566 c 0,7,8
 1169 566 1169 566 1106 584 c 1,9,-1
 1105 584 l 2,10,11
 1103 584 1103 584 1100 585 c 128,-1,12
 1097 586 1097 586 1096 587 c 0,13,14
 1085 591 1085 591 1077 593 c 128,-1,15
 1069 595 1069 595 1055 600 c 1,16,-1
 1042 600 l 1,17,-1
 1042 521 l 2,18,19
 1042 340 1042 340 861 228 c 1,20,21
 741 155 741 155 668 150 c 1,22,-1
 663 150 l 1,23,24
 682 136 682 136 717.5 114.5 c 128,-1,25
 753 93 753 93 799 66 c 1,26,27
 832 49 832 49 867.5 32 c 128,-1,28
 903 15 903 15 941 -2 c 1,29,-1
 944 -2 l 2,30,31
 946 -2 946 -2 950 -6 c 1,32,-1
 861 -114 l 1,33,34
 833 -101 833 -101 680 -6 c 0,35,36
 648 15 648 15 605.5 47.5 c 128,-1,37
 563 80 563 80 508 126 c 1,38,-1
 499 126 l 1,39,40
 491 124 491 124 477.5 122.5 c 128,-1,41
 464 121 464 121 451 121 c 0,42,43
 352 121 352 121 283 151 c 0,44,45
 190 191 190 191 190 280 c 0,46,47
 190 305 190 305 199 326 c 128,-1,48
 208 347 208 347 223 364 c 1,49,50
 259 400 259 400 304 400 c 0,51,52
 394 400 394 400 478 327 c 0,53,54
 507 301 507 301 524.5 281 c 128,-1,55
 542 261 542 261 545 251 c 1,56,-1
 556 251 l 1,57,58
 890 288 890 288 890 545 c 0,59,60
 890 611 890 611 874 626 c 0,61,62
 858 642 858 642 810 642 c 0,63,64
 793 642 793 642 710 619 c 256,65,66
 627 596 627 596 581 596 c 0,67,68
 516 596 516 596 450.5 637.5 c 128,-1,69
 385 679 385 679 319 755 c 1,70,71
 259 826 259 826 228.5 888 c 128,-1,72
 198 950 198 950 198 1003 c 0,73,74
 198 1132 198 1132 350 1132 c 2,75,-1
 785 1132 l 1,76,-1
 785 1385 l 1,77,-1
 0 1385 l 1,78,-1
 0 1501 l 1,79,-1
 1747 1501 l 1,80,-1
 1747 1385 l 1,0,-1
1350 1385 m 1,81,-1
 936 1385 l 1,82,-1
 936 1011 l 1,83,-1
 382 1011 l 2,84,85
 354 1011 354 1011 354 988 c 0,86,87
 354 964 354 964 379 920 c 128,-1,88
 404 876 404 876 451 816 c 1,89,90
 486 775 486 775 529 750.5 c 128,-1,91
 572 726 572 726 617 726 c 0,92,93
 684 726 684 726 740 748 c 0,94,95
 801 771 801 771 861 771 c 0,96,97
 911 771 911 771 950 744 c 0,98,99
 959 738 959 738 967 733 c 128,-1,100
 975 728 975 728 982 723 c 0,101,102
 995 715 995 715 1004.5 709 c 128,-1,103
 1014 703 1014 703 1020 701 c 1,104,-1
 1021 701 l 1,105,106
 1099 672 1099 672 1172 672 c 0,107,108
 1271 672 1271 672 1350 727 c 1,109,-1
 1350 1385 l 1,81,-1
EndSplineSet
Validated: 1
EndChar

StartChar: l.nya
Encoding: 2334 2334 77
Width: 1659
GlyphClass: 2
Flags: W
LayerCount: 2
Fore
SplineSet
1685 1385 m 1,0,-1
 1442 1385 l 1,1,-1
 1442 0 l 1,2,-1
 1287 0 l 1,3,-1
 1287 624 l 1,4,-1
 1275 624 l 1,5,6
 1263 621 1263 621 1251 620 c 128,-1,7
 1239 619 1239 619 1225 619 c 0,8,9
 1151 619 1151 619 1031 665 c 1,10,-1
 1017 665 l 1,11,12
 1016 567 1016 567 948 444 c 0,13,14
 826 226 826 226 569 226 c 0,15,16
 428 226 428 226 243 321 c 1,17,18
 96 398 96 398 84 421 c 1,19,-1
 181 535 l 1,20,21
 401 340 401 340 569 340 c 0,22,23
 721 340 721 340 800 458 c 1,24,25
 867 555 867 555 867 710 c 0,26,27
 867 1048 867 1048 584 1048 c 0,28,29
 533 1048 533 1048 463 1009 c 0,30,31
 438 996 438 996 421.5 985 c 128,-1,32
 405 974 405 974 397 966 c 1,33,-1
 295 1084 l 1,34,35
 463 1171 463 1171 569 1171 c 0,36,37
 799 1171 799 1171 928 979 c 0,38,39
 982 897 982 897 1011 785 c 1,40,41
 1102 740 1102 740 1156 740 c 0,42,43
 1191 740 1191 740 1224.5 748 c 128,-1,44
 1258 756 1258 756 1287 770 c 1,45,-1
 1287 1385 l 1,46,-1
 0 1385 l 1,47,-1
 0 1501 l 1,48,-1
 1685 1501 l 1,49,-1
 1685 1385 l 1,0,-1
EndSplineSet
Validated: 1
EndChar

StartChar: l.tta
Encoding: 2335 2335 78
Width: 1466
GlyphClass: 2
Flags: W
LayerCount: 2
Fore
SplineSet
1477 1385 m 1,0,-1
 1135 1385 l 1,1,-1
 1135 936 l 1,2,-1
 617 936 l 2,3,4
 508 936 508 936 432 860 c 0,5,6
 355 783 355 783 355 677 c 0,7,8
 355 493 355 493 497 352 c 256,9,10
 639 211 639 211 834 211 c 0,11,12
 1088 211 1088 211 1222 430 c 1,13,-1
 1348 355 l 1,14,15
 1164 84 1164 84 855 84 c 0,16,17
 597 84 597 84 403 263 c 1,18,19
 211 443 211 443 211 687 c 0,20,21
 211 843 211 843 319 953 c 1,22,23
 429 1063 429 1063 584 1063 c 2,24,-1
 987 1063 l 1,25,-1
 987 1385 l 1,26,-1
 0 1385 l 1,27,-1
 0 1501 l 1,28,-1
 1477 1501 l 1,29,-1
 1477 1385 l 1,0,-1
EndSplineSet
Validated: 1
EndChar

StartChar: l.ttha
Encoding: 2336 2336 79
Width: 1466
GlyphClass: 2
Flags: W
LayerCount: 2
Fore
SplineSet
1477 1385 m 1,0,-1
 1126 1385 l 1,1,-1
 1126 951 l 1,2,-1
 584 951 l 2,3,4
 481 951 481 951 415 871 c 0,5,6
 350 791 350 791 350 680 c 0,7,8
 350 488 350 488 498 349 c 1,9,10
 634 217 634 217 795 219 c 1,11,12
 941 222 941 222 1047 310 c 1,13,14
 1156 402 1156 402 1156 535 c 0,15,16
 1156 581 1156 581 1140 627.5 c 128,-1,17
 1124 674 1124 674 1096 717 c 1,18,19
 1077 742 1077 742 1061 760 c 128,-1,20
 1045 778 1045 778 1032 785 c 1,21,-1
 1135 882 l 1,22,23
 1158 867 1158 867 1179.5 845.5 c 128,-1,24
 1201 824 1201 824 1221 795 c 0,25,26
 1300 683 1300 683 1300 529 c 0,27,28
 1300 338 1300 338 1157 221 c 0,29,30
 1014 105 1014 105 795 105 c 0,31,32
 558 105 558 105 380 274 c 0,33,34
 198 447 198 447 198 687 c 0,35,36
 198 865 198 865 319 973 c 1,37,38
 435 1074 435 1074 605 1074 c 2,39,-1
 975 1074 l 1,40,-1
 975 1385 l 1,41,-1
 0 1385 l 1,42,-1
 0 1501 l 1,43,-1
 1477 1501 l 1,44,-1
 1477 1385 l 1,0,-1
EndSplineSet
Validated: 33
EndChar

StartChar: l.dda
Encoding: 2337 2337 80
Width: 1575
GlyphClass: 2
Flags: W
LayerCount: 2
Fore
SplineSet
1598 1385 m 1,0,-1
 1285 1385 l 1,1,-1
 1285 1003 l 1,2,-1
 695 1003 l 2,3,4
 673 1003 673 1003 673 969 c 0,5,6
 673 909 673 909 764 789 c 0,7,8
 856 667 856 667 931 667 c 0,9,10
 940 667 940 667 948.5 668 c 128,-1,11
 957 669 957 669 964 672 c 1,12,13
 1255 753 1255 753 1285 753 c 0,14,15
 1359 753 1359 753 1401 676 c 0,16,17
 1418 643 1418 643 1426.5 604.5 c 128,-1,18
 1435 566 1435 566 1435 521 c 0,19,20
 1435 303 1435 303 1307 175 c 1,21,22
 1185 55 1185 55 987 55 c 0,23,24
 783 55 783 55 562 225 c 0,25,26
 481 288 481 288 405 366.5 c 128,-1,27
 329 445 329 445 254 542 c 0,28,29
 135 698 135 698 135 716 c 1,30,-1
 250 824 l 1,31,32
 249 816 249 816 278.5 769.5 c 128,-1,33
 308 723 308 723 361 648 c 1,34,35
 394 604 394 604 428.5 561.5 c 128,-1,36
 463 519 463 519 498 479 c 128,-1,37
 533 439 533 439 568.5 403.5 c 128,-1,38
 604 368 604 368 637 339 c 0,39,40
 827 174 827 174 987 174 c 0,41,42
 1119 174 1119 174 1202 269 c 0,43,44
 1286 364 1286 364 1285 514 c 0,45,46
 1284 586 1284 586 1265 605 c 0,47,48
 1253 617 1253 617 1210 617 c 0,49,50
 1192 617 1192 617 1089 576 c 256,51,52
 986 535 986 535 930 535 c 0,53,54
 859 535 859 535 787 581 c 128,-1,55
 715 627 715 627 643 718 c 0,56,57
 577 802 577 802 542.5 873.5 c 128,-1,58
 508 945 508 945 508 1003 c 0,59,60
 508 1119 508 1119 663 1119 c 2,61,-1
 1135 1119 l 1,62,-1
 1135 1385 l 1,63,-1
 0 1385 l 1,64,-1
 0 1501 l 1,65,-1
 1598 1501 l 1,66,-1
 1598 1385 l 1,0,-1
EndSplineSet
Validated: 33
EndChar

StartChar: l.ddha
Encoding: 2338 2338 81
Width: 1447
GlyphClass: 2
Flags: W
LayerCount: 2
Fore
SplineSet
1472 1385 m 1,0,-1
 1119 1385 l 1,1,-1
 1119 945 l 1,2,-1
 598 945 l 2,3,4
 491 945 491 945 421 875 c 1,5,6
 346 803 346 803 346 687 c 0,7,8
 346 590 346 590 380 504.5 c 128,-1,9
 414 419 414 419 471 353 c 1,10,11
 492 333 492 333 519 312 c 128,-1,12
 546 291 546 291 576 272 c 128,-1,13
 606 253 606 253 638.5 236 c 128,-1,14
 671 219 671 219 703 207 c 0,15,16
 742 193 742 193 775 184.5 c 128,-1,17
 808 176 808 176 826 174 c 1,18,-1
 832 174 l 1,19,20
 806 189 806 189 772 245 c 1,21,-1
 771 245 l 1,22,23
 716 333 716 333 716 442 c 0,24,25
 716 559 716 559 800 640 c 0,26,27
 885 722 885 722 1003 722 c 0,28,29
 1129 722 1129 722 1215 639 c 0,30,31
 1300 557 1300 557 1300 427 c 0,32,33
 1300 343 1300 343 1263 274 c 128,-1,34
 1226 205 1226 205 1160 154 c 1,35,36
 1100 112 1100 112 1024 89 c 128,-1,37
 948 66 948 66 861 66 c 0,38,39
 610 66 610 66 407 239 c 1,40,41
 195 422 195 422 195 680 c 0,42,43
 195 839 195 839 306 947 c 1,44,45
 415 1050 415 1050 569 1050 c 2,46,-1
 966 1050 l 1,47,-1
 966 1385 l 1,48,-1
 0 1385 l 1,49,-1
 0 1501 l 1,50,-1
 1472 1501 l 1,51,-1
 1472 1385 l 1,0,-1
1156 421 m 0,52,53
 1157 506 1157 506 1117 552 c 128,-1,54
 1077 598 1077 598 1011 598 c 0,55,56
 943 598 943 598 895 549 c 1,57,58
 848 499 848 499 848 427 c 0,59,60
 848 338 848 338 882.5 280 c 128,-1,61
 917 222 917 222 981 195 c 1,62,-1
 986 195 l 1,63,64
 1006 198 1006 198 1026 207 c 128,-1,65
 1046 216 1046 216 1069 230 c 1,66,-1
 1070 230 l 1,67,68
 1110 261 1110 261 1132.5 309 c 128,-1,69
 1155 357 1155 357 1156 421 c 0,52,53
EndSplineSet
Validated: 33
EndChar

StartChar: l.nna
Encoding: 2339 2339 82
Width: 1659
GlyphClass: 2
Flags: W
LayerCount: 2
Fore
SplineSet
1685 1385 m 1,0,-1
 1442 1385 l 1,1,-1
 1442 0 l 1,2,-1
 1287 0 l 1,3,-1
 1287 1385 l 1,4,-1
 960 1385 l 1,5,-1
 960 831 l 2,6,7
 960 674 960 674 877 576 c 0,8,9
 785 469 785 469 617 469 c 0,10,11
 450 469 450 469 351 571 c 0,12,13
 256 669 256 669 256 822 c 2,14,-1
 256 1385 l 1,15,-1
 0 1385 l 1,16,-1
 0 1501 l 1,17,-1
 1685 1501 l 1,18,-1
 1685 1385 l 1,0,-1
810 1385 m 1,19,-1
 406 1385 l 1,20,-1
 406 822 l 2,21,22
 406 771 406 771 419 728.5 c 128,-1,23
 432 686 432 686 454 652 c 1,24,25
 480 620 480 620 520 600.5 c 128,-1,26
 560 581 560 581 608 581 c 0,27,28
 810 581 810 581 810 831 c 2,29,-1
 810 1385 l 1,19,-1
EndSplineSet
Validated: 1
EndChar

StartChar: l.ta
Encoding: 2340 2340 83
Width: 1447
GlyphClass: 2
Flags: W
LayerCount: 2
Fore
SplineSet
1467 1385 m 1,0,-1
 1223 1385 l 1,1,-1
 1223 0 l 1,2,-1
 1070 0 l 1,3,-1
 1070 942 l 1,4,-1
 521 942 l 2,5,6
 316 942 316 942 316 779 c 0,7,8
 316 629 316 629 419 459 c 0,9,10
 457 398 457 398 505.5 336.5 c 128,-1,11
 554 275 554 275 613 216 c 1,12,13
 711 121 711 121 722 121 c 1,14,-1
 626 21 l 1,15,16
 609 21 609 21 503 127 c 1,17,18
 435 193 435 193 381 262 c 128,-1,19
 327 331 327 331 285 398 c 0,20,21
 228 491 228 491 198.5 584 c 128,-1,22
 169 677 169 677 169 764 c 0,23,24
 169 902 169 902 249 979 c 0,25,26
 323 1050 323 1050 448 1050 c 2,27,-1
 1070 1050 l 1,28,-1
 1070 1385 l 1,29,-1
 0 1385 l 1,30,-1
 0 1501 l 1,31,-1
 1467 1501 l 1,32,-1
 1467 1385 l 1,0,-1
EndSplineSet
Validated: 1
EndChar

StartChar: l.tha
Encoding: 2341 2341 84
Width: 1575
GlyphClass: 2
Flags: W
LayerCount: 2
Fore
SplineSet
1592 1385 m 1,0,-1
 1348 1385 l 1,1,-1
 1348 0 l 1,2,-1
 1194 0 l 1,3,-1
 1194 494 l 1,4,-1
 1177 494 l 1,5,6
 981 304 981 304 698 304 c 0,7,8
 593 304 593 304 494 338 c 128,-1,9
 395 372 395 372 314 434 c 0,10,11
 287 455 287 455 258.5 483 c 128,-1,12
 230 511 230 511 204 543.5 c 128,-1,13
 178 576 178 576 155 610 c 128,-1,14
 132 644 132 644 114 676 c 0,15,16
 87 727 87 727 72 761 c 128,-1,17
 57 795 57 795 57 809 c 1,18,19
 123 786 123 786 182.5 775 c 128,-1,20
 242 764 242 764 298 764 c 0,21,22
 456 764 456 764 574 861 c 1,23,24
 698 965 698 965 698 1116 c 0,25,26
 698 1233 698 1233 618 1319 c 0,27,28
 538 1406 538 1406 427 1406 c 0,29,30
 384 1406 384 1406 349.5 1394 c 128,-1,31
 315 1382 315 1382 290.5 1360.5 c 128,-1,32
 266 1339 266 1339 253 1308 c 128,-1,33
 240 1277 240 1277 240 1240 c 0,34,35
 240 1207 240 1207 256.5 1178 c 128,-1,36
 273 1149 273 1149 302 1126 c 1,37,38
 353 1092 353 1092 402 1092 c 0,39,40
 412 1092 412 1092 418.5 1092.5 c 128,-1,41
 425 1093 425 1093 434 1095 c 1,42,-1
 434 990 l 1,43,44
 90 990 90 990 90 1246 c 0,45,46
 90 1316 90 1316 119.5 1370.5 c 128,-1,47
 149 1425 149 1425 204 1463 c 1,48,49
 252 1492 252 1492 310 1509 c 128,-1,50
 368 1526 368 1526 434 1526 c 0,51,52
 621 1526 621 1526 736 1405 c 0,53,54
 793 1345 793 1345 820 1274 c 128,-1,55
 847 1203 847 1203 848 1116 c 0,56,57
 849 993 849 993 799.5 898.5 c 128,-1,58
 750 804 750 804 661 739 c 1,59,60
 592 693 592 693 517 669 c 128,-1,61
 442 645 442 645 360 645 c 0,62,63
 326 645 326 645 309 649 c 1,64,-1
 298 649 l 1,65,66
 308 632 308 632 335.5 606.5 c 128,-1,67
 363 581 363 581 401 554 c 1,68,69
 469 509 469 509 546.5 484 c 128,-1,70
 624 459 624 459 708 459 c 0,71,72
 1012 459 1012 459 1192 711 c 1,73,-1
 1194 711 l 1,74,-1
 1194 1385 l 1,75,-1
 936 1385 l 1,76,-1
 936 1501 l 1,77,-1
 1592 1501 l 1,78,-1
 1592 1385 l 1,0,-1
EndSplineSet
Validated: 33
EndChar

StartChar: l.da
Encoding: 2342 2342 85
Width: 1456
GlyphClass: 2
Flags: W
LayerCount: 2
Fore
SplineSet
1472 1385 m 1,0,-1
 1147 1385 l 1,1,-1
 1147 990 l 1,2,-1
 587 990 l 2,3,4
 482 990 482 990 421 930 c 0,5,6
 392 901 392 901 378.5 859.5 c 128,-1,7
 365 818 365 818 367 771 c 1,8,9
 378 688 378 688 410.5 620.5 c 128,-1,10
 443 553 443 553 496 505 c 128,-1,11
 549 457 549 457 623.5 431 c 128,-1,12
 698 405 698 405 793 405 c 0,13,14
 823 405 823 405 852 407.5 c 128,-1,15
 881 410 881 410 907 415 c 1,16,17
 895 458 895 458 895 504 c 0,18,19
 895 663 895 663 1050 663 c 0,20,21
 1113 663 1113 663 1152 616 c 1,22,-1
 1153 616 l 1,23,24
 1195 571 1195 571 1195 506 c 0,25,26
 1195 421 1195 421 1137 357 c 0,27,28
 1094 311 1094 311 1075 310 c 1,29,-1
 1074 310 l 1,30,31
 1074 295 1074 295 1092 255 c 128,-1,32
 1110 215 1110 215 1143 156 c 0,33,34
 1173 102 1173 102 1205 48.5 c 128,-1,35
 1237 -5 1237 -5 1267 -55 c 1,36,-1
 1080 -55 l 1,37,38
 1080 -50 1080 -50 1061.5 -7 c 128,-1,39
 1043 36 1043 36 1014 100 c 0,40,41
 994 144 994 144 975.5 189.5 c 128,-1,42
 957 235 957 235 945 270 c 1,43,-1
 935 270 l 1,44,45
 916 268 916 268 894 267 c 128,-1,46
 872 266 872 266 848 266 c 0,47,48
 628 266 628 266 470 349 c 0,49,50
 351 411 351 411 287 517.5 c 128,-1,51
 223 624 223 624 211 771 c 1,52,53
 207 841 207 841 229 902.5 c 128,-1,54
 251 964 251 964 299 1014 c 0,55,56
 396 1116 396 1116 539 1116 c 2,57,-1
 984 1116 l 1,58,-1
 984 1385 l 1,59,-1
 0 1385 l 1,60,-1
 0 1501 l 1,61,-1
 1472 1501 l 1,62,-1
 1472 1385 l 1,0,-1
EndSplineSet
Validated: 33
EndChar

StartChar: l.dha
Encoding: 2343 2343 86
Width: 1415
GlyphClass: 2
Flags: W
LayerCount: 2
Fore
SplineSet
1435 1385 m 1,0,-1
 1192 1385 l 1,1,-1
 1192 0 l 1,2,-1
 1038 0 l 1,3,-1
 1038 470 l 1,4,-1
 1021 470 l 1,5,6
 995 444 995 444 963 419 c 128,-1,7
 931 394 931 394 894 371 c 0,8,9
 741 280 741 280 560 280 c 0,10,11
 482 280 482 280 411.5 303.5 c 128,-1,12
 341 327 341 327 283 370 c 1,13,14
 228 416 228 416 195.5 475 c 128,-1,15
 163 534 163 534 163 602 c 0,16,17
 163 713 163 713 234 800 c 0,18,19
 256 826 256 826 274 841.5 c 128,-1,20
 292 857 292 857 309 867 c 1,21,-1
 310 867 l 1,22,23
 60 1034 60 1034 60 1237 c 0,24,25
 60 1532 60 1532 361 1532 c 0,26,27
 472 1532 472 1532 550 1469 c 0,28,29
 632 1404 632 1404 632 1300 c 2,30,-1
 632 1210 l 1,31,-1
 503 1210 l 1,32,-1
 503 1300 l 2,33,34
 503 1421 503 1421 367 1421 c 0,35,36
 298 1421 298 1421 256 1373 c 128,-1,37
 214 1325 214 1325 214 1240 c 0,38,39
 214 1030 214 1030 405 929 c 1,40,-1
 414 929 l 1,41,42
 457 948 457 948 513.5 958.5 c 128,-1,43
 570 969 570 969 638 969 c 0,44,45
 645 969 645 969 716 963 c 1,46,-1
 785 845 l 2,47,48
 786 845 786 845 774.5 846.5 c 128,-1,49
 763 848 763 848 740 850 c 256,50,51
 717 852 717 852 698 853.5 c 128,-1,52
 679 855 679 855 663 855 c 0,53,54
 525 855 525 855 428 795 c 0,55,56
 319 727 319 727 319 608 c 0,57,58
 319 510 319 510 392 451 c 1,59,60
 461 397 461 397 563 397 c 0,61,62
 730 397 730 397 884 512 c 0,63,64
 984 586 984 586 1036 665 c 1,65,-1
 1038 665 l 1,66,-1
 1038 1385 l 1,67,-1
 740 1385 l 1,68,-1
 740 1501 l 1,69,-1
 1435 1501 l 1,70,-1
 1435 1385 l 1,0,-1
EndSplineSet
Validated: 5
EndChar

StartChar: l.na
Encoding: 2344 2344 87
Width: 1422
GlyphClass: 2
Flags: W
LayerCount: 2
Fore
SplineSet
1435 1385 m 1,0,-1
 1192 1385 l 1,1,-1
 1192 0 l 1,2,-1
 1038 0 l 1,3,-1
 1038 876 l 1,4,-1
 539 876 l 1,5,-1
 539 602 l 1,6,7
 528 566 528 566 476 566 c 0,8,9
 434 566 434 566 304 710 c 0,10,11
 174 855 174 855 174 900 c 0,12,13
 174 996 174 996 286 996 c 2,14,-1
 1038 996 l 1,15,-1
 1038 1385 l 1,16,-1
 0 1385 l 1,17,-1
 0 1501 l 1,18,-1
 1435 1501 l 1,19,-1
 1435 1385 l 1,0,-1
EndSplineSet
Validated: 1
EndChar

StartChar: l.nnna
Encoding: 2345 2345 88
Width: 1422
GlyphClass: 2
Flags: W
LayerCount: 2
Fore
SplineSet
1435 1385 m 1,0,-1
 1192 1385 l 1,1,-1
 1192 0 l 1,2,-1
 1038 0 l 1,3,-1
 1038 876 l 1,4,-1
 539 876 l 1,5,-1
 539 602 l 1,6,7
 528 566 528 566 476 566 c 0,8,9
 434 566 434 566 304 710 c 0,10,11
 174 855 174 855 174 900 c 0,12,13
 174 996 174 996 286 996 c 2,14,-1
 1038 996 l 1,15,-1
 1038 1385 l 1,16,-1
 0 1385 l 1,17,-1
 0 1501 l 1,18,-1
 1435 1501 l 1,19,-1
 1435 1385 l 1,0,-1
496 31 m 1,20,-1
 282 31 l 1,21,-1
 282 206 l 1,22,-1
 496 206 l 1,23,-1
 496 31 l 1,20,-1
EndSplineSet
Validated: 1
Ligature2: "'nukt' Nukta Forms in Devanagari lookup 0 subtable" l.na s.nukta
EndChar

StartChar: l.pa
Encoding: 2346 2346 89
Width: 1284
GlyphClass: 2
Flags: W
LayerCount: 2
Fore
SplineSet
1310 1385 m 1,0,-1
 1067 1385 l 1,1,-1
 1067 0 l 1,2,-1
 913 0 l 1,3,-1
 913 564 l 1,4,-1
 897 564 l 1,5,6
 834 519 834 519 771 499 c 128,-1,7
 708 479 708 479 642 479 c 0,8,9
 446 479 446 479 334 596 c 0,10,11
 229 707 229 707 229 882 c 2,12,-1
 229 1385 l 1,13,-1
 0 1385 l 1,14,-1
 0 1501 l 1,15,-1
 1310 1501 l 1,16,-1
 1310 1385 l 1,0,-1
913 1385 m 1,17,-1
 382 1385 l 1,18,-1
 382 855 l 2,19,20
 382 724 382 724 459 653 c 0,21,22
 526 590 526 590 638 590 c 0,23,24
 781 590 781 590 911 756 c 1,25,-1
 913 756 l 1,26,-1
 913 1385 l 1,17,-1
EndSplineSet
Validated: 1
EndChar

StartChar: l.pha
Encoding: 2347 2347 90
Width: 1843
GlyphClass: 2
Flags: W
AnchorPoint: "Anchor-0" 1048 1499 basechar 0
LayerCount: 2
Fore
SplineSet
1872 1385 m 1,0,-1
 1021 1385 l 1,1,-1
 1021 971 l 1,2,-1
 1038 971 l 1,3,4
 1152 1090 1152 1090 1291 1090 c 0,5,6
 1450 1090 1450 1090 1562 984 c 256,7,8
 1674 878 1674 878 1677 722 c 0,9,10
 1678 658 1678 658 1659 592 c 128,-1,11
 1640 526 1640 526 1604 458 c 0,12,13
 1578 410 1578 410 1542 361.5 c 128,-1,14
 1506 313 1506 313 1464 269 c 1,15,16
 1430 235 1430 235 1410 216 c 128,-1,17
 1390 197 1390 197 1382 195 c 1,18,-1
 1255 289 l 1,19,20
 1520 463 1520 463 1520 737 c 0,21,22
 1520 838 1520 838 1465 899 c 1,23,24
 1407 966 1407 966 1297 966 c 0,25,26
 1196 966 1196 966 1099 845 c 0,27,28
 1021 749 1021 749 1021 722 c 2,29,-1
 1021 0 l 1,30,-1
 869 0 l 1,31,-1
 869 568 l 1,32,-1
 852 568 l 1,33,34
 797 520 797 520 732.5 498 c 128,-1,35
 668 476 668 476 590 476 c 0,36,37
 412 476 412 476 310 586 c 0,38,39
 214 691 214 691 214 855 c 2,40,-1
 214 1385 l 1,41,-1
 0 1385 l 1,42,-1
 0 1501 l 1,43,-1
 1872 1501 l 1,44,-1
 1872 1385 l 1,0,-1
869 1385 m 1,45,-1
 367 1385 l 1,46,-1
 367 831 l 2,47,48
 367 590 367 590 581 590 c 0,49,50
 641 590 641 590 694 611 c 128,-1,51
 747 632 747 632 792 670 c 1,52,53
 827 705 827 705 848 743 c 128,-1,54
 869 781 869 781 869 816 c 2,55,-1
 869 1385 l 1,45,-1
EndSplineSet
Validated: 33
EndChar

StartChar: l.ba
Encoding: 2348 2348 91
Width: 1284
GlyphClass: 2
Flags: W
LayerCount: 2
Fore
SplineSet
807 981 m 2,0,1
 805 981 805 981 803.5 981.5 c 128,-1,2
 802 982 802 982 799 983 c 1,3,4
 800 981 800 981 800 981 c 1,5,-1
 807 981 l 2,0,1
1310 1385 m 1,6,-1
 1067 1385 l 1,7,-1
 1067 0 l 1,8,-1
 913 0 l 1,9,-1
 913 404 l 1,10,-1
 897 404 l 1,11,12
 834 359 834 359 765 337.5 c 128,-1,13
 696 316 696 316 617 316 c 0,14,15
 431 316 431 316 297 429 c 1,16,17
 160 548 160 548 160 726 c 0,18,19
 160 910 160 910 291 1029 c 1,20,21
 415 1140 415 1140 598 1140 c 0,22,23
 641 1140 641 1140 709 1125 c 0,24,25
 776 1111 776 1111 774 1111 c 1,26,27
 777 1094 777 1094 780 1078.5 c 128,-1,28
 783 1063 783 1063 787 1046 c 0,29,30
 793 1013 793 1013 799 983 c 1,31,32
 791 985 791 985 777 988.5 c 128,-1,33
 763 992 763 992 741 999 c 0,34,35
 675 1017 675 1017 617 1017 c 0,36,37
 468 1017 468 1017 399 942 c 1,38,-1
 400 942 l 1,39,40
 464 898 464 898 525 857 c 128,-1,41
 586 816 586 816 648 774 c 0,42,43
 709 732 709 732 770.5 690.5 c 128,-1,44
 832 649 832 649 897 606 c 1,45,-1
 913 606 l 1,46,-1
 913 1385 l 1,47,-1
 0 1385 l 1,48,-1
 0 1501 l 1,49,-1
 1310 1501 l 1,50,-1
 1310 1385 l 1,6,-1
346 862 m 1,51,-1
 332 862 l 1,52,53
 317 835 317 835 310.5 802.5 c 128,-1,54
 304 770 304 770 304 732 c 0,55,56
 304 594 304 594 399 510 c 1,57,-1
 400 510 l 1,58,59
 445 472 445 472 504 451 c 128,-1,60
 563 430 563 430 632 430 c 0,61,62
 709 430 709 430 789 477 c 0,63,64
 818 493 818 493 834 505.5 c 128,-1,65
 850 518 850 518 857 527 c 1,66,-1
 855 527 l 1,67,-1
 346 862 l 1,51,-1
EndSplineSet
Validated: 37
EndChar

StartChar: l.bha
Encoding: 2349 2349 92
Width: 1453
GlyphClass: 2
Flags: W
LayerCount: 2
Fore
SplineSet
1498 1385 m 1,0,-1
 1254 1385 l 1,1,-1
 1254 0 l 1,2,-1
 1100 0 l 1,3,-1
 1100 687 l 1,4,-1
 650 687 l 1,5,-1
 650 469 l 2,6,7
 650 392 650 392 590 392 c 0,8,9
 544 392 544 392 394 544 c 0,10,11
 244 697 244 697 244 747 c 0,12,13
 244 761 244 761 253 773.5 c 128,-1,14
 262 786 262 786 277 797 c 0,15,16
 305 816 305 816 319 816 c 2,17,-1
 500 816 l 1,18,-1
 500 1291 l 2,19,20
 500 1427 500 1427 350 1427 c 0,21,22
 288 1427 288 1427 251 1386 c 128,-1,23
 214 1345 214 1345 214 1276 c 0,24,25
 214 1201 214 1201 259 1126 c 1,26,-1
 124 1126 l 1,27,28
 124 1121 124 1121 101 1174 c 1,29,30
 79 1229 79 1229 79 1273 c 0,31,32
 79 1340 79 1340 101 1392 c 128,-1,33
 123 1444 123 1444 165 1479 c 1,34,35
 202 1508 202 1508 251.5 1524.5 c 128,-1,36
 301 1541 301 1541 361 1541 c 0,37,38
 483 1541 483 1541 566 1468 c 1,39,40
 606 1431 606 1431 628 1384.5 c 128,-1,41
 650 1338 650 1338 650 1282 c 2,42,-1
 650 816 l 1,43,-1
 1100 816 l 1,44,-1
 1100 1385 l 1,45,-1
 779 1385 l 1,46,-1
 779 1501 l 1,47,-1
 1498 1501 l 1,48,-1
 1498 1385 l 1,0,-1
EndSplineSet
Validated: 1
EndChar

StartChar: l.ma
Encoding: 2350 2350 93
Width: 1409
GlyphClass: 2
Flags: W
LayerCount: 2
Fore
SplineSet
1435 1385 m 1,0,-1
 1192 1385 l 1,1,-1
 1192 0 l 1,2,-1
 1038 0 l 1,3,-1
 1038 734 l 1,4,-1
 524 734 l 1,5,-1
 524 527 l 2,6,7
 524 461 524 461 463 461 c 0,8,9
 405 461 405 461 278 596 c 0,10,11
 150 733 150 733 150 785 c 0,12,13
 150 861 150 861 235 861 c 2,14,-1
 367 861 l 1,15,-1
 367 1385 l 1,16,-1
 0 1385 l 1,17,-1
 0 1501 l 1,18,-1
 1435 1501 l 1,19,-1
 1435 1385 l 1,0,-1
1038 1385 m 1,20,-1
 524 1385 l 1,21,-1
 524 861 l 1,22,-1
 1038 861 l 1,23,-1
 1038 1385 l 1,20,-1
EndSplineSet
Validated: 1
EndChar

StartChar: l.ya
Encoding: 2351 2351 94
Width: 1469
GlyphClass: 2
Flags: W
LayerCount: 2
Fore
SplineSet
202 861 m 1,0,1
 203 860 203 860 205 860 c 1,2,-1
 205 861 l 1,3,-1
 202 861 l 1,0,1
1498 1385 m 1,4,-1
 1254 1385 l 1,5,-1
 1254 0 l 1,6,-1
 1100 0 l 1,7,-1
 1100 427 l 1,8,-1
 1084 427 l 1,9,10
 899 280 899 280 730 280 c 0,11,12
 412 280 412 280 276 566 c 0,13,14
 205 717 205 717 205 860 c 1,15,16
 206 859 206 859 209 859 c 0,17,18
 215 857 215 857 222.5 854.5 c 128,-1,19
 230 852 230 852 242 850 c 1,20,21
 276 840 276 840 304 840 c 0,22,23
 560 840 560 840 560 1090 c 0,24,25
 560 1158 560 1158 522.5 1233 c 128,-1,26
 485 1308 485 1308 417 1385 c 1,27,-1
 0 1385 l 1,28,-1
 0 1501 l 1,29,-1
 1498 1501 l 1,30,-1
 1498 1385 l 1,4,-1
1100 1385 m 1,31,-1
 597 1385 l 1,32,33
 605 1380 605 1380 621.5 1354 c 128,-1,34
 638 1328 638 1328 659 1283 c 0,35,36
 685 1227 685 1227 700.5 1175 c 128,-1,37
 716 1123 716 1123 716 1080 c 0,38,39
 716 881 716 881 549 784 c 0,40,41
 454 729 454 729 386 726 c 1,42,-1
 376 726 l 1,43,44
 378 698 378 698 394.5 658 c 128,-1,45
 411 618 411 618 440 574 c 1,46,47
 492 503 492 503 567 465 c 128,-1,48
 642 427 642 427 737 427 c 0,49,50
 967 427 967 427 1098 631 c 1,51,-1
 1100 631 l 1,52,-1
 1100 1385 l 1,31,-1
EndSplineSet
Validated: 5
EndChar

StartChar: l.ra
Encoding: 2352 2352 95
Width: 1157
GlyphClass: 2
Flags: W
LayerCount: 2
Fore
SplineSet
1192 1385 m 1,0,-1
 900 1385 l 1,1,-1
 900 1003 l 2,2,3
 900 837 900 837 753 764 c 1,4,-1
 752 764 l 1,5,6
 667 721 667 721 579 721 c 0,7,8
 532 721 532 721 498 731 c 1,9,-1
 486 731 l 1,10,11
 532 643 532 643 692 437 c 1,12,13
 758 349 758 349 876 222 c 0,14,15
 930 163 930 163 957.5 134 c 128,-1,16
 985 105 985 105 986 104 c 1,17,-1
 876 1 l 1,18,19
 868 11 868 11 862 16.5 c 128,-1,20
 856 22 856 22 847 32 c 0,21,22
 815 67 815 67 784 102.5 c 128,-1,23
 753 138 753 138 723 173 c 0,24,25
 638 270 638 270 566 364 c 128,-1,26
 494 458 494 458 437 539 c 0,27,28
 338 681 338 681 264 800.5 c 128,-1,29
 190 920 190 920 142 1017 c 1,30,-1
 259 1105 l 1,31,-1
 376 900 l 1,32,33
 391 876 391 876 443 853 c 0,34,35
 493 831 493 831 545 831 c 0,36,37
 747 831 747 831 747 1017 c 2,38,-1
 747 1385 l 1,39,-1
 0 1385 l 1,40,-1
 0 1501 l 1,41,-1
 1192 1501 l 1,42,-1
 1192 1385 l 1,0,-1
EndSplineSet
Validated: 1
EndChar

StartChar: l.rra
Encoding: 2353 2353 96
Width: 1157
GlyphClass: 2
Flags: W
LayerCount: 2
Fore
SplineSet
1192 1385 m 1,0,-1
 900 1385 l 1,1,-1
 900 1003 l 2,2,3
 900 837 900 837 753 764 c 1,4,-1
 752 764 l 1,5,6
 667 721 667 721 579 721 c 0,7,8
 532 721 532 721 498 731 c 1,9,-1
 486 731 l 1,10,11
 532 643 532 643 692 437 c 1,12,13
 758 349 758 349 876 222 c 0,14,15
 930 163 930 163 957.5 134 c 128,-1,16
 985 105 985 105 986 104 c 1,17,-1
 876 1 l 1,18,19
 868 11 868 11 862 16.5 c 128,-1,20
 856 22 856 22 847 32 c 0,21,22
 815 67 815 67 784 102.5 c 128,-1,23
 753 138 753 138 723 173 c 0,24,25
 638 270 638 270 566 364 c 128,-1,26
 494 458 494 458 437 539 c 0,27,28
 338 681 338 681 264 800.5 c 128,-1,29
 190 920 190 920 142 1017 c 1,30,-1
 259 1105 l 1,31,-1
 376 900 l 1,32,33
 391 876 391 876 443 853 c 0,34,35
 493 831 493 831 545 831 c 0,36,37
 747 831 747 831 747 1017 c 2,38,-1
 747 1385 l 1,39,-1
 0 1385 l 1,40,-1
 0 1501 l 1,41,-1
 1192 1501 l 1,42,-1
 1192 1385 l 1,0,-1
464 31 m 1,43,-1
 251 31 l 1,44,-1
 251 206 l 1,45,-1
 464 206 l 1,46,-1
 464 31 l 1,43,-1
EndSplineSet
Validated: 1
EndChar

StartChar: l.la
Encoding: 2354 2354 97
Width: 1715
GlyphClass: 2
Flags: W
LayerCount: 2
Fore
SplineSet
1747 1385 m 1,0,-1
 1504 1385 l 1,1,-1
 1504 0 l 1,2,-1
 1350 0 l 1,3,-1
 1350 874 l 1,4,-1
 1337 874 l 1,5,6
 1227 843 1227 843 1140 755 c 0,7,8
 1107 722 1107 722 1077.5 680 c 128,-1,9
 1048 638 1048 638 1023 587 c 1,10,11
 985 513 985 513 981 484 c 1,12,-1
 855 551 l 1,13,14
 855 571 855 571 897 663 c 1,15,-1
 906 678 l 2,16,17
 908 682 908 682 909.5 685.5 c 128,-1,18
 911 689 911 689 914 694 c 1,19,-1
 915 694 l 1,20,21
 918 699 918 699 920.5 704.5 c 128,-1,22
 923 710 923 710 927 716 c 0,23,24
 933 726 933 726 939.5 735.5 c 128,-1,25
 946 745 946 745 951 755 c 1,26,27
 943 771 943 771 922 792.5 c 128,-1,28
 901 814 901 814 866 840 c 0,29,30
 764 915 764 915 650 915 c 0,31,32
 525 915 525 915 447 840 c 1,33,34
 367 760 367 760 367 632 c 0,35,36
 367 488 367 488 495 354 c 0,37,38
 540 306 540 306 598.5 262.5 c 128,-1,39
 657 219 657 219 731 181 c 1,40,41
 840 121 840 121 861 121 c 1,42,-1
 789 -9 l 1,43,44
 761 -9 761 -9 634 66 c 0,45,46
 471 162 471 162 363 287 c 0,47,48
 219 455 219 455 219 642 c 0,49,50
 219 831 219 831 336 938 c 1,51,52
 452 1042 452 1042 647 1042 c 0,53,54
 718 1042 718 1042 788 1018 c 128,-1,55
 858 994 858 994 923 951 c 0,56,57
 957 928 957 928 983.5 905 c 128,-1,58
 1010 882 1010 882 1026 863 c 1,59,-1
 1040 863 l 1,60,61
 1063 880 1063 880 1096.5 904 c 128,-1,62
 1130 928 1130 928 1177 958 c 1,63,64
 1212 975 1212 975 1257.5 988.5 c 128,-1,65
 1303 1002 1303 1002 1350 1011 c 1,66,-1
 1350 1385 l 1,67,-1
 0 1385 l 1,68,-1
 0 1501 l 1,69,-1
 1747 1501 l 1,70,-1
 1747 1385 l 1,0,-1
EndSplineSet
Validated: 1
EndChar

StartChar: l.lla
Encoding: 2355 2355 98
Width: 1718
GlyphClass: 2
Flags: W
LayerCount: 2
Fore
SplineSet
1743 1385 m 1,0,-1
 1330 1385 l 1,1,-1
 1330 1080 l 1,2,-1
 1336 1080 l 1,3,4
 1345 1078 1345 1078 1361.5 1068.5 c 128,-1,5
 1378 1059 1378 1059 1402 1045 c 1,6,7
 1482 991 1482 991 1532 911 c 1,8,9
 1565 854 1565 854 1583 786 c 128,-1,10
 1601 718 1601 718 1601 642 c 0,11,12
 1601 453 1601 453 1510 325 c 1,13,14
 1406 181 1406 181 1225 181 c 0,15,16
 984 181 984 181 895 402 c 1,17,-1
 877 402 l 1,18,19
 860 354 860 354 829 312 c 128,-1,20
 798 270 798 270 759 238 c 1,21,22
 666 166 666 166 545 166 c 0,23,24
 377 166 377 166 269 314 c 0,25,26
 169 451 169 451 169 635 c 0,27,28
 169 724 169 724 196 801 c 128,-1,29
 223 878 223 878 275 941 c 1,30,31
 330 1005 330 1005 400.5 1039.5 c 128,-1,32
 471 1074 471 1074 553 1074 c 0,33,34
 779 1074 779 1074 880 868 c 1,35,-1
 898 868 l 1,36,37
 903 876 903 876 908.5 886 c 128,-1,38
 914 896 914 896 924 912 c 0,39,40
 926 914 926 914 927 917 c 128,-1,41
 928 920 928 920 930 922 c 0,42,43
 983 998 983 998 1026 1026 c 0,44,45
 1106 1076 1106 1076 1180 1080 c 1,46,-1
 1180 1385 l 1,47,-1
 0 1385 l 1,48,-1
 0 1501 l 1,49,-1
 1743 1501 l 1,50,-1
 1743 1385 l 1,0,-1
1442 635 m 0,51,52
 1442 960 1442 960 1216 960 c 0,53,54
 1158 960 1158 960 1107 918 c 128,-1,55
 1056 876 1056 876 1015 804 c 1,56,57
 989 750 989 750 972.5 703.5 c 128,-1,58
 956 657 956 657 960 635 c 1,59,60
 958 625 958 625 962 600 c 128,-1,61
 966 575 966 575 975 541 c 0,62,63
 987 496 987 496 1008.5 453 c 128,-1,64
 1030 410 1030 410 1054 380 c 1,65,66
 1090 341 1090 341 1137 318 c 128,-1,67
 1184 295 1184 295 1237 295 c 0,68,69
 1442 295 1442 295 1442 635 c 0,51,52
824 635 m 0,70,71
 824 664 824 664 811 705.5 c 128,-1,72
 798 747 798 747 773 799 c 1,73,74
 733 875 733 875 677 916.5 c 128,-1,75
 621 958 621 958 551 958 c 0,76,77
 445 958 445 958 385 859 c 0,78,79
 331 769 331 769 331 632 c 0,80,81
 331 286 331 286 551 286 c 0,82,83
 620 286 620 286 676.5 332 c 128,-1,84
 733 378 733 378 773 459 c 1,85,86
 796 513 796 513 810 558.5 c 128,-1,87
 824 604 824 604 824 635 c 0,70,71
EndSplineSet
Validated: 33
EndChar

StartChar: l.llla
Encoding: 2356 2356 99
Width: 1718
GlyphClass: 2
Flags: W
LayerCount: 2
Fore
SplineSet
1743 1385 m 1,0,-1
 1330 1385 l 1,1,-1
 1330 1080 l 1,2,-1
 1336 1080 l 1,3,4
 1345 1078 1345 1078 1361.5 1068.5 c 128,-1,5
 1378 1059 1378 1059 1402 1045 c 1,6,7
 1482 991 1482 991 1532 911 c 1,8,9
 1565 854 1565 854 1583 786 c 128,-1,10
 1601 718 1601 718 1601 642 c 0,11,12
 1601 453 1601 453 1510 325 c 1,13,14
 1406 181 1406 181 1225 181 c 0,15,16
 984 181 984 181 895 402 c 1,17,-1
 877 402 l 1,18,19
 860 354 860 354 829 312 c 128,-1,20
 798 270 798 270 759 238 c 1,21,22
 666 166 666 166 545 166 c 0,23,24
 377 166 377 166 269 314 c 0,25,26
 169 451 169 451 169 635 c 0,27,28
 169 724 169 724 196 801 c 128,-1,29
 223 878 223 878 275 941 c 1,30,31
 330 1005 330 1005 400.5 1039.5 c 128,-1,32
 471 1074 471 1074 553 1074 c 0,33,34
 779 1074 779 1074 880 868 c 1,35,-1
 898 868 l 1,36,37
 903 876 903 876 908.5 886 c 128,-1,38
 914 896 914 896 924 912 c 0,39,40
 926 914 926 914 927 917 c 128,-1,41
 928 920 928 920 930 922 c 0,42,43
 983 998 983 998 1026 1026 c 0,44,45
 1106 1076 1106 1076 1180 1080 c 1,46,-1
 1180 1385 l 1,47,-1
 0 1385 l 1,48,-1
 0 1501 l 1,49,-1
 1743 1501 l 1,50,-1
 1743 1385 l 1,0,-1
1442 635 m 0,51,52
 1442 960 1442 960 1216 960 c 0,53,54
 1158 960 1158 960 1107 918 c 128,-1,55
 1056 876 1056 876 1015 804 c 1,56,57
 989 750 989 750 972.5 703.5 c 128,-1,58
 956 657 956 657 960 635 c 1,59,60
 958 625 958 625 962 600 c 128,-1,61
 966 575 966 575 975 541 c 0,62,63
 987 496 987 496 1008.5 453 c 128,-1,64
 1030 410 1030 410 1054 380 c 1,65,66
 1090 341 1090 341 1137 318 c 128,-1,67
 1184 295 1184 295 1237 295 c 0,68,69
 1442 295 1442 295 1442 635 c 0,51,52
824 635 m 0,70,71
 824 664 824 664 811 705.5 c 128,-1,72
 798 747 798 747 773 799 c 1,73,74
 733 875 733 875 677 916.5 c 128,-1,75
 621 958 621 958 551 958 c 0,76,77
 445 958 445 958 385 859 c 0,78,79
 331 769 331 769 331 632 c 0,80,81
 331 286 331 286 551 286 c 0,82,83
 620 286 620 286 676.5 332 c 128,-1,84
 733 378 733 378 773 459 c 1,85,86
 796 513 796 513 810 558.5 c 128,-1,87
 824 604 824 604 824 635 c 0,70,71
1026 -187 m 1,88,-1
 812 -187 l 1,89,-1
 812 -13 l 1,90,-1
 1026 -13 l 1,91,-1
 1026 -187 l 1,88,-1
EndSplineSet
Validated: 33
Ligature2: "'nukt' Nukta Forms in Devanagari lookup 0 subtable" l.lla s.nukta
EndChar

StartChar: l.va
Encoding: 2357 2357 100
Width: 1319
GlyphClass: 2
Flags: W
LayerCount: 2
Fore
SplineSet
1342 1385 m 1,0,-1
 1098 1385 l 1,1,-1
 1098 0 l 1,2,-1
 945 0 l 1,3,-1
 945 439 l 1,4,-1
 929 439 l 1,5,6
 800 337 800 337 632 337 c 0,7,8
 453 337 453 337 327 448 c 1,9,10
 195 566 195 566 195 750 c 0,11,12
 195 925 195 925 305 1038 c 1,13,14
 416 1150 416 1150 584 1150 c 0,15,16
 676 1150 676 1150 779 1112 c 1,17,-1
 810 987 l 1,18,19
 717 1032 717 1032 598 1032 c 0,20,21
 350 1032 350 1032 350 737 c 0,22,23
 350 677 350 677 368.5 627 c 128,-1,24
 387 577 387 577 421 538 c 1,25,-1
 422 538 l 1,26,27
 460 496 460 496 510.5 473.5 c 128,-1,28
 561 451 561 451 619 451 c 0,29,30
 784 451 784 451 942 622 c 1,31,-1
 945 622 l 1,32,-1
 945 1385 l 1,33,-1
 0 1385 l 1,34,-1
 0 1501 l 1,35,-1
 1342 1501 l 1,36,-1
 1342 1385 l 1,0,-1
EndSplineSet
Validated: 1
EndChar

StartChar: l.sha
Encoding: 2358 2358 101
Width: 1730
GlyphClass: 2
Flags: W
LayerCount: 2
Fore
SplineSet
1747 1385 m 1,0,-1
 1504 1385 l 1,1,-1
 1504 0 l 1,2,-1
 1350 0 l 1,3,-1
 1350 1385 l 1,4,-1
 867 1385 l 1,5,6
 943 1326 943 1326 982 1242.5 c 128,-1,7
 1021 1159 1021 1159 1021 1048 c 0,8,9
 1021 905 1021 905 956.5 792.5 c 128,-1,10
 892 680 892 680 777 605 c 1,11,12
 699 557 699 557 626.5 532 c 128,-1,13
 554 507 554 507 490 506 c 1,14,-1
 483 506 l 1,15,16
 539 458 539 458 599.5 406.5 c 128,-1,17
 660 355 660 355 722 303 c 0,18,19
 784 250 784 250 843.5 199 c 128,-1,20
 903 148 903 148 960 100 c 1,21,-1
 861 -6 l 1,22,-1
 166 590 l 1,23,-1
 265 692 l 1,24,-1
 361 611 l 1,25,-1
 367 611 l 1,26,27
 479 612 479 612 569 641 c 128,-1,28
 659 670 659 670 722 722 c 1,29,30
 789 782 789 782 826 850 c 128,-1,31
 863 918 863 918 863 987 c 2,32,-1
 863 998 l 1,33,-1
 847 998 l 1,34,-1
 835 989 l 2,35,36
 825 981 825 981 813 972 c 128,-1,37
 801 963 801 963 784 952 c 0,38,39
 689 890 689 890 596 890 c 0,40,41
 455 890 455 890 359 974 c 0,42,43
 259 1062 259 1062 259 1201 c 0,44,45
 259 1255 259 1255 281 1301.5 c 128,-1,46
 303 1348 303 1348 343 1385 c 1,47,-1
 0 1385 l 1,48,-1
 0 1501 l 1,49,-1
 1747 1501 l 1,50,-1
 1747 1385 l 1,0,-1
845 1171 m 0,51,52
 845 1189 845 1189 831.5 1217 c 128,-1,53
 818 1245 818 1245 792 1282 c 1,54,55
 754 1329 754 1329 703.5 1359.5 c 128,-1,56
 653 1390 653 1390 598 1390 c 0,57,58
 509 1390 509 1390 458 1336 c 1,59,60
 413 1286 413 1286 413 1206 c 0,61,62
 413 1128 413 1128 472 1069 c 0,63,64
 530 1011 530 1011 611 1011 c 0,65,66
 714 1011 714 1011 791 1089 c 1,67,68
 845 1146 845 1146 845 1171 c 0,51,52
EndSplineSet
Validated: 1
EndChar

StartChar: l.ssa
Encoding: 2359 2359 102
Width: 1316
GlyphClass: 2
Flags: W
LayerCount: 2
Fore
SplineSet
1342 1385 m 1,0,-1
 1098 1385 l 1,1,-1
 1098 0 l 1,2,-1
 945 0 l 1,3,-1
 945 522 l 1,4,-1
 930 522 l 1,5,6
 790 437 790 437 656 437 c 0,7,8
 488 437 488 437 363 541 c 1,9,10
 235 649 235 649 235 810 c 2,11,-1
 235 1385 l 1,12,-1
 0 1385 l 1,13,-1
 0 1501 l 1,14,-1
 1342 1501 l 1,15,-1
 1342 1385 l 1,0,-1
928 835 m 1,16,-1
 945 835 l 1,17,-1
 945 1385 l 1,18,-1
 416 1385 l 1,19,-1
 928 835 l 1,16,-1
409 1243 m 1,20,-1
 392 1243 l 1,21,-1
 392 803 l 2,22,23
 392 686 392 686 469 617 c 1,24,-1
 470 617 l 1,25,26
 506 586 506 586 555.5 569.5 c 128,-1,27
 605 553 605 553 663 553 c 0,28,29
 763 553 763 553 855 606 c 0,30,31
 890 626 890 626 910 641.5 c 128,-1,32
 930 657 930 657 938 671 c 1,33,-1
 936 671 l 1,34,-1
 409 1243 l 1,20,-1
EndSplineSet
Validated: 1
EndChar

StartChar: l.sa
Encoding: 2360 2360 103
Width: 1681
GlyphClass: 2
Flags: W
LayerCount: 2
Fore
SplineSet
1717 1385 m 1,0,-1
 1472 1385 l 1,1,-1
 1472 0 l 1,2,-1
 1319 0 l 1,3,-1
 1319 755 l 1,4,-1
 945 755 l 1,5,-1
 845 876 l 1,6,-1
 1319 876 l 1,7,-1
 1319 1385 l 1,8,-1
 810 1385 l 1,9,-1
 810 1003 l 2,10,11
 810 878 810 878 795 832 c 0,12,13
 776 777 776 777 734 742.5 c 128,-1,14
 692 708 692 708 632 695 c 0,15,16
 618 692 618 692 601.5 690.5 c 128,-1,17
 585 689 585 689 572 689 c 0,18,19
 534 689 534 689 507 696 c 1,20,-1
 495 696 l 1,21,22
 506 674 506 674 524.5 644 c 128,-1,23
 543 614 543 614 567 578 c 128,-1,24
 591 542 591 542 619 502.5 c 128,-1,25
 647 463 647 463 677 421 c 1,26,27
 706 383 706 383 752 328.5 c 128,-1,28
 798 274 798 274 848 217 c 0,29,30
 872 191 872 191 900 161 c 128,-1,31
 928 131 928 131 951 105 c 1,32,-1
 831 -1 l 1,33,34
 811 23 811 23 793 44.5 c 128,-1,35
 775 66 775 66 755 92 c 0,36,37
 739 112 739 112 723.5 131 c 128,-1,38
 708 150 708 150 693 169 c 0,39,40
 657 214 657 214 619.5 262.5 c 128,-1,41
 582 311 582 311 547 359 c 128,-1,42
 512 407 512 407 480 452.5 c 128,-1,43
 448 498 448 498 421 539 c 0,44,45
 349 647 349 647 282 762 c 128,-1,46
 215 877 215 877 160 987 c 1,47,-1
 280 1063 l 1,48,-1
 367 900 l 1,49,50
 393 855 393 855 435 829 c 128,-1,51
 477 803 477 803 529 803 c 0,52,53
 658 803 658 803 658 942 c 2,54,-1
 658 955 l 2,55,56
 658 960 658 960 657.5 966 c 128,-1,57
 657 972 657 972 657 979 c 0,58,59
 656 988 656 988 656 1000 c 128,-1,60
 656 1012 656 1012 656 1017 c 2,61,-1
 656 1385 l 1,62,-1
 0 1385 l 1,63,-1
 0 1501 l 1,64,-1
 1717 1501 l 1,65,-1
 1717 1385 l 1,0,-1
EndSplineSet
Validated: 1
EndChar

StartChar: l.ha
Encoding: 2361 2361 104
Width: 1360
GlyphClass: 2
Flags: W
LayerCount: 2
Fore
SplineSet
1035 1 m 1,0,-1
 1037 3 l 1,1,-1
 1036 3 l 1,2,-1
 1035 1 l 1,0,-1
1406 1385 m 1,3,-1
 1095 1385 l 1,4,-1
 1095 1005 l 1,5,-1
 406 1005 l 2,6,7
 353 1005 353 1005 353 964 c 0,8,9
 353 945 353 945 364.5 918.5 c 128,-1,10
 376 892 376 892 397 858 c 0,11,12
 414 832 414 832 438.5 798.5 c 128,-1,13
 463 765 463 765 497 725 c 1,14,-1
 508 725 l 1,15,16
 631 764 631 764 755 764 c 0,17,18
 1192 764 1192 764 1192 463 c 0,19,20
 1192 307 1192 307 1048 235 c 1,21,-1
 936 316 l 1,22,23
 1035 362 1035 362 1035 469 c 0,24,25
 1035 653 1035 653 747 647 c 0,26,27
 659 645 659 645 589 622 c 128,-1,28
 519 599 519 599 468 563 c 1,29,-1
 467 563 l 1,30,31
 423 525 423 525 399.5 475.5 c 128,-1,32
 376 426 376 426 376 367 c 0,33,34
 376 301 376 301 420.5 242 c 128,-1,35
 465 183 465 183 546 135 c 1,36,37
 575 120 575 120 611.5 104.5 c 128,-1,38
 648 89 648 89 689 75 c 128,-1,39
 730 61 730 61 774 48.5 c 128,-1,40
 818 36 818 36 862 26 c 1,41,42
 938 11 938 11 982.5 4 c 128,-1,43
 1027 -3 1027 -3 1035 1 c 1,44,-1
 987 -96 l 1,45,46
 983 -98 983 -98 967 -98 c 0,47,48
 939 -98 939 -98 891.5 -91 c 128,-1,49
 844 -84 844 -84 781 -71 c 0,50,51
 674 -49 674 -49 579.5 -14.5 c 128,-1,52
 485 20 485 20 415 64 c 0,53,54
 318 126 318 126 268.5 204.5 c 128,-1,55
 219 283 219 283 219 376 c 0,56,57
 219 559 219 559 390 663 c 1,58,-1
 392 663 l 1,59,60
 195 863 195 863 195 1005 c 0,61,62
 195 1132 195 1132 331 1132 c 2,63,-1
 942 1132 l 1,64,-1
 942 1385 l 1,65,-1
 0 1385 l 1,66,-1
 0 1501 l 1,67,-1
 1406 1501 l 1,68,-1
 1406 1385 l 1,3,-1
EndSplineSet
Validated: 37
EndChar

StartChar: uni093A
Encoding: 2362 2362 105
Width: 391
GlyphClass: 2
Flags: W
LayerCount: 2
Fore
SplineSet
146 947 m 1,0,-1
 100 1221 l 1,1,-1
 100 1466 l 1,2,-1
 285 1466 l 1,3,-1
 285 1221 l 1,4,-1
 237 947 l 1,5,-1
 146 947 l 1,0,-1
EndSplineSet
Validated: 1
EndChar

StartChar: uni093B
Encoding: 2363 2363 106
Width: 619
GlyphClass: 2
Flags: W
LayerCount: 2
Fore
SplineSet
261 1501 m 1,0,-1
 261 1907 l 1,1,-1
 413 1906 l 1,2,-1
 413 1501 l 1,3,-1
 376 1501 l 1,4,-1
 261 1501 l 1,0,-1
656 1385 m 1,5,-1
 413 1385 l 1,6,-1
 413 0 l 1,7,-1
 259 0 l 1,8,-1
 259 1385 l 1,9,-1
 0 1385 l 1,10,-1
 0 1501 l 1,11,-1
 656 1501 l 1,12,-1
 656 1385 l 1,5,-1
EndSplineSet
Validated: 5
EndChar

StartChar: s.nukta
Encoding: 2364 2364 107
Width: 0
GlyphClass: 4
Flags: W
LayerCount: 2
Fore
SplineSet
-525 -206 m 1,0,-1
 -728 -206 l 1,1,-1
 -728 -40 l 1,2,-1
 -525 -40 l 1,3,-1
 -525 -206 l 1,0,-1
EndSplineSet
Validated: 1
EndChar

StartChar: s.avagraha
Encoding: 2365 2365 108
Width: 1222
GlyphClass: 2
Flags: W
LayerCount: 2
Fore
SplineSet
1126 361 m 0,0,1
 1126 274 1126 274 1090.5 203 c 128,-1,2
 1055 132 1055 132 988 79 c 1,3,4
 922 30 922 30 842 4.5 c 128,-1,5
 762 -21 762 -21 665 -21 c 0,6,7
 491 -21 491 -21 273 125 c 0,8,9
 105 237 105 237 84 280 c 1,10,-1
 190 382 l 1,11,12
 196 347 196 347 343 230 c 0,13,14
 519 90 519 90 656 90 c 0,15,16
 772 90 772 90 861 142 c 1,17,18
 914 176 914 176 943 226 c 128,-1,19
 972 276 972 276 972 340 c 0,20,21
 972 451 972 451 769 633 c 1,22,-1
 768 633 l 1,23,24
 671 714 671 714 576 792.5 c 128,-1,25
 481 871 481 871 384 950 c 1,26,27
 282 1043 282 1043 231.5 1118 c 128,-1,28
 181 1193 181 1193 181 1255 c 0,29,30
 181 1381 181 1381 266 1446 c 0,31,32
 339 1501 339 1501 461 1501 c 2,33,-1
 1032 1501 l 1,34,-1
 1032 1385 l 1,35,-1
 451 1385 l 2,36,37
 397 1385 397 1385 357 1351 c 0,38,39
 316 1317 316 1317 316 1267 c 0,40,41
 316 1252 316 1252 331 1227.5 c 128,-1,42
 346 1203 346 1203 373.5 1172 c 128,-1,43
 401 1141 401 1141 440 1104 c 128,-1,44
 479 1067 479 1067 526 1027 c 0,45,46
 692 889 692 889 792.5 804 c 128,-1,47
 893 719 893 719 916 698 c 0,48,49
 1126 495 1126 495 1126 361 c 0,0,1
EndSplineSet
Validated: 1
EndChar

StartChar: vs.aa
Encoding: 2366 2366 109
Width: 619
GlyphClass: 4
Flags: W
LayerCount: 2
Fore
SplineSet
656 1385 m 1,0,-1
 413 1385 l 1,1,-1
 413 0 l 1,2,-1
 259 0 l 1,3,-1
 259 1385 l 1,4,-1
 0 1385 l 1,5,-1
 0 1501 l 1,6,-1
 656 1501 l 1,7,-1
 656 1385 l 1,0,-1
EndSplineSet
Validated: 1
EndChar

StartChar: vs.i
Encoding: 2367 2367 110
Width: 619
GlyphClass: 4
Flags: W
LayerCount: 2
Fore
SplineSet
1477 1490 m 1,0,1
 1477 1498 1477 1498 1445.5 1534.5 c 128,-1,2
 1414 1571 1414 1571 1354 1634 c 0,3,4
 1279 1711 1279 1711 1201.5 1777.5 c 128,-1,5
 1124 1844 1124 1844 1050 1894 c 1,6,7
 945 1962 945 1962 847 1998 c 128,-1,8
 749 2034 749 2034 663 2035 c 0,9,10
 542 2037 542 2037 454 1952 c 1,11,12
 355 1860 355 1860 355 1713 c 0,13,14
 355 1659 355 1659 368.5 1605.5 c 128,-1,15
 382 1552 382 1552 406 1501 c 1,16,-1
 656 1501 l 1,17,-1
 656 1385 l 1,18,-1
 413 1385 l 1,19,-1
 413 0 l 1,20,-1
 259 0 l 1,21,-1
 259 1385 l 1,22,-1
 0 1385 l 1,23,-1
 0 1501 l 1,24,-1
 271 1501 l 1,25,26
 208 1627 208 1627 208 1730 c 0,27,28
 208 1941 208 1941 343 2054 c 0,29,30
 468 2158 468 2158 677 2158 c 0,31,32
 982 2158 982 2158 1352 1824 c 0,33,34
 1429 1754 1429 1754 1505.5 1671.5 c 128,-1,35
 1582 1589 1582 1589 1661 1490 c 1,36,-1
 1477 1490 l 1,0,1
EndSplineSet
Validated: 33
EndChar

StartChar: vs.ii
Encoding: 2368 2368 111
Width: 619
GlyphClass: 4
Flags: W
LayerCount: 2
Fore
SplineSet
656 1385 m 1,0,-1
 413 1385 l 1,1,-1
 413 0 l 1,2,-1
 259 0 l 1,3,-1
 259 1385 l 1,4,-1
 0 1385 l 1,5,-1
 0 1501 l 1,6,-1
 259 1501 l 1,7,8
 265 1517 265 1517 215 1637 c 0,9,10
 185 1710 185 1710 146 1773 c 128,-1,11
 107 1836 107 1836 63 1883 c 1,12,13
 3 1941 3 1941 -70 1977.5 c 128,-1,14
 -143 2014 -143 2014 -216 2014 c 0,15,16
 -418 2014 -418 2014 -418 1782 c 0,17,18
 -418 1629 -418 1629 -322 1490 c 1,19,-1
 -461 1490 l 1,20,21
 -566 1647 -566 1647 -566 1782 c 0,22,23
 -566 1865 -566 1865 -540 1931 c 128,-1,24
 -514 1997 -514 1997 -467 2043 c 1,25,26
 -421 2085 -421 2085 -358.5 2106.5 c 128,-1,27
 -296 2128 -296 2128 -219 2128 c 0,28,29
 -6 2128 -6 2128 153 1968 c 0,30,31
 210 1911 210 1911 258 1832 c 128,-1,32
 306 1753 306 1753 343 1666 c 1,33,34
 368 1604 368 1604 382 1562.5 c 128,-1,35
 396 1521 396 1521 397 1501 c 1,36,-1
 656 1501 l 1,37,-1
 656 1385 l 1,0,-1
EndSplineSet
Validated: 33
EndChar

StartChar: vs.u
Encoding: 2369 2369 112
Width: 0
GlyphClass: 4
Flags: W
LayerCount: 2
Fore
SplineSet
34 -295 m 0,0,1
 34 -446 34 -446 -77 -542 c 1,2,-1
 -78 -542 l 1,3,4
 -190 -639 -190 -639 -373 -639 c 0,5,6
 -700 -639 -700 -639 -977 -350 c 1,7,-1
 -886 -232 l 1,8,9
 -662 -519 -662 -519 -390 -519 c 0,10,11
 -279 -519 -279 -519 -200 -458 c 1,12,13
 -115 -394 -115 -394 -115 -290 c 0,14,15
 -115 -214 -115 -214 -165 -164 c 0,16,17
 -214 -115 -214 -115 -287 -115 c 0,18,19
 -358 -115 -358 -115 -416 -170 c 0,20,21
 -461 -212 -461 -212 -461 -229 c 1,22,-1
 -573 -129 l 1,23,24
 -562 -112 -562 -112 -542 -94.5 c 128,-1,25
 -522 -77 -522 -77 -493 -57 c 0,26,27
 -396 9 -396 9 -272 9 c 0,28,29
 -143 9 -143 9 -54 -77 c 0,30,31
 34 -162 34 -162 34 -295 c 0,0,1
EndSplineSet
Validated: 1
EndChar

StartChar: vs.uu
Encoding: 2370 2370 113
Width: 0
GlyphClass: 4
Flags: W
LayerCount: 2
Fore
SplineSet
23 -682 m 1,0,1
 27 -672 27 -672 19.5 -632.5 c 128,-1,2
 12 -593 12 -593 -2 -531 c 1,3,4
 -22 -454 -22 -454 -52.5 -382 c 128,-1,5
 -83 -310 -83 -310 -117 -260 c 1,6,7
 -168 -194 -168 -194 -232 -154.5 c 128,-1,8
 -296 -115 -296 -115 -370 -115 c 0,9,10
 -448 -115 -448 -115 -507 -171 c 1,11,12
 -563 -226 -563 -226 -562 -304 c 0,13,14
 -561 -342 -561 -342 -547 -373 c 128,-1,15
 -533 -404 -533 -404 -507 -430 c 0,16,17
 -455 -482 -455 -482 -381 -479 c 1,18,19
 -318 -478 -318 -478 -247 -430 c 1,20,-1
 -175 -544 l 1,21,22
 -226 -568 -226 -568 -277.5 -580.5 c 128,-1,23
 -329 -593 -329 -593 -384 -593 c 0,24,25
 -453 -593 -453 -593 -510 -571 c 128,-1,26
 -567 -549 -567 -549 -612 -510 c 1,27,28
 -703 -426 -703 -426 -705 -298 c 0,29,30
 -707 -167 -707 -167 -609 -78 c 256,31,32
 -511 11 -511 11 -375 11 c 0,33,34
 -179 11 -179 11 -44 -151 c 0,35,36
 3 -207 3 -207 42 -285 c 128,-1,37
 81 -363 81 -363 109 -453 c 0,38,39
 127 -513 127 -513 136.5 -555 c 128,-1,40
 146 -597 146 -597 146 -619 c 1,41,-1
 23 -682 l 1,0,1
EndSplineSet
Validated: 33
EndChar

StartChar: vs.vr
Encoding: 2371 2371 114
Width: 0
GlyphClass: 4
Flags: W
LayerCount: 2
Fore
SplineSet
-23 -525 m 1,0,1
 -31 -530 -31 -530 -37 -533 c 128,-1,2
 -43 -536 -43 -536 -51 -540 c 256,3,4
 -59 -544 -59 -544 -66.5 -548 c 128,-1,5
 -74 -552 -74 -552 -82 -556 c 0,6,7
 -87 -558 -87 -558 -91 -560 c 128,-1,8
 -95 -562 -95 -562 -99 -564 c 0,9,10
 -108 -570 -108 -570 -114 -572 c 0,11,12
 -225 -616 -225 -616 -338 -616 c 0,13,14
 -478 -616 -478 -616 -588 -536 c 0,15,16
 -711 -446 -711 -446 -711 -301 c 0,17,18
 -711 -166 -711 -166 -609 -80 c 0,19,20
 -514 0 -514 0 -384 0 c 2,21,-1
 -198 0 l 1,22,-1
 -198 -109 l 1,23,-1
 -355 -109 l 2,24,25
 -445 -109 -445 -109 -505 -157 c 0,26,27
 -568 -207 -568 -207 -568 -290 c 0,28,29
 -568 -382 -568 -382 -490 -443 c 1,30,31
 -419 -501 -419 -501 -318 -499 c 0,32,33
 -214 -497 -214 -497 -95 -417 c 1,34,-1
 -23 -525 l 1,0,1
EndSplineSet
Validated: 33
EndChar

StartChar: vs.vrr
Encoding: 2372 2372 115
Width: 0
GlyphClass: 4
Flags: W
LayerCount: 2
Fore
SplineSet
52 -628 m 1,0,1
 -67 -694 -67 -694 -186 -694 c 0,2,3
 -301 -694 -301 -694 -393 -638 c 1,4,5
 -499 -572 -499 -572 -499 -461 c 0,6,7
 -499 -377 -499 -377 -418 -312 c 1,8,-1
 -421 -312 l 1,9,10
 -556 -269 -556 -269 -556 -140 c 0,11,12
 -556 52 -556 52 -223 52 c 1,13,-1
 -188 -54 l 1,14,15
 -196 -49 -196 -49 -215 -49 c 0,16,17
 -247 -49 -247 -49 -279.5 -54.5 c 128,-1,18
 -312 -60 -312 -60 -338 -69 c 0,19,20
 -416 -98 -416 -98 -416 -155 c 0,21,22
 -416 -189 -416 -189 -389 -222 c 0,23,24
 -364 -253 -364 -253 -333 -255 c 1,25,-1
 -330 -255 l 1,26,27
 -294 -247 -294 -247 -260.5 -241 c 128,-1,28
 -227 -235 -227 -235 -206 -235 c 0,29,30
 -173 -235 -173 -235 -134 -241 c 2,31,-1
 -95 -247 l 1,32,33
 -90 -261 -90 -261 -84 -274 c 128,-1,34
 -78 -287 -78 -287 -72 -301 c 256,35,36
 -66 -315 -66 -315 -60.5 -327.5 c 128,-1,37
 -55 -340 -55 -340 -49 -353 c 1,38,39
 -133 -338 -133 -338 -175 -338 c 0,40,41
 -353 -338 -353 -338 -353 -464 c 0,42,43
 -353 -588 -353 -588 -195 -588 c 0,44,45
 -116 -588 -116 -588 -14 -516 c 1,46,-1
 52 -628 l 1,0,1
EndSplineSet
Validated: 1
EndChar

StartChar: vs.chandrae
Encoding: 2373 2373 116
Width: 0
GlyphClass: 4
Flags: W
LayerCount: 2
Fore
SplineSet
-52 2112 m 1,0,1
 -57 2058 -57 2058 -71.5 2012 c 128,-1,2
 -86 1966 -86 1966 -109 1928 c 1,3,4
 -166 1840 -166 1840 -261 1791.5 c 128,-1,5
 -356 1743 -356 1743 -490 1743 c 0,6,7
 -618 1743 -618 1743 -713 1792 c 128,-1,8
 -808 1841 -808 1841 -868 1928 c 1,9,10
 -891 1966 -891 1966 -907 2012 c 128,-1,11
 -923 2058 -923 2058 -932 2112 c 1,12,-1
 -791 2112 l 1,13,14
 -768 1846 -768 1846 -490 1846 c 0,15,16
 -446 1846 -446 1846 -406 1856.5 c 128,-1,17
 -366 1867 -366 1867 -332 1885 c 128,-1,18
 -298 1903 -298 1903 -271 1927.5 c 128,-1,19
 -244 1952 -244 1952 -225 1979 c 1,20,21
 -212 2006 -212 2006 -204 2040 c 128,-1,22
 -196 2074 -196 2074 -195 2112 c 1,23,-1
 -52 2112 l 1,0,1
EndSplineSet
Validated: 1
EndChar

StartChar: vs.short.e
Encoding: 2374 2374 117
Width: 0
GlyphClass: 4
Flags: W
AnchorPoint: "Anchor-0" -352 1498 mark 0
LayerCount: 2
Fore
SplineSet
-344 1499 m 1,0,-1
 -358 1541 l 1,1,-1
 -359 1541 l 1,2,3
 -361 1546 -361 1546 -362 1549.5 c 128,-1,4
 -363 1553 -363 1553 -365 1558 c 256,5,6
 -367 1563 -367 1563 -368.5 1567.5 c 128,-1,7
 -370 1572 -370 1572 -372 1583 c 1,8,-1
 -373 1583 l 1,9,10
 -417 1669 -417 1669 -509 1700 c 0,11,12
 -543 1711 -543 1711 -592.5 1720 c 128,-1,13
 -642 1729 -642 1729 -702 1735 c 0,14,15
 -756 1740 -756 1740 -808 1754.5 c 128,-1,16
 -860 1769 -860 1769 -907 1791 c 0,17,18
 -1051 1860 -1051 1860 -1051 2038 c 0,19,20
 -1051 2101 -1051 2101 -1033 2164 c 1,21,-1
 -959 2155 l 1,22,23
 -959 2153 -959 2153 -959.5 2150 c 128,-1,24
 -960 2147 -960 2147 -960 2145 c 0,25,26
 -961 2137 -961 2137 -961 2130.5 c 128,-1,27
 -961 2124 -961 2124 -961 2117 c 0,28,29
 -961 1906 -961 1906 -819 1877 c 1,30,-1
 -818 1877 l 1,31,-1
 -569 1844 l 1,32,33
 -521 1836 -521 1836 -469.5 1814.5 c 128,-1,34
 -418 1793 -418 1793 -366 1757 c 1,35,-1
 -365 1757 l 1,36,37
 -303 1716 -303 1716 -265 1604 c 0,38,39
 -239 1526 -239 1526 -239 1499 c 1,40,-1
 -344 1499 l 1,0,-1
EndSplineSet
Validated: 1
EndChar

StartChar: vs.e
Encoding: 2375 2375 118
Width: 0
GlyphClass: 4
Flags: W
AnchorPoint: "Anchor-0" -327 1498 mark 0
LayerCount: 2
Fore
SplineSet
-222 1499 m 1,0,-1
 -320 1499 l 1,1,-1
 -921 2101 l 1,2,-1
 -798 2201 l 1,3,-1
 -222 1499 l 1,0,-1
EndSplineSet
Validated: 1
EndChar

StartChar: vs.ai
Encoding: 2376 2376 119
Width: 0
GlyphClass: 4
Flags: W
AnchorPoint: "Anchor-0" -327 1498 mark 0
LayerCount: 2
Fore
SplineSet
-229 1499 m 1,0,-1
 -312 1499 l 1,1,-1
 -835 2124 l 1,2,-1
 -692 2207 l 1,3,-1
 -229 1499 l 1,0,-1
-544 1499 m 1,4,-1
 -639 1499 l 1,5,-1
 -1085 1800 l 1,6,-1
 -999 1920 l 1,7,-1
 -544 1499 l 1,4,-1
EndSplineSet
Validated: 1
EndChar

StartChar: vs.chandra
Encoding: 2377 2377 120
Width: 619
GlyphClass: 4
Flags: W
LayerCount: 2
Fore
SplineSet
762 2090 m 1,0,1
 757 2026 757 2026 742 1973.5 c 128,-1,2
 727 1921 727 1921 704 1883 c 0,3,4
 589 1695 589 1695 329 1695 c 0,5,6
 200 1695 200 1695 107 1742 c 128,-1,7
 14 1789 14 1789 -44 1882 c 0,8,9
 -67 1919 -67 1919 -83 1971.5 c 128,-1,10
 -99 2024 -99 2024 -111 2090 c 1,11,-1
 46 2090 l 1,12,13
 67 1833 67 1833 329 1833 c 0,14,15
 513 1833 513 1833 576 1951 c 0,16,17
 589 1977 589 1977 596 2011 c 128,-1,18
 603 2045 603 2045 604 2090 c 1,19,-1
 762 2090 l 1,0,1
656 1385 m 1,20,-1
 413 1385 l 1,21,-1
 413 0 l 1,22,-1
 259 0 l 1,23,-1
 259 1385 l 1,24,-1
 0 1385 l 1,25,-1
 0 1501 l 1,26,-1
 656 1501 l 1,27,-1
 656 1385 l 1,20,-1
EndSplineSet
Validated: 1
Ligature2: "'psts' Post Base Substitutions in Devanagari lookup 10 subtable" vs.aa vs.chandrae
EndChar

StartChar: vs.short.o
Encoding: 2378 2378 121
Width: 619
GlyphClass: 4
Flags: W
LayerCount: 2
Fore
SplineSet
656 1385 m 1,0,-1
 413 1385 l 1,1,-1
 413 0 l 1,2,-1
 259 0 l 1,3,-1
 259 1385 l 1,4,-1
 0 1385 l 1,5,-1
 0 1501 l 1,6,-1
 290 1501 l 1,7,8
 273 1576 273 1576 231 1627 c 128,-1,9
 189 1678 189 1678 121 1701 c 1,10,11
 87 1714 87 1714 34 1723 c 128,-1,12
 -19 1732 -19 1732 -82 1738 c 0,13,14
 -135 1743 -135 1743 -191 1758 c 128,-1,15
 -247 1773 -247 1773 -297 1797 c 1,16,17
 -369 1834 -369 1834 -408.5 1899 c 128,-1,18
 -448 1964 -448 1964 -448 2056 c 0,19,20
 -448 2127 -448 2127 -429 2188 c 1,21,-1
 -352 2182 l 1,22,-1
 -352 2176 l 2,23,24
 -352 2174 -352 2174 -352.5 2171.5 c 128,-1,25
 -353 2169 -353 2169 -353 2167 c 0,26,27
 -354 2159 -354 2159 -354 2152.5 c 128,-1,28
 -354 2146 -354 2146 -354 2139 c 0,29,30
 -354 2034 -354 2034 -312.5 1970.5 c 128,-1,31
 -271 1907 -271 1907 -204 1887 c 0,32,33
 -201 1886 -201 1886 -196.5 1886 c 128,-1,34
 -192 1886 -192 1886 -189 1885 c 0,35,36
 -185 1884 -185 1884 -181.5 1883.5 c 128,-1,37
 -178 1883 -178 1883 -173 1883 c 0,38,39
 -144 1878 -144 1878 -115 1874.5 c 128,-1,40
 -86 1871 -86 1871 -57 1867 c 256,41,42
 -28 1863 -28 1863 0 1859.5 c 128,-1,43
 28 1856 28 1856 57 1852 c 0,44,45
 108 1844 108 1844 162 1822 c 128,-1,46
 216 1800 216 1800 272 1761 c 0,47,48
 318 1729 318 1729 351 1663.5 c 128,-1,49
 384 1598 384 1598 402 1501 c 1,50,-1
 656 1501 l 1,51,-1
 656 1385 l 1,0,-1
EndSplineSet
Validated: 1
EndChar

StartChar: vs.o
Encoding: 2379 2379 122
Width: 619
GlyphClass: 4
Flags: W
LayerCount: 2
Fore
SplineSet
656 1385 m 1,0,-1
 413 1385 l 1,1,-1
 413 0 l 1,2,-1
 259 0 l 1,3,-1
 259 1385 l 1,4,-1
 0 1385 l 1,5,-1
 0 1501 l 1,6,-1
 308 1501 l 1,7,-1
 -313 2122 l 1,8,-1
 -183 2227 l 1,9,-1
 412 1501 l 1,10,-1
 656 1501 l 1,11,-1
 656 1385 l 1,0,-1
EndSplineSet
Validated: 1
EndChar

StartChar: vs.au
Encoding: 2380 2380 123
Width: 619
GlyphClass: 4
Flags: W
LayerCount: 2
Fore
SplineSet
656 1385 m 1,0,-1
 413 1385 l 1,1,-1
 413 0 l 1,2,-1
 259 0 l 1,3,-1
 259 1385 l 1,4,-1
 0 1385 l 1,5,-1
 0 1501 l 1,6,-1
 143 1501 l 1,7,8
 71 1549 71 1549 -4 1598.5 c 128,-1,9
 -79 1648 -79 1648 -154 1698 c 0,10,11
 -196 1726 -196 1726 -236.5 1753 c 128,-1,12
 -277 1780 -277 1780 -317 1806 c 1,13,-1
 -227 1932 l 1,14,-1
 248 1501 l 1,15,-1
 432 1501 l 1,16,17
 366 1580 366 1580 300 1661 c 128,-1,18
 234 1742 234 1742 167 1823 c 256,19,20
 100 1904 100 1904 33.5 1985 c 128,-1,21
 -33 2066 -33 2066 -98 2146 c 1,22,-1
 54 2234 l 1,23,-1
 521 1501 l 1,24,-1
 656 1501 l 1,25,-1
 656 1385 l 1,0,-1
EndSplineSet
Validated: 1
EndChar

StartChar: vs.virama
Encoding: 2381 2381 124
Width: 0
GlyphClass: 4
Flags: W
LayerCount: 2
Fore
SplineSet
103 -585 m 1,0,-1
 40 -648 l 1,1,-1
 -424 -301 l 1,2,-1
 -312 -181 l 1,3,-1
 103 -585 l 1,0,-1
EndSplineSet
Validated: 1
EndChar

StartChar: uni094E
Encoding: 2382 2382 125
Width: 2218
GlyphClass: 2
Flags: W
LayerCount: 2
Fore
SplineSet
1622 1782 m 1,0,-1
 1445 1782 l 1,1,-1
 1445 1948 l 1,2,-1
 1622 1948 l 1,3,-1
 1622 1782 l 1,0,-1
2071 1903 m 1,4,5
 2071 1701 2071 1701 1907 1561 c 0,6,7
 1749 1427 1749 1427 1535 1427 c 256,8,9
 1321 1427 1321 1427 1163 1561 c 1,10,11
 1003 1700 1003 1700 1003 1903 c 1,12,-1
 1156 1903 l 1,13,14
 1156 1748 1156 1748 1262 1645 c 0,15,16
 1369 1541 1369 1541 1535 1541 c 0,17,18
 1613 1541 1613 1541 1683 1569 c 128,-1,19
 1753 1597 1753 1597 1807 1645 c 1,20,21
 1860 1698 1860 1698 1888.5 1763.5 c 128,-1,22
 1917 1829 1917 1829 1917 1903 c 1,23,-1
 2071 1903 l 1,4,5
1583 442 m 1,24,-1
 1585 445 l 1,25,-1
 1583 445 l 1,26,-1
 1583 442 l 1,24,-1
2116 650 m 0,27,28
 2116 474 2116 474 2016 346 c 1,29,30
 1909 211 1909 211 1751 211 c 0,31,32
 1613 211 1613 211 1511 319 c 1,33,-1
 1583 442 l 1,34,35
 1588 423 1588 423 1631 380 c 1,36,37
 1689 319 1689 319 1755 319 c 0,38,39
 1858 319 1858 319 1919 434 c 0,40,41
 1972 532 1972 532 1971 663 c 1,42,43
 1968 834 1968 834 1936 905 c 1,44,45
 1886 1021 1886 1021 1740 1021 c 0,46,47
 1713 1021 1713 1021 1673 997 c 128,-1,48
 1633 973 1633 973 1591 936 c 0,49,50
 1589 934 1589 934 1584.5 930 c 128,-1,51
 1580 926 1580 926 1578 924 c 0,52,53
 1575 922 1575 922 1571.5 918.5 c 128,-1,54
 1568 915 1568 915 1566 913 c 0,55,56
 1535 887 1535 887 1508.5 863 c 128,-1,57
 1482 839 1482 839 1452 813 c 0,58,59
 1442 804 1442 804 1429 793 c 128,-1,60
 1416 782 1416 782 1407 773 c 1,61,62
 1304 694 1304 694 1210 692 c 1,63,64
 1161 692 1161 692 1095 707 c 0,65,66
 1078 711 1078 711 1066.5 713.5 c 128,-1,67
 1055 716 1055 716 1049 719 c 1,68,-1
 1037 719 l 1,69,70
 1111 602 1111 602 1111 506 c 0,71,72
 1111 416 1111 416 1080 345 c 128,-1,73
 1049 274 1049 274 992 224 c 1,74,75
 939 181 939 181 871.5 157.5 c 128,-1,76
 804 134 804 134 726 135 c 0,77,78
 645 136 645 136 563 172 c 128,-1,79
 481 208 481 208 399 281 c 1,80,-1
 398 281 l 1,81,82
 338 332 338 332 280 400.5 c 128,-1,83
 222 469 222 469 168 551 c 0,84,85
 151 576 151 576 135.5 601 c 128,-1,86
 120 626 120 626 108 647 c 128,-1,87
 96 668 96 668 88.5 682 c 128,-1,88
 81 696 81 696 81 701 c 1,89,-1
 205 774 l 1,90,91
 469 250 469 250 732 250 c 0,92,93
 831 250 831 250 897 329 c 1,94,95
 960 401 960 401 960 508 c 0,96,97
 960 647 960 647 869 728 c 0,98,99
 786 803 786 803 665 800 c 0,100,101
 648 799 648 799 626 796 c 128,-1,102
 604 793 604 793 575 786 c 0,103,104
 527 775 527 775 524 774 c 1,105,-1
 476 885 l 1,106,107
 505 885 505 885 642 915 c 0,108,109
 834 957 834 957 834 1161 c 0,110,111
 834 1385 834 1385 626 1385 c 0,112,113
 575 1385 575 1385 517.5 1358.5 c 128,-1,114
 460 1332 460 1332 402 1284 c 1,115,-1
 401 1284 l 1,116,117
 352 1242 352 1242 326.5 1216 c 128,-1,118
 301 1190 301 1190 301 1180 c 1,119,-1
 184 1267 l 1,120,121
 184 1272 184 1272 200 1289 c 128,-1,122
 216 1306 216 1306 244 1330 c 1,123,124
 279 1362 279 1362 321.5 1392 c 128,-1,125
 364 1422 364 1422 402 1442 c 1,126,127
 460 1470 460 1470 519.5 1485.5 c 128,-1,128
 579 1501 579 1501 635 1501 c 0,129,130
 790 1501 790 1501 884 1407 c 0,131,132
 975 1316 975 1316 975 1177 c 0,133,134
 975 973 975 973 807 885 c 1,135,-1
 811 885 l 1,136,137
 838 882 838 882 1002 810 c 1,138,139
 1047 786 1047 786 1109 786 c 0,140,141
 1277 786 1277 786 1406 936 c 0,142,143
 1582 1139 1582 1139 1746 1140 c 0,144,145
 1937 1141 1937 1141 2035 986 c 1,146,147
 2116 854 2116 854 2116 650 c 0,27,28
EndSplineSet
Validated: 37
EndChar

StartChar: s.aw
Encoding: 2383 2383 126
Width: 619
GlyphClass: 2
Flags: W
LayerCount: 2
Fore
SplineSet
656 1385 m 1,0,-1
 413 1385 l 1,1,-1
 413 0 l 1,2,-1
 259 0 l 1,3,-1
 259 1385 l 1,4,-1
 0 1385 l 1,5,-1
 0 1501 l 1,6,-1
 656 1501 l 1,7,-1
 656 1385 l 1,0,-1
382 1445 m 1,8,-1
 390 1483 l 1,9,-1
 389 1483 l 1,10,11
 390 1488 390 1488 390.5 1491 c 128,-1,12
 391 1494 391 1494 392 1499 c 256,13,14
 393 1504 393 1504 393.5 1508 c 128,-1,15
 394 1512 394 1512 398 1521 c 1,16,-1
 397 1521 l 1,17,18
 402 1606 402 1606 346 1671 c 0,19,20
 325 1694 325 1694 291.5 1723 c 128,-1,21
 258 1752 258 1752 215 1783 c 0,22,23
 176 1811 176 1811 143 1845 c 128,-1,24
 110 1879 110 1879 84 1916 c 0,25,26
 5 2033 5 2033 84 2168 c 0,27,28
 112 2216 112 2216 154 2256 c 1,29,-1
 206 2216 l 1,30,31
 205 2215 205 2215 203 2212.5 c 128,-1,32
 201 2210 201 2210 201 2209 c 0,33,34
 196 2203 196 2203 193.5 2198 c 128,-1,35
 191 2193 191 2193 187 2188 c 0,36,37
 94 2028 94 2028 189 1943 c 1,38,-1
 190 1942 l 1,39,-1
 364 1807 l 1,40,41
 397 1779 397 1779 426.5 1740 c 128,-1,42
 456 1701 456 1701 480 1650 c 1,43,-1
 480 1650 l 1,44,45
 509 1591 509 1591 488 1489 c 0,46,47
 474 1419 474 1419 462 1398 c 1,48,-1
 382 1445 l 1,8,-1
297 1433 m 1,49,-1
 284 1470 l 1,50,-1
 283 1470 l 1,51,52
 282 1474 282 1474 281 1477 c 128,-1,53
 280 1480 280 1480 278 1485 c 0,54,55
 276 1489 276 1489 275 1493 c 128,-1,56
 274 1497 274 1497 272 1507 c 1,57,-1
 271 1507 l 1,58,59
 232 1582 232 1582 151 1610 c 0,60,61
 122 1619 122 1619 78 1627 c 128,-1,62
 34 1635 34 1635 -18 1640 c 0,63,64
 -66 1645 -66 1645 -111.5 1657.5 c 128,-1,65
 -157 1670 -157 1670 -199 1690 c 0,66,67
 -326 1750 -326 1750 -326 1907 c 0,68,69
 -326 1963 -326 1963 -310 2018 c 1,70,-1
 -245 2010 l 1,71,72
 -245 2008 -245 2008 -245 2005.5 c 128,-1,73
 -245 2003 -245 2003 -245 2001 c 0,74,75
 -246 1994 -246 1994 -246 1988.5 c 128,-1,76
 -246 1983 -246 1983 -246 1977 c 0,77,78
 -246 1791 -246 1791 -121 1765 c 1,79,-1
 -120 1765 l 1,80,-1
 99 1736 l 1,81,82
 141 1729 141 1729 186.5 1710 c 128,-1,83
 232 1691 232 1691 277 1660 c 1,84,-1
 278 1660 l 1,85,86
 333 1624 333 1624 366 1525 c 0,87,88
 389 1457 389 1457 389 1433 c 1,89,-1
 297 1433 l 1,49,-1
EndSplineSet
Validated: 37
EndChar

StartChar: aum
Encoding: 2384 2384 127
Width: 0
GlyphClass: 2
Flags: W
LayerCount: 2
Fore
SplineSet
-247 -339 m 1,0,-1
 -1452 -339 l 1,1,-1
 -1452 -236 l 1,2,-1
 -247 -236 l 1,3,-1
 -247 -339 l 1,0,-1
EndSplineSet
Validated: 1
EndChar

StartChar: vs.udatta
Encoding: 2385 2385 128
Width: 755
GlyphClass: 4
Flags: W
LayerCount: 2
Fore
SplineSet
605 1647 m 1,0,-1
 508 1566 l 1,1,-1
 129 2050 l 1,2,-1
 236 2137 l 1,3,-1
 605 1647 l 1,0,-1
EndSplineSet
Validated: 1
EndChar

StartChar: vs.anudatta
Encoding: 2386 2386 129
Width: 753
GlyphClass: 4
Flags: W
LayerCount: 2
Fore
SplineSet
654 2053 m 1,0,-1
 275 1568 l 1,1,-1
 169 1651 l 1,2,-1
 548 2139 l 1,3,-1
 654 2053 l 1,0,-1
EndSplineSet
Validated: 1
EndChar

StartChar: uni0953
Encoding: 2387 2387 130
Width: 755
GlyphClass: 4
Flags: W
LayerCount: 2
Fore
SplineSet
609 1604 m 1,0,-1
 496 1509 l 1,1,-1
 111 2001 l 1,2,-1
 234 2102 l 1,3,-1
 609 1604 l 1,0,-1
EndSplineSet
Validated: 1
EndChar

StartChar: vs.acute.accent
Encoding: 2388 2388 131
Width: 753
GlyphClass: 4
Flags: W
LayerCount: 2
Fore
SplineSet
658 2004 m 1,0,-1
 273 1512 l 1,1,-1
 150 1607 l 1,2,-1
 536 2104 l 1,3,-1
 658 2004 l 1,0,-1
EndSplineSet
Validated: 1
EndChar

StartChar: uni0955
Encoding: 2389 2389 132
Width: 0
GlyphClass: 2
Flags: W
LayerCount: 2
Fore
SplineSet
-22 1782 m 1,0,-1
 -22 1643 l 1,1,-1
 -705 1643 l 1,2,-1
 -705 1782 l 1,3,-1
 -22 1782 l 1,0,-1
58 2262 m 1,4,5
 53 2208 53 2208 38.5 2162 c 128,-1,6
 24 2116 24 2116 1 2078 c 1,7,8
 -56 1990 -56 1990 -151 1941.5 c 128,-1,9
 -246 1893 -246 1893 -380 1893 c 0,10,11
 -508 1893 -508 1893 -603 1942 c 128,-1,12
 -698 1991 -698 1991 -758 2078 c 1,13,14
 -781 2116 -781 2116 -797 2162 c 128,-1,15
 -813 2208 -813 2208 -822 2262 c 1,16,-1
 -681 2262 l 1,17,18
 -658 1996 -658 1996 -380 1996 c 0,19,20
 -336 1996 -336 1996 -296 2006.5 c 128,-1,21
 -256 2017 -256 2017 -222 2035 c 128,-1,22
 -188 2053 -188 2053 -161 2077.5 c 128,-1,23
 -134 2102 -134 2102 -115 2129 c 1,24,25
 -102 2156 -102 2156 -94 2190 c 128,-1,26
 -86 2224 -86 2224 -85 2262 c 1,27,-1
 58 2262 l 1,4,5
EndSplineSet
Validated: 1
EndChar

StartChar: uni0956
Encoding: 2390 2390 133
Width: 0
GlyphClass: 2
Flags: W
LayerCount: 2
Fore
SplineSet
-186 -80 m 1,0,1
 -265 -357 -265 -357 -606 -357 c 0,2,3
 -955 -357 -955 -357 -1025 -80 c 1,4,-1
 -909 -80 l 1,5,6
 -857 -259 -857 -259 -606 -258 c 0,7,8
 -377 -257 -377 -257 -303 -80 c 1,9,-1
 -186 -80 l 1,0,1
EndSplineSet
Validated: 33
EndChar

StartChar: uni0957
Encoding: 2391 2391 134
Width: 0
GlyphClass: 2
Flags: W
LayerCount: 2
Fore
SplineSet
-166 -320 m 1,0,1
 -245 -597 -245 -597 -606 -597 c 0,2,3
 -975 -597 -975 -597 -1045 -320 c 1,4,-1
 -929 -320 l 1,5,6
 -877 -499 -877 -499 -606 -498 c 0,7,8
 -357 -497 -357 -497 -283 -320 c 1,9,-1
 -166 -320 l 1,0,1
-166 -40 m 1,10,11
 -245 -317 -245 -317 -606 -317 c 0,12,13
 -975 -317 -975 -317 -1045 -40 c 1,14,-1
 -929 -40 l 1,15,16
 -877 -219 -877 -219 -606 -218 c 0,17,18
 -357 -217 -357 -217 -283 -40 c 1,19,-1
 -166 -40 l 1,10,11
EndSplineSet
Validated: 33
EndChar

StartChar: l.qa
Encoding: 2392 2392 135
Width: 1871
GlyphClass: 2
Flags: W
AnchorPoint: "Anchor-0" 1048 1499 basechar 0
LayerCount: 2
Fore
SplineSet
1893 1385 m 1,0,-1
 1042 1385 l 1,1,-1
 1042 968 l 1,2,-1
 1059 968 l 1,3,4
 1072 983 1072 983 1084.5 993.5 c 128,-1,5
 1097 1004 1097 1004 1111 1014 c 0,6,7
 1154 1045 1154 1045 1212.5 1067 c 128,-1,8
 1271 1089 1271 1089 1330 1095 c 0,9,10
 1338 1096 1338 1096 1347.5 1096 c 128,-1,11
 1357 1096 1357 1096 1365 1096 c 0,12,13
 1532 1096 1532 1096 1634 974 c 0,14,15
 1724 866 1724 866 1724 722 c 0,16,17
 1724 504 1724 504 1427 198 c 1,18,-1
 1300 289 l 1,19,20
 1303 289 1303 289 1322.5 307 c 128,-1,21
 1342 325 1342 325 1372 358 c 0,22,23
 1410 400 1410 400 1441.5 442.5 c 128,-1,24
 1473 485 1473 485 1498 527 c 0,25,26
 1566 642 1566 642 1566 737 c 0,27,28
 1566 837 1566 837 1493 891 c 0,29,30
 1428 939 1428 939 1328 939 c 0,31,32
 1265 939 1265 939 1211 908.5 c 128,-1,33
 1157 878 1157 878 1112 821 c 1,34,35
 1080 774 1080 774 1061 725 c 128,-1,36
 1042 676 1042 676 1042 632 c 2,37,-1
 1042 0 l 1,38,-1
 890 0 l 1,39,-1
 890 420 l 1,40,-1
 873 420 l 1,41,42
 822 374 822 374 760 349.5 c 128,-1,43
 698 325 698 325 626 325 c 0,44,45
 457 325 457 325 334 445 c 256,46,47
 211 565 211 565 211 732 c 0,48,49
 211 896 211 896 330 1012 c 0,50,51
 448 1126 448 1126 617 1126 c 0,52,53
 650 1126 650 1126 685 1118.5 c 128,-1,54
 720 1111 720 1111 755 1095 c 1,55,-1
 755 966 l 1,56,57
 702 1005 702 1005 632 1005 c 0,58,59
 524 1005 524 1005 445 926 c 1,60,61
 367 846 367 846 367 737 c 0,62,63
 367 617 367 617 436 533 c 1,64,65
 508 442 508 442 617 442 c 0,66,67
 744 442 744 442 829 548 c 0,68,69
 890 623 890 623 890 663 c 2,70,-1
 890 1385 l 1,71,-1
 0 1385 l 1,72,-1
 0 1501 l 1,73,-1
 1893 1501 l 1,74,-1
 1893 1385 l 1,0,-1
412 14 m 1,75,-1
 197 14 l 1,76,-1
 197 225 l 1,77,-1
 412 225 l 1,78,-1
 412 14 l 1,75,-1
EndSplineSet
Validated: 1
Ligature2: "'nukt' Nukta Forms in Devanagari lookup 0 subtable" l.ka s.nukta
EndChar

StartChar: l.khha
Encoding: 2393 2393 136
Width: 1980
GlyphClass: 2
Flags: W
LayerCount: 2
Fore
SplineSet
1997 1385 m 1,0,-1
 1753 1385 l 1,1,-1
 1753 0 l 1,2,-1
 1599 0 l 1,3,-1
 1599 283 l 1,4,-1
 1584 283 l 1,5,6
 1514 241 1514 241 1441.5 207 c 128,-1,7
 1369 173 1369 173 1297 149.5 c 128,-1,8
 1225 126 1225 126 1154.5 113 c 128,-1,9
 1084 100 1084 100 1017 100 c 0,10,11
 875 100 875 100 754 145 c 128,-1,12
 633 190 633 190 535 276 c 1,13,14
 466 338 466 338 401.5 433.5 c 128,-1,15
 337 529 337 529 280 647 c 0,16,17
 260 689 260 689 237.5 745 c 128,-1,18
 215 801 215 801 190 868 c 0,19,20
 169 924 169 924 158 958 c 128,-1,21
 147 992 147 992 147 996 c 1,22,-1
 274 1063 l 1,23,-1
 329 900 l 1,24,-1
 331 900 l 1,25,26
 386 848 386 848 469 848 c 0,27,28
 598 848 598 848 598 975 c 2,29,-1
 598 1385 l 1,30,-1
 0 1385 l 1,31,-1
 0 1501 l 1,32,-1
 1997 1501 l 1,33,-1
 1997 1385 l 1,0,-1
1599 616 m 1,34,-1
 1584 616 l 1,35,36
 1459 535 1459 535 1321 535 c 0,37,38
 1189 535 1189 535 1091 618 c 1,39,40
 990 707 990 707 990 848 c 0,41,42
 990 990 990 990 1094 1079 c 1,43,44
 1191 1164 1191 1164 1330 1164 c 0,45,46
 1388 1164 1388 1164 1465 1140 c 1,47,-1
 1505 1021 l 1,48,49
 1448 1048 1448 1048 1348 1048 c 0,50,51
 1253 1048 1253 1048 1196 994 c 1,52,53
 1140 938 1140 938 1140 855 c 0,54,55
 1140 656 1140 656 1342 656 c 0,56,57
 1469 656 1469 656 1596 775 c 1,58,-1
 1599 775 l 1,59,-1
 1599 1385 l 1,60,-1
 747 1385 l 1,61,-1
 747 993 l 2,62,63
 747 946 747 946 732.5 903 c 128,-1,64
 718 860 718 860 692 823 c 0,65,66
 657 775 657 775 604.5 750.5 c 128,-1,67
 552 726 552 726 484 726 c 0,68,69
 451 726 451 726 424 732 c 1,70,71
 420 734 420 734 415.5 734.5 c 128,-1,72
 411 735 411 735 409 736 c 1,73,-1
 406 736 l 2,74,75
 405 736 405 736 404 736.5 c 128,-1,76
 403 737 403 737 402 737 c 2,77,-1
 392 737 l 1,78,79
 395 706 395 706 450 604 c 0,80,81
 532 450 532 450 650 354 c 0,82,83
 815 219 815 219 1026 219 c 0,84,85
 1161 219 1161 219 1305.5 274.5 c 128,-1,86
 1450 330 1450 330 1599 436 c 1,87,-1
 1599 616 l 1,34,-1
380 14 m 1,88,-1
 167 14 l 1,89,-1
 167 225 l 1,90,-1
 380 225 l 1,91,-1
 380 14 l 1,88,-1
EndSplineSet
Validated: 1
Ligature2: "'nukt' Nukta Forms in Devanagari lookup 0 subtable" l.kh s.nukta
EndChar

StartChar: l.ghha
Encoding: 2394 2394 137
Width: 1431
GlyphClass: 2
Flags: W
LayerCount: 2
Fore
SplineSet
1467 1385 m 1,0,-1
 1223 1385 l 1,1,-1
 1223 0 l 1,2,-1
 1070 0 l 1,3,-1
 1070 1385 l 1,4,-1
 626 1385 l 1,5,-1
 626 626 l 2,6,7
 626 508 626 508 560 508 c 0,8,9
 490 508 490 508 358 642 c 0,10,11
 226 777 226 777 226 852 c 0,12,13
 226 906 226 906 304 906 c 2,14,-1
 476 906 l 1,15,-1
 476 1385 l 1,16,-1
 0 1385 l 1,17,-1
 0 1501 l 1,18,-1
 1467 1501 l 1,19,-1
 1467 1385 l 1,0,-1
505 14 m 1,20,-1
 291 14 l 1,21,-1
 291 225 l 1,22,-1
 505 225 l 1,23,-1
 505 14 l 1,20,-1
EndSplineSet
Validated: 1
Ligature2: "'nukt' Nukta Forms in Devanagari lookup 0 subtable" l.ga s.nukta
EndChar

StartChar: l.za
Encoding: 2395 2395 138
Width: 1818
GlyphClass: 2
Flags: W
LayerCount: 2
Fore
SplineSet
298 1126 m 1,0,1
 297 1125 297 1125 297 1123 c 1,2,-1
 301 1126 l 1,3,-1
 298 1126 l 1,0,1
1841 1385 m 1,4,-1
 1597 1385 l 1,5,-1
 1597 0 l 1,6,-1
 1444 0 l 1,7,-1
 1444 930 l 1,8,-1
 1035 930 l 1,9,10
 1056 915 1056 915 1104 833 c 0,11,12
 1164 728 1164 728 1164 647 c 0,13,14
 1164 576 1164 576 1141.5 513 c 128,-1,15
 1119 450 1119 450 1079 400 c 1,16,17
 1032 347 1032 347 967.5 317.5 c 128,-1,18
 903 288 903 288 824 286 c 0,19,20
 723 284 723 284 630 332 c 128,-1,21
 537 380 537 380 452 474 c 1,22,23
 394 542 394 542 340 632.5 c 128,-1,24
 286 723 286 723 240 833 c 0,25,26
 167 1011 167 1011 174 1032 c 1,27,-1
 297 1123 l 1,28,29
 297 1112 297 1112 314.5 1063.5 c 128,-1,30
 332 1015 332 1015 362 939 c 1,31,32
 382 892 382 892 404 845 c 128,-1,33
 426 798 426 798 449.5 754 c 128,-1,34
 473 710 473 710 496.5 670 c 128,-1,35
 520 630 520 630 542 597 c 1,36,37
 606 513 606 513 673.5 464 c 128,-1,38
 741 415 741 415 804 415 c 0,39,40
 887 415 887 415 952 481 c 1,41,42
 1017 549 1017 549 1017 635 c 0,43,44
 1017 692 1017 692 988 762 c 128,-1,45
 959 832 959 832 908 907 c 0,46,47
 864 970 864 970 835.5 1005 c 128,-1,48
 807 1040 807 1040 799 1042 c 1,49,-1
 1444 1042 l 1,50,-1
 1444 1385 l 1,51,-1
 0 1385 l 1,52,-1
 0 1501 l 1,53,-1
 1841 1501 l 1,54,-1
 1841 1385 l 1,4,-1
1083 -66 m 1,55,-1
 869 -66 l 1,56,-1
 869 145 l 1,57,-1
 1083 145 l 1,58,-1
 1083 -66 l 1,55,-1
EndSplineSet
Validated: 37
Ligature2: "'nukt' Nukta Forms in Devanagari lookup 0 subtable" l.ja s.nukta
EndChar

StartChar: l.dddha
Encoding: 2396 2396 139
Width: 1575
GlyphClass: 2
Flags: W
LayerCount: 2
Fore
SplineSet
1598 1385 m 1,0,-1
 1285 1385 l 1,1,-1
 1285 1003 l 1,2,-1
 695 1003 l 2,3,4
 673 1003 673 1003 673 969 c 0,5,6
 673 909 673 909 764 789 c 0,7,8
 856 667 856 667 931 667 c 0,9,10
 940 667 940 667 948.5 668 c 128,-1,11
 957 669 957 669 964 672 c 1,12,13
 1255 753 1255 753 1285 753 c 0,14,15
 1359 753 1359 753 1401 676 c 0,16,17
 1418 643 1418 643 1426.5 604.5 c 128,-1,18
 1435 566 1435 566 1435 521 c 0,19,20
 1435 302 1435 302 1307 174 c 1,21,22
 1185 55 1185 55 987 55 c 0,23,24
 783 55 783 55 562 225 c 0,25,26
 481 288 481 288 405 366.5 c 128,-1,27
 329 445 329 445 254 542 c 0,28,29
 135 698 135 698 135 716 c 1,30,-1
 250 824 l 1,31,32
 249 816 249 816 278.5 769.5 c 128,-1,33
 308 723 308 723 361 648 c 1,34,35
 394 604 394 604 428.5 561.5 c 128,-1,36
 463 519 463 519 498 479 c 128,-1,37
 533 439 533 439 568.5 403.5 c 128,-1,38
 604 368 604 368 637 339 c 0,39,40
 827 174 827 174 987 174 c 0,41,42
 1119 174 1119 174 1202 269 c 0,43,44
 1286 364 1286 364 1285 514 c 0,45,46
 1284 586 1284 586 1265 605 c 0,47,48
 1253 617 1253 617 1210 617 c 0,49,50
 1192 617 1192 617 1089 576 c 256,51,52
 986 535 986 535 930 535 c 0,53,54
 859 535 859 535 787 581 c 128,-1,55
 715 627 715 627 643 718 c 0,56,57
 577 802 577 802 542.5 873.5 c 128,-1,58
 508 945 508 945 508 1003 c 0,59,60
 508 1119 508 1119 663 1119 c 2,61,-1
 1135 1119 l 1,62,-1
 1135 1385 l 1,63,-1
 0 1385 l 1,64,-1
 0 1501 l 1,65,-1
 1598 1501 l 1,66,-1
 1598 1385 l 1,0,-1
1067 -330 m 1,67,-1
 853 -330 l 1,68,-1
 853 -119 l 1,69,-1
 1067 -119 l 1,70,-1
 1067 -330 l 1,67,-1
EndSplineSet
Validated: 33
Ligature2: "'nukt' Nukta Forms in Devanagari lookup 0 subtable" l.dda s.nukta
EndChar

StartChar: l.dddhha
Encoding: 2397 2397 140
Width: 1447
GlyphClass: 2
Flags: W
LayerCount: 2
Fore
SplineSet
1472 1385 m 1,0,-1
 1119 1385 l 1,1,-1
 1119 945 l 1,2,-1
 598 945 l 2,3,4
 491 945 491 945 421 875 c 1,5,6
 346 803 346 803 346 687 c 0,7,8
 346 590 346 590 380 504.5 c 128,-1,9
 414 419 414 419 471 353 c 1,10,11
 492 333 492 333 519 312 c 128,-1,12
 546 291 546 291 576 272 c 128,-1,13
 606 253 606 253 638.5 236 c 128,-1,14
 671 219 671 219 703 207 c 0,15,16
 742 193 742 193 775 184.5 c 128,-1,17
 808 176 808 176 826 174 c 1,18,-1
 832 174 l 1,19,20
 806 189 806 189 772 245 c 1,21,-1
 771 245 l 1,22,23
 716 333 716 333 716 442 c 0,24,25
 716 559 716 559 800 640 c 0,26,27
 885 722 885 722 1003 722 c 0,28,29
 1129 722 1129 722 1215 639 c 0,30,31
 1300 557 1300 557 1300 427 c 0,32,33
 1300 343 1300 343 1263 274 c 128,-1,34
 1226 205 1226 205 1160 154 c 1,35,36
 1100 112 1100 112 1024 89 c 128,-1,37
 948 66 948 66 861 66 c 0,38,39
 610 66 610 66 407 239 c 1,40,41
 195 422 195 422 195 680 c 0,42,43
 195 839 195 839 306 947 c 1,44,45
 415 1050 415 1050 569 1050 c 2,46,-1
 966 1050 l 1,47,-1
 966 1385 l 1,48,-1
 0 1385 l 1,49,-1
 0 1501 l 1,50,-1
 1472 1501 l 1,51,-1
 1472 1385 l 1,0,-1
1156 421 m 0,52,53
 1157 506 1157 506 1117 552 c 128,-1,54
 1077 598 1077 598 1011 598 c 0,55,56
 943 598 943 598 895 549 c 1,57,58
 848 499 848 499 848 427 c 0,59,60
 848 338 848 338 882.5 280 c 128,-1,61
 917 222 917 222 981 195 c 1,62,-1
 986 195 l 1,63,64
 1006 198 1006 198 1026 207 c 128,-1,65
 1046 216 1046 216 1069 230 c 1,66,-1
 1070 230 l 1,67,68
 1110 261 1110 261 1132.5 309 c 128,-1,69
 1155 357 1155 357 1156 421 c 0,52,53
942 -330 m 1,70,-1
 728 -330 l 1,71,-1
 728 -119 l 1,72,-1
 942 -119 l 1,73,-1
 942 -330 l 1,70,-1
EndSplineSet
Validated: 33
Ligature2: "'nukt' Nukta Forms in Devanagari lookup 0 subtable" l.ddha s.nukta
EndChar

StartChar: l.fa
Encoding: 2398 2398 141
Width: 1843
GlyphClass: 2
Flags: W
AnchorPoint: "Anchor-0" 1048 1499 basechar 0
LayerCount: 2
Fore
SplineSet
1872 1385 m 1,0,-1
 1021 1385 l 1,1,-1
 1021 971 l 1,2,-1
 1038 971 l 1,3,4
 1152 1090 1152 1090 1291 1090 c 0,5,6
 1450 1090 1450 1090 1562 984 c 256,7,8
 1674 878 1674 878 1677 722 c 0,9,10
 1678 658 1678 658 1659 592 c 128,-1,11
 1640 526 1640 526 1604 458 c 0,12,13
 1578 410 1578 410 1542 361.5 c 128,-1,14
 1506 313 1506 313 1464 269 c 1,15,16
 1430 235 1430 235 1410 216 c 128,-1,17
 1390 197 1390 197 1382 195 c 1,18,-1
 1255 289 l 1,19,20
 1520 463 1520 463 1520 737 c 0,21,22
 1520 838 1520 838 1465 899 c 1,23,24
 1407 966 1407 966 1297 966 c 0,25,26
 1196 966 1196 966 1099 845 c 0,27,28
 1021 749 1021 749 1021 722 c 2,29,-1
 1021 0 l 1,30,-1
 869 0 l 1,31,-1
 869 568 l 1,32,-1
 852 568 l 1,33,34
 797 520 797 520 732.5 498 c 128,-1,35
 668 476 668 476 590 476 c 0,36,37
 412 476 412 476 310 586 c 0,38,39
 214 691 214 691 214 855 c 2,40,-1
 214 1385 l 1,41,-1
 0 1385 l 1,42,-1
 0 1501 l 1,43,-1
 1872 1501 l 1,44,-1
 1872 1385 l 1,0,-1
869 1385 m 1,45,-1
 367 1385 l 1,46,-1
 367 831 l 2,47,48
 367 590 367 590 581 590 c 0,49,50
 641 590 641 590 694 611 c 128,-1,51
 747 632 747 632 792 670 c 1,52,53
 827 705 827 705 848 743 c 128,-1,54
 869 781 869 781 869 816 c 2,55,-1
 869 1385 l 1,45,-1
412 14 m 1,56,-1
 197 14 l 1,57,-1
 197 225 l 1,58,-1
 412 225 l 1,59,-1
 412 14 l 1,56,-1
EndSplineSet
Validated: 33
Ligature2: "'nukt' Nukta Forms in Devanagari lookup 0 subtable" l.pha s.nukta
EndChar

StartChar: l.yya
Encoding: 2399 2399 142
Width: 1469
GlyphClass: 2
Flags: W
LayerCount: 2
Fore
SplineSet
202 861 m 1,0,1
 203 860 203 860 205 860 c 1,2,-1
 205 861 l 1,3,-1
 202 861 l 1,0,1
1498 1385 m 1,4,-1
 1254 1385 l 1,5,-1
 1254 0 l 1,6,-1
 1100 0 l 1,7,-1
 1100 427 l 1,8,-1
 1084 427 l 1,9,10
 899 280 899 280 730 280 c 0,11,12
 412 280 412 280 276 566 c 0,13,14
 205 717 205 717 205 860 c 1,15,16
 206 859 206 859 209 859 c 0,17,18
 215 857 215 857 222.5 854.5 c 128,-1,19
 230 852 230 852 242 850 c 1,20,21
 276 840 276 840 304 840 c 0,22,23
 560 840 560 840 560 1090 c 0,24,25
 560 1158 560 1158 522.5 1233 c 128,-1,26
 485 1308 485 1308 417 1385 c 1,27,-1
 0 1385 l 1,28,-1
 0 1501 l 1,29,-1
 1498 1501 l 1,30,-1
 1498 1385 l 1,4,-1
1100 1385 m 1,31,-1
 597 1385 l 1,32,33
 605 1380 605 1380 621.5 1354 c 128,-1,34
 638 1328 638 1328 659 1283 c 0,35,36
 685 1227 685 1227 700.5 1175 c 128,-1,37
 716 1123 716 1123 716 1080 c 0,38,39
 716 881 716 881 549 784 c 0,40,41
 454 729 454 729 386 726 c 1,42,-1
 376 726 l 1,43,44
 378 698 378 698 394.5 658 c 128,-1,45
 411 618 411 618 440 574 c 1,46,47
 492 503 492 503 567 465 c 128,-1,48
 642 427 642 427 737 427 c 0,49,50
 967 427 967 427 1098 631 c 1,51,-1
 1100 631 l 1,52,-1
 1100 1385 l 1,31,-1
412 14 m 1,53,-1
 197 14 l 1,54,-1
 197 225 l 1,55,-1
 412 225 l 1,56,-1
 412 14 l 1,53,-1
EndSplineSet
Validated: 5
Ligature2: "'nukt' Nukta Forms in Devanagari lookup 0 subtable" l.ya s.nukta
EndChar

StartChar: l.vrr
Encoding: 2400 2400 143
Width: 2170
GlyphClass: 2
Flags: W
LayerCount: 2
Fore
SplineSet
1987 328 m 1,0,1
 1987 325 1987 325 1988 324 c 1,2,3
 1994 327 1994 327 1994 328 c 1,4,-1
 1987 328 l 1,0,1
2278 -139 m 1,5,6
 2257 -154 2257 -154 2236 -169 c 128,-1,7
 2215 -184 2215 -184 2193 -198 c 1,8,9
 2090 -256 2090 -256 1971 -256 c 0,10,11
 1810 -256 1810 -256 1715 -185 c 0,12,13
 1629 -120 1629 -120 1629 -27 c 0,14,15
 1629 64 1629 64 1693 127 c 0,16,17
 1711 144 1711 144 1729 156.5 c 128,-1,18
 1747 169 1747 169 1764 174 c 1,19,-1
 1761 174 l 2,20,21
 1723 174 1723 174 1684 181.5 c 128,-1,22
 1645 189 1645 189 1610 201 c 1,23,24
 1577 215 1577 215 1549.5 235 c 128,-1,25
 1522 255 1522 255 1502 280 c 128,-1,26
 1482 305 1482 305 1470.5 334.5 c 128,-1,27
 1459 364 1459 364 1459 397 c 0,28,29
 1459 543 1459 543 1608 612 c 0,30,31
 1692 650 1692 650 1755 653 c 1,32,-1
 1764 653 l 1,33,34
 1750 676 1750 676 1737 698.5 c 128,-1,35
 1724 721 1724 721 1710 744 c 0,36,37
 1697 765 1697 765 1683 789.5 c 128,-1,38
 1669 814 1669 814 1656 835 c 1,39,-1
 1643 835 l 1,40,41
 1577 803 1577 803 1513 772 c 128,-1,42
 1449 741 1449 741 1384 710 c 0,43,44
 1352 694 1352 694 1318 678.5 c 128,-1,45
 1284 663 1284 663 1252 647 c 1,46,-1
 1252 0 l 1,47,-1
 1101 0 l 1,48,-1
 1101 570 l 1,49,-1
 1085 570 l 1,50,51
 1011 516 1011 516 934 459.5 c 128,-1,52
 857 403 857 403 779.5 345.5 c 128,-1,53
 702 288 702 288 625.5 231.5 c 128,-1,54
 549 175 549 175 476 121 c 1,55,-1
 382 250 l 1,56,-1
 1026 671 l 1,57,58
 1026 689 1026 689 879 839 c 1,59,60
 721 1003 721 1003 663 1003 c 0,61,62
 600 1003 600 1003 392 904 c 0,63,64
 195 811 195 811 195 803 c 1,65,-1
 101 920 l 1,66,67
 105 928 105 928 167 956.5 c 128,-1,68
 229 985 229 985 350 1037 c 0,69,70
 609 1147 609 1147 680 1147 c 0,71,72
 698 1147 698 1147 724 1134 c 128,-1,73
 750 1121 750 1121 782.5 1096.5 c 128,-1,74
 815 1072 815 1072 853 1037.5 c 128,-1,75
 891 1003 891 1003 933 961 c 0,76,77
 982 911 982 911 1023 866 c 128,-1,78
 1064 821 1064 821 1083 796 c 1,79,-1
 1101 796 l 1,80,-1
 1101 1385 l 1,81,-1
 0 1385 l 1,82,-1
 0 1501 l 1,83,-1
 2194 1501 l 1,84,-1
 2194 1385 l 1,85,-1
 1252 1385 l 1,86,-1
 1252 781 l 1,87,-1
 1266 781 l 1,88,89
 1350 821 1350 821 1434.5 861.5 c 128,-1,90
 1519 902 1519 902 1601 942 c 1,91,92
 1578 980 1578 980 1578 1026 c 0,93,94
 1578 1094 1578 1094 1620 1142 c 1,95,-1
 1621 1142 l 1,96,97
 1668 1196 1668 1196 1746 1195 c 0,98,99
 1896 1194 1896 1194 1896 1011 c 0,100,101
 1896 986 1896 986 1880 961 c 128,-1,102
 1864 936 1864 936 1835 911 c 0,103,104
 1787 870 1787 870 1768 869 c 1,105,-1
 1767 869 l 1,106,107
 1787 834 1787 834 1806 799 c 128,-1,108
 1825 764 1825 764 1845 729 c 256,109,110
 1865 694 1865 694 1884.5 659.5 c 128,-1,111
 1904 625 1904 625 1924 590 c 1,112,113
 1604 589 1604 589 1604 413 c 0,114,115
 1604 271 1604 271 1830 271 c 0,116,117
 1886 271 1886 271 1941 299 c 0,118,119
 1976 316 1976 316 1988 324 c 1,120,121
 1993 308 1993 308 1999.5 293.5 c 128,-1,122
 2006 279 2006 279 2013 265 c 2,123,-1
 2040 202 l 1,124,125
 1782 158 1782 158 1782 -6 c 0,126,127
 1782 -147 1782 -147 1969 -147 c 0,128,129
 2061 -147 2061 -147 2125 -92 c 1,130,131
 2173 -55 2173 -55 2173 -36 c 1,132,-1
 2278 -139 l 1,5,6
EndSplineSet
Validated: 37
EndChar

StartChar: l.vll
Encoding: 2401 2401 144
Width: 1799
GlyphClass: 2
Flags: W
LayerCount: 2
Fore
SplineSet
1820 1385 m 1,0,-1
 1384 1385 l 1,1,-1
 1384 1047 l 1,2,3
 1602 948 1602 948 1602 732 c 0,4,5
 1602 722 1602 722 1601.5 712 c 128,-1,6
 1601 702 1601 702 1600 692 c 0,7,8
 1590 606 1590 606 1546 539 c 128,-1,9
 1502 472 1502 472 1431 427 c 0,10,11
 1418 419 1418 419 1354.5 395 c 128,-1,12
 1291 371 1291 371 1173 327 c 0,13,14
 1045 280 1045 280 1064 199 c 0,15,16
 1088 91 1088 91 1262 91 c 0,17,18
 1271 91 1271 91 1282.5 91.5 c 128,-1,19
 1294 92 1294 92 1302 93 c 0,20,21
 1361 101 1361 101 1456 159 c 1,22,-1
 1508 20 l 1,23,24
 1239 -42 1239 -42 1239 -161 c 0,25,26
 1239 -165 1239 -165 1239 -169 c 128,-1,27
 1239 -173 1239 -173 1240 -177 c 0,28,29
 1252 -246 1252 -246 1380 -246 c 0,30,31
 1391 -246 1391 -246 1404 -245.5 c 128,-1,32
 1417 -245 1417 -245 1428 -243 c 0,33,34
 1503 -231 1503 -231 1559.5 -196 c 128,-1,35
 1616 -161 1616 -161 1648 -104 c 1,36,-1
 1749 -193 l 1,37,-1
 1689 -247 l 2,38,39
 1684 -251 1684 -251 1681.5 -253.5 c 128,-1,40
 1679 -256 1679 -256 1676 -259 c 2,41,-1
 1664 -271 l 1,42,43
 1604 -316 1604 -316 1544 -339.5 c 128,-1,44
 1484 -363 1484 -363 1421 -368 c 0,45,46
 1409 -369 1409 -369 1397.5 -369.5 c 128,-1,47
 1386 -370 1386 -370 1374 -370 c 0,48,49
 1240 -370 1240 -370 1160 -308 c 0,50,51
 1088 -253 1088 -253 1088 -167 c 0,52,53
 1088 -103 1088 -103 1118 -64 c 128,-1,54
 1148 -25 1148 -25 1203 -9 c 1,55,-1
 1200 -9 l 2,56,57
 1128 -9 1128 -9 1057 22 c 1,58,59
 990 53 990 53 955.5 105.5 c 128,-1,60
 921 158 921 158 923 232 c 1,61,62
 924 344 924 344 1051 411 c 1,63,64
 1081 422 1081 422 1112 434 c 128,-1,65
 1143 446 1143 446 1174 458 c 0,66,67
 1188 463 1188 463 1204.5 469 c 128,-1,68
 1221 475 1221 475 1235 481 c 0,69,70
 1250 487 1250 487 1265 493 c 128,-1,71
 1280 499 1280 499 1296 505 c 1,72,73
 1359 536 1359 536 1400 576.5 c 128,-1,74
 1441 617 1441 617 1451 663 c 1,75,76
 1457 696 1457 696 1457 727 c 0,77,78
 1457 775 1457 775 1439 815 c 128,-1,79
 1421 855 1421 855 1392 884 c 1,80,-1
 1391 884 l 1,81,82
 1363 907 1363 907 1326.5 920.5 c 128,-1,83
 1290 934 1290 934 1247 934 c 0,84,85
 1157 934 1157 934 1092 879 c 1,86,-1
 1091 879 l 1,87,88
 965 768 965 768 877 529 c 1,89,-1
 734 597 l 1,90,91
 742 614 742 614 756.5 643 c 128,-1,92
 771 672 771 672 791 711 c 0,93,94
 800 728 800 728 808 744 c 128,-1,95
 816 760 816 760 828 780 c 0,96,97
 830 782 830 782 834.5 788.5 c 128,-1,98
 839 795 839 795 841 799 c 0,99,100
 845 805 845 805 845 805 c 1,101,-1
 844 805 l 1,102,103
 784 880 784 880 715.5 919 c 128,-1,104
 647 958 647 958 571 958 c 0,105,106
 447 958 447 958 368 874 c 1,107,108
 289 792 289 792 289 659 c 0,109,110
 289 588 289 588 315 520 c 128,-1,111
 341 452 341 452 388 394 c 1,112,113
 422 355 422 355 471 314.5 c 128,-1,114
 520 274 520 274 573 240 c 1,115,116
 614 217 614 217 640.5 204 c 128,-1,117
 667 191 667 191 676 191 c 1,118,-1
 606 61 l 1,119,120
 594 61 594 61 560.5 78.5 c 128,-1,121
 527 96 527 96 479 127 c 0,122,123
 413 170 413 170 357.5 219.5 c 128,-1,124
 302 269 302 269 259 328 c 0,125,126
 143 487 143 487 143 670 c 0,127,128
 143 859 143 859 259 972 c 256,129,130
 375 1085 375 1085 566 1085 c 0,131,132
 770 1085 770 1085 910 921 c 1,133,-1
 926 921 l 1,134,135
 943 941 943 941 961 959 c 128,-1,136
 979 977 979 977 996 990 c 0,137,138
 1098 1066 1098 1066 1225 1071 c 1,139,-1
 1235 1071 l 1,140,-1
 1235 1382 l 1,141,-1
 1225 1382 l 2,142,143
 1101 1382 1101 1382 978.5 1382.5 c 128,-1,144
 856 1383 856 1383 731 1383 c 0,145,146
 544 1384 544 1384 364.5 1384 c 128,-1,147
 185 1384 185 1384 0 1385 c 1,148,-1
 0 1501 l 1,149,-1
 1820 1501 l 1,150,-1
 1820 1385 l 1,0,-1
EndSplineSet
Validated: 33
EndChar

StartChar: vs.vl
Encoding: 2402 2402 145
Width: 0
GlyphClass: 4
Flags: W
LayerCount: 2
Fore
SplineSet
-54 -670 m 1,0,-1
 -80 -690 l 2,1,2
 -82 -692 -82 -692 -85.5 -694.5 c 128,-1,3
 -89 -697 -89 -697 -91 -698 c 0,4,5
 -95 -701 -95 -701 -101 -705.5 c 128,-1,6
 -107 -710 -107 -710 -111 -713 c 0,7,8
 -168 -749 -168 -749 -230 -749 c 0,9,10
 -308 -749 -308 -749 -364 -714 c 1,11,12
 -429 -671 -429 -671 -429 -594 c 0,13,14
 -429 -546 -429 -546 -371 -499 c 0,15,16
 -364 -494 -364 -494 -357.5 -488 c 128,-1,17
 -351 -482 -351 -482 -344 -477 c 256,18,19
 -337 -472 -337 -472 -331 -466.5 c 128,-1,20
 -325 -461 -325 -461 -317 -455 c 0,21,22
 -310 -450 -310 -450 -303.5 -444 c 128,-1,23
 -297 -438 -297 -438 -290 -433 c 256,24,25
 -283 -428 -283 -428 -276.5 -422.5 c 128,-1,26
 -270 -417 -270 -417 -263 -411 c 0,27,28
 -205 -350 -205 -350 -205 -268 c 0,29,30
 -205 -210 -205 -210 -240 -175 c 0,31,32
 -271 -144 -271 -144 -318 -144 c 0,33,34
 -339 -144 -339 -144 -357 -151 c 128,-1,35
 -375 -158 -375 -158 -391 -170 c 1,36,-1
 -392 -170 l 1,37,38
 -423 -197 -423 -197 -451.5 -243 c 128,-1,39
 -480 -289 -480 -289 -502 -351 c 1,40,-1
 -577 -316 l 1,41,42
 -575 -312 -575 -312 -572 -306.5 c 128,-1,43
 -569 -301 -569 -301 -566 -295 c 0,44,45
 -562 -287 -562 -287 -557.5 -277.5 c 128,-1,46
 -553 -268 -553 -268 -547 -257 c 0,47,48
 -542 -249 -542 -249 -536 -238 c 128,-1,49
 -530 -227 -530 -227 -524 -218 c 1,50,51
 -526 -220 -526 -220 -524 -216.5 c 128,-1,52
 -522 -213 -522 -213 -519 -208 c 1,53,54
 -549 -170 -549 -170 -585 -149.5 c 128,-1,55
 -621 -129 -621 -129 -661 -129 c 0,56,57
 -726 -129 -726 -129 -766 -172 c 0,58,59
 -807 -216 -807 -216 -807 -284 c 0,60,61
 -807 -337 -807 -337 -781.5 -383 c 128,-1,62
 -756 -429 -756 -429 -708 -469 c 0,63,64
 -673 -497 -673 -497 -646.5 -512 c 128,-1,65
 -620 -527 -620 -527 -606 -527 c 1,66,-1
 -643 -594 l 1,67,68
 -677 -594 -677 -594 -766 -517 c 1,69,70
 -883 -414 -883 -414 -883 -278 c 0,71,72
 -883 -178 -883 -178 -823 -121 c 1,73,74
 -765 -63 -765 -63 -664 -63 c 0,75,76
 -614 -63 -614 -63 -569 -83 c 128,-1,77
 -524 -103 -524 -103 -490 -137 c 1,78,-1
 -476 -137 l 1,79,80
 -444 -102 -444 -102 -406 -86 c 128,-1,81
 -368 -70 -368 -70 -317 -70 c 0,82,83
 -218 -70 -218 -70 -167 -143 c 0,84,85
 -127 -201 -127 -201 -127 -284 c 0,86,87
 -127 -366 -127 -366 -185 -434 c 0,88,89
 -199 -451 -199 -451 -228.5 -474.5 c 128,-1,90
 -258 -498 -258 -498 -294 -525 c 0,91,92
 -322 -547 -322 -547 -337 -563.5 c 128,-1,93
 -352 -580 -352 -580 -352 -591 c 0,94,95
 -352 -633 -352 -633 -319 -658 c 128,-1,96
 -286 -683 -286 -683 -233 -683 c 0,97,98
 -185 -683 -185 -683 -138 -649 c 1,99,-1
 -137 -649 l 1,100,-1
 -126 -638 l 1,101,-1
 -124 -638 l 1,102,103
 -121 -635 -121 -635 -115.5 -630 c 128,-1,104
 -110 -625 -110 -625 -112 -627 c 1,105,106
 -109 -624 -109 -624 -105 -621.5 c 128,-1,107
 -101 -619 -101 -619 -96 -614 c 256,108,109
 -91 -609 -91 -609 -87 -606.5 c 128,-1,110
 -83 -604 -83 -604 -91 -612 c 1,111,-1
 -54 -670 l 1,0,-1
EndSplineSet
Validated: 5
EndChar

StartChar: vs.vll
Encoding: 2403 2403 146
Width: 0
GlyphClass: 4
Flags: W
LayerCount: 2
Fore
SplineSet
-52 -708 m 1,0,-1
 -101 -750 l 1,1,2
 -158 -793 -158 -793 -221 -798 c 0,3,4
 -226 -799 -226 -799 -233.5 -799 c 128,-1,5
 -241 -799 -241 -799 -246 -799 c 0,6,7
 -281 -799 -281 -799 -309 -790.5 c 128,-1,8
 -337 -782 -337 -782 -357 -767 c 0,9,10
 -395 -737 -395 -737 -395 -694 c 0,11,12
 -395 -661 -395 -661 -379 -640.5 c 128,-1,13
 -363 -620 -363 -620 -335 -612 c 1,14,-1
 -338 -612 l 2,15,16
 -375 -612 -375 -612 -411 -596 c 0,17,18
 -445 -580 -445 -580 -463.5 -552.5 c 128,-1,19
 -482 -525 -482 -525 -481 -487 c 0,20,21
 -479 -415 -479 -415 -352 -369 c 1,22,23
 -218 -323 -218 -323 -207 -264 c 0,24,25
 -204 -248 -204 -248 -204 -233 c 0,26,27
 -204 -127 -204 -127 -315 -127 c 0,28,29
 -366 -127 -366 -127 -402 -157 c 1,30,31
 -467 -216 -467 -216 -504 -332 c 1,32,-1
 -579 -298 l 1,33,34
 -577 -294 -577 -294 -574 -288.5 c 128,-1,35
 -571 -283 -571 -283 -568 -277 c 0,36,37
 -564 -269 -564 -269 -559.5 -259.5 c 128,-1,38
 -555 -250 -555 -250 -549 -239 c 0,39,40
 -544 -231 -544 -231 -538 -220 c 128,-1,41
 -532 -209 -532 -209 -526 -200 c 1,42,43
 -528 -202 -528 -202 -526 -198.5 c 128,-1,44
 -524 -195 -524 -195 -521 -190 c 1,45,46
 -551 -152 -551 -152 -587 -131.5 c 128,-1,47
 -623 -111 -623 -111 -663 -111 c 0,48,49
 -728 -111 -728 -111 -768 -154 c 0,50,51
 -809 -198 -809 -198 -809 -265 c 0,52,53
 -809 -318 -809 -318 -783.5 -364 c 128,-1,54
 -758 -410 -758 -410 -710 -450 c 0,55,56
 -675 -478 -675 -478 -648.5 -493 c 128,-1,57
 -622 -508 -622 -508 -608 -508 c 1,58,-1
 -645 -576 l 1,59,60
 -679 -576 -679 -576 -768 -499 c 1,61,62
 -885 -396 -885 -396 -885 -260 c 0,63,64
 -885 -160 -885 -160 -825 -103 c 1,65,66
 -767 -45 -767 -45 -666 -45 c 0,67,68
 -618 -45 -618 -45 -571.5 -67.5 c 128,-1,69
 -525 -90 -525 -90 -490 -125 c 1,70,-1
 -475 -125 l 1,71,72
 -409 -49 -409 -49 -311 -49 c 0,73,74
 -220 -49 -220 -49 -170 -111 c 1,75,76
 -128 -165 -128 -165 -128 -235 c 0,77,78
 -128 -331 -128 -331 -202 -382 c 1,79,80
 -219 -392 -219 -392 -252 -405.5 c 128,-1,81
 -285 -419 -285 -419 -336 -435 c 0,82,83
 -409 -457 -409 -457 -409 -492 c 0,84,85
 -409 -498 -409 -498 -410 -495 c 1,86,87
 -396 -560 -396 -560 -305 -560 c 0,88,89
 -299 -560 -299 -560 -294 -560 c 128,-1,90
 -289 -560 -289 -560 -284 -559 c 0,91,92
 -267 -557 -267 -557 -247.5 -548.5 c 128,-1,93
 -228 -540 -228 -540 -204 -525 c 1,94,-1
 -177 -598 l 1,95,96
 -326 -632 -326 -632 -316 -699 c 0,97,98
 -310 -735 -310 -735 -244 -735 c 0,99,100
 -240 -735 -240 -735 -236 -735 c 128,-1,101
 -232 -735 -232 -735 -227 -734 c 0,102,103
 -225 -734 -225 -734 -223.5 -733.5 c 128,-1,104
 -222 -733 -222 -733 -220 -733 c 2,105,-1
 -219 -733 l 1,106,107
 -139 -722 -139 -722 -104 -662 c 1,108,-1
 -52 -708 l 1,0,-1
EndSplineSet
Validated: 37
EndChar

StartChar: vs.danda
Encoding: 2404 2404 147
Width: 650
GlyphClass: 2
Flags: W
LayerCount: 2
Fore
SplineSet
539 0 m 1,0,-1
 378 0 l 1,1,-1
 378 1541 l 1,2,-1
 539 1541 l 1,3,-1
 539 0 l 1,0,-1
EndSplineSet
Validated: 1
EndChar

StartChar: vs.double.danda
Encoding: 2405 2405 148
Width: 1131
GlyphClass: 2
Flags: W
LayerCount: 2
Fore
SplineSet
1005 0 m 1,0,-1
 844 0 l 1,1,-1
 844 1541 l 1,2,-1
 1005 1541 l 1,3,-1
 1005 0 l 1,0,-1
644 0 m 1,4,-1
 483 0 l 1,5,-1
 483 1541 l 1,6,-1
 644 1541 l 1,7,-1
 644 0 l 1,4,-1
EndSplineSet
Validated: 1
EndChar

StartChar: l.zero
Encoding: 2406 2406 149
Width: 1246
GlyphClass: 2
Flags: W
LayerCount: 2
Fore
SplineSet
1101 747 m 0,0,1
 1101 548 1101 548 960 401 c 1,2,3
 819 256 819 256 619 256 c 0,4,5
 420 256 420 256 281 401 c 256,6,7
 142 546 142 546 142 747 c 0,8,9
 142 954 142 954 270 1094 c 0,10,11
 404 1240 404 1240 619 1240 c 0,12,13
 822 1240 822 1240 962 1094 c 0,14,15
 1101 949 1101 949 1101 747 c 0,0,1
960 753 m 0,16,17
 960 909 960 909 865 1022 c 1,18,19
 766 1138 766 1138 619 1138 c 0,20,21
 471 1138 471 1138 374 1018 c 1,22,23
 280 904 280 904 280 747 c 0,24,25
 280 592 280 592 374 478 c 1,26,27
 471 358 471 358 619 358 c 0,28,29
 768 358 768 358 866 480 c 1,30,31
 960 594 960 594 960 753 c 0,16,17
EndSplineSet
Validated: 1
EndChar

StartChar: l.one
Encoding: 2407 2407 150
Width: 1246
GlyphClass: 2
Flags: W
LayerCount: 2
Fore
SplineSet
1026 0 m 1,0,-1
 876 0 l 1,1,-1
 876 803 l 1,2,-1
 860 803 l 1,3,4
 752 722 752 722 617 722 c 0,5,6
 456 722 456 722 338 837 c 0,7,8
 219 953 219 953 219 1119 c 0,9,10
 219 1283 219 1283 340 1404 c 0,11,12
 462 1526 462 1526 617 1526 c 0,13,14
 727 1526 727 1526 812 1476.5 c 128,-1,15
 897 1427 897 1427 954 1336 c 1,16,17
 1026 1217 1026 1217 1026 1140 c 2,18,-1
 1026 0 l 1,0,-1
885 1111 m 0,19,20
 885 1178 885 1178 866 1232 c 128,-1,21
 847 1286 847 1286 811 1326 c 1,22,23
 774 1364 774 1364 725 1385 c 128,-1,24
 676 1406 676 1406 617 1406 c 0,25,26
 510 1406 510 1406 440 1322 c 0,27,28
 371 1238 371 1238 371 1116 c 0,29,30
 371 1056 371 1056 390 1002 c 128,-1,31
 409 948 409 948 439 907 c 1,32,33
 474 868 474 868 518.5 846 c 128,-1,34
 563 824 563 824 617 824 c 0,35,36
 734 824 734 824 809 903 c 0,37,38
 885 982 885 982 885 1111 c 0,19,20
EndSplineSet
Validated: 1
EndChar

StartChar: l.two
Encoding: 2408 2408 151
Width: 1246
GlyphClass: 2
Flags: W
LayerCount: 2
Fore
SplineSet
1116 1035 m 0,0,1
 1116 934 1116 934 1087 843.5 c 128,-1,2
 1058 753 1058 753 1001 673 c 0,3,4
 960 616 960 616 903.5 566.5 c 128,-1,5
 847 517 847 517 784 476 c 1,6,7
 692 419 692 419 666 416 c 1,8,-1
 665 416 l 1,9,10
 707 350 707 350 749 285.5 c 128,-1,11
 791 221 791 221 834 156 c 0,12,13
 876 91 876 91 919 26 c 128,-1,14
 962 -39 962 -39 1005 -105 c 1,15,-1
 890 -184 l 1,16,-1
 547 380 l 1,17,-1
 536 380 l 1,18,19
 492 371 492 371 437 371 c 0,20,21
 340 371 340 371 279 408 c 0,22,23
 205 454 205 454 205 539 c 0,24,25
 205 565 205 565 216 587.5 c 128,-1,26
 227 610 227 610 246 627 c 0,27,28
 288 663 288 663 346 663 c 0,29,30
 477 663 477 663 584 525 c 1,31,-1
 594 525 l 1,32,33
 610 529 610 529 634 541 c 128,-1,34
 658 553 658 553 691 572 c 0,35,36
 745 604 745 604 789.5 645 c 128,-1,37
 834 686 834 686 867 734 c 1,38,39
 960 864 960 864 960 1035 c 0,40,41
 960 1187 960 1187 854 1293 c 0,42,43
 747 1400 747 1400 596 1400 c 0,44,45
 462 1400 462 1400 214 1261 c 1,46,-1
 114 1366 l 1,47,48
 144 1396 144 1396 271 1449 c 1,49,50
 446 1520 446 1520 590 1520 c 0,51,52
 807 1520 807 1520 960 1382 c 1,53,54
 1116 1239 1116 1239 1116 1035 c 0,0,1
EndSplineSet
Validated: 1
EndChar

StartChar: l.three
Encoding: 2409 2409 152
Width: 1246
GlyphClass: 2
Flags: W
LayerCount: 2
Fore
SplineSet
1080 508 m 0,0,1
 1080 290 1080 290 898 165 c 1,2,3
 773 81 773 81 673 76 c 1,4,-1
 665 76 l 1,5,6
 693 37 693 37 721 -2.5 c 128,-1,7
 749 -42 749 -42 777 -82 c 256,8,9
 805 -122 805 -122 833 -161.5 c 128,-1,10
 861 -201 861 -201 890 -240 c 1,11,-1
 779 -331 l 1,12,-1
 509 68 l 1,13,-1
 501 68 l 2,14,15
 489 68 489 68 454 76 c 0,16,17
 449 77 449 77 444.5 78 c 128,-1,18
 440 79 440 79 435 80 c 0,19,20
 352 100 352 100 301 134 c 1,21,22
 230 185 230 185 229 259 c 0,23,24
 228 392 228 392 367 392 c 0,25,26
 453 392 453 392 537 290 c 0,27,28
 602 210 602 210 605 181 c 1,29,-1
 616 181 l 1,30,31
 646 184 646 184 686.5 197.5 c 128,-1,32
 727 211 727 211 769 234 c 1,33,34
 845 279 845 279 886 345.5 c 128,-1,35
 927 412 927 412 927 500 c 0,36,37
 927 806 927 806 520 806 c 0,38,39
 485 806 485 806 449 802.5 c 128,-1,40
 413 799 413 799 376 794 c 1,41,-1
 295 930 l 1,42,-1
 521 930 l 2,43,44
 578 930 578 930 634.5 949 c 128,-1,45
 691 968 691 968 735 996 c 1,46,47
 780 1033 780 1033 807 1081 c 128,-1,48
 834 1129 834 1129 834 1180 c 0,49,50
 834 1292 834 1292 743 1356 c 1,51,52
 664 1414 664 1414 545 1414 c 0,53,54
 505 1414 505 1414 452 1399 c 128,-1,55
 399 1384 399 1384 336 1358 c 1,56,57
 282 1334 282 1334 251.5 1318.5 c 128,-1,58
 221 1303 221 1303 218 1298 c 1,59,-1
 142 1411 l 1,60,61
 276 1473 276 1473 379 1502.5 c 128,-1,62
 482 1532 482 1532 560 1532 c 0,63,64
 747 1532 747 1532 860 1437 c 0,65,66
 972 1342 972 1342 972 1185 c 0,67,68
 972 1025 972 1025 878 937 c 0,69,70
 820 884 820 884 782 882 c 1,71,-1
 779 882 l 1,72,73
 842 864 842 864 898.5 829 c 128,-1,74
 955 794 955 794 996 744 c 0,75,76
 1080 642 1080 642 1080 508 c 0,0,1
EndSplineSet
Validated: 33
EndChar

StartChar: l.four
Encoding: 2410 2410 153
Width: 1246
GlyphClass: 2
Flags: W
LayerCount: 2
Fore
SplineSet
1140 1240 m 0,0,1
 1140 1182 1140 1182 1111.5 1120.5 c 128,-1,2
 1083 1059 1083 1059 1032 999 c 0,3,4
 994 955 994 955 943 912 c 128,-1,5
 892 869 892 869 830 828 c 0,6,7
 737 767 737 767 719 764 c 1,8,9
 728 761 728 761 747 748.5 c 128,-1,10
 766 736 766 736 797 713 c 0,11,12
 840 681 840 681 877 644.5 c 128,-1,13
 914 608 914 608 941 569 c 0,14,15
 1017 462 1017 462 1017 350 c 0,16,17
 1017 263 1017 263 985.5 193.5 c 128,-1,18
 954 124 954 124 898 76 c 1,19,20
 791 -9 791 -9 619 -9 c 0,21,22
 451 -9 451 -9 342 84 c 1,23,24
 226 185 226 185 226 355 c 0,25,26
 226 405 226 405 244.5 456 c 128,-1,27
 263 507 263 507 298 559 c 1,28,29
 324 594 324 594 359 630.5 c 128,-1,30
 394 667 394 667 433 701 c 0,31,32
 460 724 460 724 479.5 738 c 128,-1,33
 499 752 499 752 505 755 c 1,34,35
 495 757 495 757 465.5 776 c 128,-1,36
 436 795 436 795 394 825 c 0,37,38
 334 867 334 867 282 913 c 128,-1,39
 230 959 230 959 192 1004 c 0,40,41
 84 1130 84 1130 84 1246 c 0,42,43
 84 1398 84 1398 240 1517 c 1,44,-1
 346 1456 l 1,45,46
 340 1452 340 1452 325 1432 c 128,-1,47
 310 1412 310 1412 291 1379 c 0,48,49
 268 1337 268 1337 254 1298.5 c 128,-1,50
 240 1260 240 1260 240 1231 c 0,51,52
 240 1131 240 1131 336 1029 c 0,53,54
 369 993 369 993 415.5 957 c 128,-1,55
 462 921 462 921 516 887 c 1,56,57
 560 861 560 861 585 847.5 c 128,-1,58
 610 834 610 834 617 834 c 0,59,60
 630 834 630 834 717 889 c 0,61,62
 769 923 769 923 815.5 961 c 128,-1,63
 862 999 862 999 895 1034 c 1,64,65
 941 1085 941 1085 965.5 1137.5 c 128,-1,66
 990 1190 990 1190 990 1240 c 0,67,68
 990 1326 990 1326 897 1466 c 1,69,-1
 1017 1520 l 1,70,71
 1140 1374 1140 1374 1140 1240 c 0,0,1
876 361 m 0,72,73
 876 484 876 484 750 597 c 0,74,75
 649 687 649 687 611 687 c 0,76,77
 584 687 584 687 487 593 c 0,78,79
 367 477 367 477 367 361 c 0,80,81
 367 304 367 304 384.5 255.5 c 128,-1,82
 402 207 402 207 434 171 c 1,83,-1
 435 171 l 1,84,85
 506 97 506 97 617 97 c 256,86,87
 728 97 728 97 802 168 c 1,88,89
 876 242 876 242 876 361 c 0,72,73
EndSplineSet
Validated: 1
EndChar

StartChar: l.five
Encoding: 2411 2411 154
Width: 1246
GlyphClass: 2
Flags: W
LayerCount: 2
Fore
SplineSet
1135 6 m 0,0,1
 1135 -189 1135 -189 915 -301 c 1,2,-1
 800 -195 l 1,3,4
 802 -194 802 -194 805 -193 c 128,-1,5
 808 -192 808 -192 810 -191 c 2,6,-1
 822 -185 l 1,7,-1
 823 -185 l 1,8,9
 839 -177 839 -177 856.5 -169 c 128,-1,10
 874 -161 874 -161 890 -154 c 1,11,-1
 891 -154 l 1,12,13
 981 -96 981 -96 981 6 c 0,14,15
 981 78 981 78 963 169.5 c 128,-1,16
 945 261 945 261 907 375 c 0,17,18
 849 553 849 553 837 572 c 1,19,-1
 824 572 l 1,20,21
 813 567 813 567 803 563 c 128,-1,22
 793 559 793 559 783 555 c 0,23,24
 776 553 776 553 769.5 550 c 128,-1,25
 763 547 763 547 755 544 c 0,26,27
 660 514 660 514 574 514 c 0,28,29
 369 514 369 514 242 655 c 0,30,31
 114 798 114 798 114 1032 c 0,32,33
 114 1247 114 1247 259 1520 c 1,34,-1
 382 1451 l 1,35,36
 371 1431 371 1431 357.5 1393 c 128,-1,37
 344 1355 344 1355 326 1301 c 1,38,-1
 325 1301 l 1,39,40
 299 1217 299 1217 285 1148.5 c 128,-1,41
 271 1080 271 1080 271 1026 c 0,42,43
 271 942 271 942 293 870.5 c 128,-1,44
 315 799 315 799 353 745 c 1,45,46
 396 691 396 691 453.5 661.5 c 128,-1,47
 511 632 511 632 581 632 c 0,48,49
 613 632 613 632 646 637.5 c 128,-1,50
 679 643 679 643 706 652 c 1,51,-1
 707 652 l 1,52,53
 724 659 724 659 742 668 c 128,-1,54
 760 677 760 677 776 688 c 1,55,-1
 777 688 l 1,56,57
 786 697 786 697 788.5 697.5 c 128,-1,58
 791 698 791 698 793 700 c 1,59,-1
 795 700 l 1,60,61
 796 701 796 701 796.5 701 c 128,-1,62
 797 701 797 701 798 702 c 1,63,-1
 801 702 l 1,64,65
 800 706 800 706 798 716 c 0,66,67
 795 730 795 730 791.5 747.5 c 128,-1,68
 788 765 788 765 785 782 c 0,69,70
 770 865 770 865 771 915 c 0,71,72
 775 1185 775 1185 927 1185 c 0,73,74
 1000 1185 1000 1185 1041 1119 c 1,75,76
 1074 1062 1074 1062 1074 975 c 0,77,78
 1074 803 1074 803 943 663 c 1,79,-1
 945 663 l 1,80,81
 963 652 963 652 1043 432 c 1,82,83
 1135 171 1135 171 1135 6 c 0,0,1
EndSplineSet
Validated: 33
EndChar

